<svg version="1.1" id="Layer_1" xmlns="http://www.w3.org/2000/svg" x="0" y="0" viewBox="0 0 489.6 324" xml:space="preserve"><style>.st2{fill:#fff}</style><path fill="#68737a" d="M.33-.1H490.1v324.4H.33z"/><path d="M418.45 146.9l15.31-7.63-2.28-17.7L420 93.65l-10.47-.03-7.96 1.42c-5.8-12.68-12.9-19.51-21.52-27.98l3.29-7.58 2.37-9.36-9.04-8.07-18.09-11.15-11.49-5.81-12.08 13c-13-1.4-23.32-7.16-35.76-8.2l-4.76-16.1-18.24-.31-15.43 2.79-13.65 3.16-.85 16.91c-7.79 2.63-15.22 5.94-22.22 9.88-3.89 2.18-7.65 4.56-11.27 7.12l-13.22-8.76-23.5 22.38-9.12 12.36 9.64 12.73c-6.87 13.89-11.8 22.84-15.07 35.43l-14.82 1.68-2.64 9.93-1.17 30.23 1.14 7.42 14.83 3.39c2.02 13.3 3.41 27.49 10.18 36.24l-8.49 11.57 7.28 14.36 21.27 23.8 9.38-3.09 3.98-3.75c9.89 8.57 21.06 15.63 33.1 20.94l-.89 14.51 29.83 9.16 15.71-.44 6.9-12.17c5.49.03 11.03-.23 16.61-.89 7.42-.88 14.61-2.4 21.54-4.45l9.09 12.31 8.45-2.73 14.62-5.56 13.4-7.81 6.07-5.39-4.87-15.8c13.87-8.79 18.11-17.49 25.09-27.92l15.87 3.82 3.07-7.17 14.12-26.73 1.58-9.89-14.65-9.47c2.12-11.83 5.24-22.23 1.31-36.68z" fill="#c29d06"/><path class="st2" d="M47.78 78.56h194.83v40.7H47.78z"/><path d="M75.64 128.61H46.26V71.8h29.38v56.81zm-6.74-37.8c-.31.06-.64.29-1 .67-.36.39-.71.86-1.07 1.42-.36.56-.71 1.16-1.05 1.79-.34.64-.68 1.16-1.02 1.56-.31.46-.66 1.07-1.05 1.81s-.78 1.48-1.19 2.21c-.4.73-.83 1.42-1.28 2.07-.45.65-.88 1.1-1.28 1.35-.43.31-.77.33-1.02.05s-.45-.64-.6-1.07c-.16-.43-.27-.88-.35-1.32-.08-.45-.13-.72-.16-.81a31.3 31.3 0 01-.7-1.16c-.34-.59-.84-1.18-1.49-1.77-.31-.34-.73-.86-1.26-1.56-.53-.7-1.05-1.4-1.58-2.12a26.35 26.35 0 00-1.46-1.81c-.45-.5-.75-.65-.91-.47-.19.16-.25.4-.19.72.06.33.17.67.33 1.02.15.36.32.69.49 1 .17.31.26.53.26.65s-.02.36-.05.7c-.03.34-.08.74-.14 1.19-.06.45-.11.89-.14 1.33-.03.43-.09.76-.19.98-.06.22-.11.9-.14 2.05-.03 1.15-.07 2.38-.12 3.7-.05 1.32-.08 2.53-.09 3.65-.02 1.12-.02 1.75-.02 1.91-.06.31-.07.54-.02.7.05.16.43.34 1.14.56.34.12.66.09.95-.12.29-.2.53-.47.72-.81.19-.34.36-.67.51-.98.15-.31.25-.56.28-.74 0-.12.01-.66.02-1.6.01-.95.01-1.95 0-3.02a48.47 48.47 0 00-.12-2.91c-.06-.87-.14-1.3-.23-1.3-.28.03-.51.33-.7.88-.19.56-.39 1.04-.6 1.44-.12.25-.17.77-.14 1.56s.05 1.64.05 2.53v2.46c0 .74-.06 1.13-.19 1.16-.06.03-.12-.46-.19-1.46-.06-1.01-.13-2.13-.21-3.37-.08-1.24-.12-2.42-.14-3.53-.02-1.12-.04-1.81-.07-2.09-.12-.47-.19-1.1-.19-1.91 0-.81.03-1.38.09-1.72.09-.28.28-.45.56-.51s.56-.03.84.09c.12.03.35.26.67.7.33.43.67.94 1.02 1.51.36.57.72 1.18 1.09 1.81.37.64.71 1.15 1.02 1.56.62.9 1.22 1.88 1.79 2.95.57 1.07 1.05 1.76 1.42 2.07.37.22.78.18 1.23-.12.45-.29.77-.43.95-.4.15.03.19.26.12.67-.08.42-.04.63.12.63.15 0 .27-.08.35-.23.08-.15.19-.37.35-.65.09-.12.23-.32.42-.58.19-.26.39-.52.6-.77l.79-1.02-1.12 1.39 1.95-3.72-2.79 4.14 2.65-4.97-.42-.28v-1.49c0-.25.04-.57.12-.95.08-.39.16-.64.26-.77.12-.09.39-.41.79-.95s.68-.81.84-.81c.19-.09.32-.02.4.21.08.23.21.57.4 1 .15.46.29 1.31.4 2.53.11 1.22.1 2.61-.02 4.16 0 .84-.02 1.7-.07 2.58-.05.88-.07 1.73-.07 2.53v2.05c0 .56.05.95.14 1.16.03.25.16.41.4.49.23.08.44.12.63.12h.58c.2 0 .32.03.35.09.12.19.19.33.19.42 0 .09.08.08.23-.05.06 0 .26-.2.6-.6.06-.22.19-.4.37-.56-.06.03-.11.11-.14.23-.12.22-.2.34-.23.37-.12.06-.28.09-.46.09h-.14v-.33c0-.09.05-.42.14-.98.12-.37.04-.91-.26-1.63-.29-.71-.44-1.36-.44-1.95 0-.31.01-1.2.05-2.67.03-1.47.05-3.06.07-4.76.02-1.7.05-3.29.09-4.76.05-1.47.07-2.35.07-2.63 0-.47.19-.85.56-1.16.16-.16.34-.28.56-.37.22-.16.25-.28.09-.37-.16-.09-.38-.14-.67-.14-.29 0-.63.02-1 .05-.37.01-.69.05-.93.11zm-9.11 7.4c-.68-1.05-1.32-2.05-1.91-2.98-.5-.77-.95-1.51-1.35-2.21-.4-.7-.67-1.15-.79-1.37-.06-.19.07.09.4.84s.74 1.58 1.23 2.51c.5.93.98 1.76 1.44 2.49.46.72.79.96.98.72zm.04 1.67c.09.06.08.01-.02-.16a5.54 5.54 0 01-.3-.53c-.16-.22-.34-.5-.56-.84 0 .25.05.48.14.7.12.55.37.83.74.83zm11.95-9.07c-.09 3.5-.17 6.66-.23 9.48v3.53c0 1.18.02 2.24.05 3.18.03.95.06 1.74.09 2.37.03.64.09 1.03.19 1.19.06.16.11-.05.14-.6.03-.56.05-1.29.05-2.18 0-.9-.02-1.95-.05-3.16-.03-1.21-.05-2.43-.05-3.67-.07-2.95-.13-6.32-.19-10.14z"/><path d="M103.9 128.61H74.48V71.8h29.43v56.81zM92.79 89.14l.14.09c.09.09.25.09.46 0 .25-.06.37-.15.37-.26 0-.11-.16-.21-.46-.3-.28-.09-.52-.04-.72.16-.2.2-.4.33-.58.4-.19.12-.37.32-.56.58-.19.26-.7.47-1.53.63-.81.09-1.44.12-1.91.09l-1.35-.09c-.19 0-.45-.02-.79-.07s-.65-.05-.93 0a1.8 1.8 0 00-.79.35c-.25.19-.39.48-.42.88-.09.4-.01.68.26.84.26.16.59.24.98.26.39.02.75.02 1.09.02.34 0 .57.05.7.14.53.68.79 1.84.79 3.49 0 .4.01 1.24.05 2.51.03 1.27.07 2.63.12 4.09.05 1.46.07 2.79.07 4V109c-.09.37-.19.72-.3 1.05-.11.33-.33.55-.67.67-.28.09-.52.09-.72-.02-.2-.11-.44-.15-.72-.12-.12 0-.28.12-.47.35-.19.23-.36.46-.51.7-.16.23-.29.47-.42.72-.12.25-.12.4 0 .47.15.16.67.19 1.53.12.87-.08 1.58-.12 2.14-.12.5 0 1.04.02 1.63.07.59.05 1.12.1 1.58.16.43.12.92.18 1.46.16.54-.02.94-.24 1.19-.67.25-.37.43-.79.53-1.26.11-.46.05-.81-.16-1.02-.31-.31-.73-.4-1.26-.28-.16.03-.37-.06-.65-.28-.28-.22-.5-.33-.65-.33-.22 0-.49.14-.81.42-.33.28-.57.4-.72.37-.12 0-.19-.17-.21-.51-.02-.34-.04-.7-.07-1.09-.03-.39-.05-.77-.05-1.16V93.62c0-.22.09-.39.28-.51.4-.15.81-.15 1.21 0 .15.09.49.19 1 .3.51.11.91.01 1.19-.3.25-.22.5-.47.77-.77.26-.29.33-.6.21-.91-.16-.62-.5-1.02-1.02-1.21-.25-.09-.44-.19-.58-.3-.14-.11-.13-.21.02-.3.06-.12.38-.19.95-.21.57-.02.92.21 1.05.67.03.28.05.53.05.74v1.16c.09-.43.14-.82.14-1.16 0-.25-.03-.51-.09-.79s-.16-.48-.28-.6c-.09-.12-.23-.19-.42-.19s-.36-.01-.51-.05c-.24 0-.44-.02-.63-.05zm-6.23-.65l6.74.19c-1.09-.09-2.09-.15-3.02-.19-.78-.09-1.53-.15-2.25-.16-.73-.02-1.22.04-1.47.16zm4.56 6.88l.19 12.92.37-.09c-.09-.09-.14-.17-.14-.23 0-.03-.01-.08-.02-.14-.02-.06-.02-.14-.02-.23-.06-.15-.11-.88-.14-2.18-.03-1.3-.08-2.7-.14-4.18l-.1-5.87zm.69 13.2c0 .12.08.21.23.26.15.05.36.07.63.07.26 0 .5.02.7.05.2.03.33.05.4.05.12.09.31.28.56.56.25.28.37.51.37.7 0 .22.02.46.07.72.05.26.04.32-.02.16-.03-.06-.04-.41-.02-1.05.02-.64-.24-1.08-.77-1.32-.53-.31-.98-.52-1.37-.63-.4-.12-.65.03-.78.43z"/><path d="M132.03 128.61H102.6V71.8h29.43v56.81zm-8.84-32.87c.34-.12.63-.46.86-1 .23-.54.24-1.11.02-1.7-.06-.25-.26-.6-.58-1.07a10.5 10.5 0 00-1.19-1.39c-.47-.47-.98-.9-1.53-1.3a4.57 4.57 0 00-1.95-.79c-.65-.12-1.53-.12-2.63 0-1.1.12-2.15.41-3.16.86a7.472 7.472 0 00-2.6 1.91c-.73.82-1.09 1.82-1.09 3 0 1.27.17 2.28.51 3.02.34.74.74 1.34 1.21 1.79.47.45.98.75 1.53.91.56.16 1.05.3 1.49.42.46.09 1.05.19 1.74.3.7.11 1.41.23 2.14.37.73.14 1.39.3 1.98.47.59.17 1.02.36 1.3.58.5.43.85 1.09 1.07 1.98.22.88.19 1.59-.09 2.12-.22.53-.76 1.15-1.63 1.86-.87.71-2.06 1.07-3.58 1.07-.74 0-1.35-.04-1.81-.12-.47-.08-.84-.19-1.12-.33-.28-.14-.51-.33-.7-.56s-.4-.47-.65-.72c-.43-.53-.74-.89-.91-1.09-.17-.2-.26-.44-.26-.72 0-.25.09-.46.26-.63.17-.17.19-.38.07-.63-.12-.31-.26-.47-.42-.49-.16-.02-.26-.08-.33-.21a1.01 1.01 0 01-.37-.37c-.09-.15-.12-.36-.09-.6 0-.22.06-.42.19-.6.03-.12.05-.22.05-.28-.12.06-.26.11-.42.14-.31.12-.47.3-.47.51-.06.16-.03.29.09.42.03.06.05.11.05.14a1.34 1.34 0 00-.84 0c-.19.12-.38.3-.58.51-.2.22-.3.57-.3 1.07 0 .46.11 1.02.33 1.65.22.64.55 1.27 1 1.91.45.64.95 1.2 1.51 1.7s1.19.9 1.91 1.21c.68.34 1.46.55 2.32.63.87.08 1.71.08 2.53 0 .82-.08 1.59-.25 2.3-.51.71-.26 1.29-.57 1.72-.91.81-.71 1.51-1.6 2.11-2.65.6-1.05.84-2.14.72-3.25-.09-1.15-.43-2.12-1.02-2.93-.59-.81-1.07-1.43-1.44-1.86-.43-.43-.8-.75-1.09-.95-.3-.2-.5-.27-.63-.21a1.4 1.4 0 00-.05.42c0 .03.02.06.05.09-.34.06-.64.06-.88 0-.53 0-1.07-.09-1.63-.28-.43-.16-1.06-.29-1.88-.42-.82-.12-1.5-.33-2.02-.6-.56-.25-.81-.37-.74-.37.06 0-.06-.03-.37-.09-.19-.06-.54-.33-1.07-.79s-.79-1.02-.79-1.67c0-.34.16-.66.47-.95.31-.29.67-.57 1.07-.84.4-.26.82-.5 1.26-.7.43-.2.79-.32 1.07-.35.53-.12 1.25-.22 2.16-.28.91-.06 1.56.05 1.93.33.43.22.86.56 1.28 1.02.42.47.7.85.86 1.16.12.25.17.5.14.74-.03.25.11.5.42.74.22.22.5.33.84.33.11-.03.23-.08.35-.17zm-9.76 6.42c-.31-.03-.77-.15-1.37-.37-.6-.22-.98-.33-1.14-.33-.12 0-.09.08.12.23.2.16.38.34.53.56.22.25.5.84.86 1.77s.72 1.6 1.09 2c.25.22.54.36.88.42.34.06.7.09 1.07.09h1.39c-.28-.09-.54-.14-.79-.14h-.65c-.22 0-.39-.02-.51-.05-.22-.03-.46-.1-.72-.21-.26-.11-.49-.22-.67-.35-.16-.12-.33-.45-.51-.98-.19-.53-.33-.95-.42-1.26a7.57 7.57 0 00-.46-.79c-.06-.19-.14-.29-.23-.33.12.03.29.09.51.19.12.03.27.05.44.05h.35c.15 0 .33.02.51.05.19.03.4.05.65.05h.93a2.59 2.59 0 01-.74-.28 5.72 5.72 0 01-.67-.14c-.24-.06-.39-.12-.45-.18zm5.91-5.4l-.6-.33c-.34-.16-.68-.28-1.02-.37-.09 0-.33-.04-.7-.12-.37-.08-.78-.16-1.23-.26-.45-.09-.85-.22-1.21-.4-.36-.17-.58-.33-.67-.49-.28-.43-.22-.8.19-1.09.4-.29.84-.44 1.3-.44h1.86c-.31-.03-.64-.09-.98-.19-.25-.03-.54-.05-.88-.07-.34-.02-.62-.02-.84-.02-.5.03-.99.28-1.49.74-.5.47-.64.99-.42 1.58.12.34.35.6.67.77.33.17.67.29 1.05.37.37.08.74.12 1.09.14.36.02.63.02.81.02.12.06.36.09.7.09h1.07c.46.03.89.04 1.3.07zm3.95 1.77c-.19.06-.11.19.23.37l.51.33c.5.65.9 1.32 1.21 2 .28.59.5 1.29.67 2.12.17.82.18 1.65.02 2.49-.37 1.77-.91 2.99-1.6 3.67-.7.68-1.45 1.27-2.25 1.77-.84.47-1.72.86-2.65 1.19-.93.33-1.69.49-2.28.49s-1.2-.02-1.84-.07c-.64-.05-.89-.02-.77.07.03 0 .36.04.98.12.62.08 1.35.09 2.18.02.84-.06 1.74-.22 2.72-.46.98-.25 1.88-.67 2.72-1.26.81-.59 1.44-1.3 1.91-2.14.47-.84.8-1.67 1-2.51.2-.84.33-1.61.37-2.32.05-.71.02-1.26-.07-1.63-.06-.34-.23-.77-.51-1.3s-.59-1.01-.93-1.44c-.34-.43-.66-.81-.95-1.14-.29-.35-.52-.46-.67-.37zm.23-2.14c0 .22.09.4.28.53.19.14.34.15.47.02.09-.12.32-.37.67-.74.36-.37.53-.77.53-1.21 0-.15-.01-.38-.02-.67-.02-.29-.04-.6-.07-.91-.09-.28-.17-.59-.23-.93.06 0 .14-.03.23-.09l.23-.23c0-.09-.12-.19-.37-.28l-.33-.19a1.07 1.07 0 01-.14-.23c-.12-.12-.16-.25-.09-.37.06-.12-.17-.52-.7-1.19-.53-.67-.99-1.12-1.39-1.37-.46-.28-1.16-.61-2.09-1-.93-.39-1.52-.58-1.77-.58h-.79c-.16 0-.25-.02-.28-.05.96.34 1.86.65 2.7.93.71.31 1.38.65 2 1.02.62.37 1.07.73 1.35 1.07.22.37.38.67.49.88.11.22.22.42.35.6.09.19.14.33.14.42l.09.47.19.37c.12.47.22.88.28 1.26.09.34.1.69.02 1.05-.08.36-.21.61-.4.77-.31.22-.53.35-.67.4-.14.05-.27.12-.4.21l-.28.04z"/><path d="M160.15 128.61h-29.43V71.8h29.43v56.81zm-8.83-32.87c.34-.12.63-.46.86-1 .23-.54.24-1.11.02-1.7-.06-.25-.26-.6-.58-1.07a10.5 10.5 0 00-1.19-1.39c-.47-.47-.98-.9-1.53-1.3a4.57 4.57 0 00-1.95-.79c-.65-.12-1.53-.12-2.63 0-1.1.12-2.15.41-3.16.86a7.472 7.472 0 00-2.6 1.91c-.73.82-1.09 1.82-1.09 3 0 1.27.17 2.28.51 3.02.34.74.74 1.34 1.21 1.79.47.45.98.75 1.53.91.56.16 1.05.3 1.49.42.46.09 1.05.19 1.74.3.7.11 1.41.23 2.14.37.73.14 1.39.3 1.98.47.59.17 1.02.36 1.3.58.5.43.85 1.09 1.07 1.98.22.88.19 1.59-.09 2.12-.22.53-.76 1.15-1.63 1.86-.87.71-2.06 1.07-3.58 1.07-.74 0-1.35-.04-1.81-.12-.47-.08-.84-.19-1.12-.33a2.14 2.14 0 01-.7-.56c-.19-.23-.4-.47-.65-.72-.43-.53-.74-.89-.91-1.09-.17-.2-.26-.44-.26-.72 0-.25.08-.46.26-.63.17-.17.19-.38.07-.63-.12-.31-.26-.47-.42-.49-.16-.02-.26-.08-.33-.21a1.01 1.01 0 01-.37-.37c-.09-.15-.12-.36-.09-.6 0-.22.06-.42.19-.6.03-.12.05-.22.05-.28-.12.06-.26.11-.42.14-.31.12-.47.3-.47.51-.06.16-.03.29.09.42.03.06.05.11.05.14a1.34 1.34 0 00-.84 0c-.19.12-.38.3-.58.51-.2.22-.3.57-.3 1.07 0 .46.11 1.02.33 1.65.22.64.55 1.27 1 1.91.45.64.95 1.2 1.51 1.7s1.19.9 1.91 1.21c.68.34 1.46.55 2.32.63.87.08 1.71.08 2.53 0 .82-.08 1.59-.25 2.3-.51.71-.26 1.29-.57 1.72-.91.81-.71 1.51-1.6 2.11-2.65.6-1.05.84-2.14.72-3.25-.09-1.15-.43-2.12-1.02-2.93-.59-.81-1.07-1.43-1.44-1.86-.43-.43-.8-.75-1.09-.95-.3-.2-.5-.27-.63-.21a1.4 1.4 0 00-.05.42c0 .03.02.06.05.09-.34.06-.64.06-.88 0-.53 0-1.07-.09-1.63-.28-.43-.16-1.06-.29-1.88-.42-.82-.12-1.5-.33-2.02-.6-.56-.25-.81-.37-.74-.37.06 0-.06-.03-.37-.09-.19-.06-.54-.33-1.07-.79s-.79-1.02-.79-1.67c0-.34.16-.66.47-.95.31-.29.67-.57 1.07-.84.4-.26.82-.5 1.26-.7.43-.2.79-.32 1.07-.35.53-.12 1.25-.22 2.16-.28.91-.06 1.56.05 1.93.33.43.22.86.56 1.28 1.02.42.47.7.85.86 1.16.12.25.17.5.14.74-.03.25.11.5.42.74.22.22.5.33.84.33.1-.03.22-.08.35-.17zm-9.76 6.42c-.31-.03-.77-.15-1.37-.37-.6-.22-.98-.33-1.14-.33-.12 0-.09.08.12.23.2.16.38.34.53.56.22.25.5.84.86 1.77s.72 1.6 1.09 2c.25.22.54.36.88.42.34.06.7.09 1.07.09h1.4c-.28-.09-.54-.14-.79-.14h-.65c-.22 0-.39-.02-.51-.05-.22-.03-.46-.1-.72-.21-.26-.11-.49-.22-.67-.35-.16-.12-.33-.45-.51-.98-.19-.53-.33-.95-.42-1.26a7.57 7.57 0 00-.46-.79c-.06-.19-.14-.29-.23-.33.12.03.29.09.51.19.12.03.27.05.44.05h.35c.15 0 .33.02.51.05.19.03.4.05.65.05h.93a2.59 2.59 0 01-.74-.28 5.72 5.72 0 01-.67-.14c-.25-.06-.4-.12-.46-.18zm5.9-5.4l-.6-.33c-.34-.16-.68-.28-1.02-.37-.09 0-.33-.04-.7-.12-.37-.08-.78-.16-1.23-.26-.45-.09-.85-.22-1.21-.4-.36-.17-.58-.33-.67-.49-.28-.43-.22-.8.19-1.09.4-.29.84-.44 1.3-.44h1.86c-.31-.03-.64-.09-.98-.19-.25-.03-.54-.05-.88-.07-.34-.02-.62-.02-.84-.02-.5.03-.99.28-1.49.74-.5.47-.64.99-.42 1.58.12.34.35.6.67.77.33.17.67.29 1.05.37.37.08.74.12 1.09.14.36.02.63.02.81.02.12.06.36.09.7.09h1.07c.46.03.9.04 1.3.07zm3.95 1.77c-.19.06-.11.19.23.37l.51.33c.5.65.9 1.32 1.21 2 .28.59.5 1.29.67 2.12.17.82.18 1.65.02 2.49-.37 1.77-.91 2.99-1.6 3.67-.7.68-1.45 1.27-2.25 1.77-.84.47-1.72.86-2.65 1.19-.93.33-1.69.49-2.28.49-.59 0-1.2-.02-1.84-.07-.64-.05-.89-.02-.77.07.03 0 .36.04.98.12.62.08 1.35.09 2.18.02.84-.06 1.74-.22 2.72-.46.98-.25 1.88-.67 2.72-1.26.81-.59 1.44-1.3 1.91-2.14.47-.84.8-1.67 1-2.51.2-.84.33-1.61.37-2.32.05-.71.02-1.26-.07-1.63-.06-.34-.23-.77-.51-1.3s-.59-1.01-.93-1.44c-.34-.43-.66-.81-.95-1.14-.29-.35-.51-.46-.67-.37zm.23-2.14c0 .22.09.4.28.53.19.14.34.15.47.02.09-.12.32-.37.67-.74.36-.37.53-.77.53-1.21 0-.15-.01-.38-.02-.67-.02-.29-.04-.6-.07-.91-.09-.28-.17-.59-.23-.93.06 0 .14-.03.23-.09l.23-.23c0-.09-.12-.19-.37-.28l-.33-.19a1.07 1.07 0 01-.14-.23c-.12-.12-.16-.25-.09-.37.06-.12-.17-.52-.7-1.19-.53-.67-.99-1.12-1.39-1.37-.46-.28-1.16-.61-2.09-1-.93-.39-1.52-.58-1.77-.58h-.79c-.16 0-.25-.02-.28-.05.96.34 1.86.65 2.7.93.71.31 1.38.65 2 1.02.62.37 1.07.73 1.35 1.07.22.37.38.67.49.88.11.22.22.42.35.6.09.19.14.33.14.42l.09.47.19.37c.12.47.22.88.28 1.26.09.34.1.69.02 1.05-.08.36-.21.61-.4.77-.31.22-.53.35-.67.4-.14.05-.27.12-.4.21l-.28.04z"/><path d="M188.37 128.61h-29.43V71.8h29.43v56.81zm-11.11-39.47l.14.09c.09.09.25.09.46 0 .25-.06.37-.15.37-.26 0-.11-.16-.21-.46-.3-.28-.09-.52-.04-.72.16-.2.2-.4.33-.58.4-.19.12-.37.32-.56.58-.19.26-.7.47-1.53.63-.81.09-1.44.12-1.91.09l-1.35-.09c-.19 0-.45-.02-.79-.07s-.65-.05-.93 0a1.8 1.8 0 00-.79.35c-.25.19-.39.48-.42.88-.09.4-.01.68.26.84.26.16.59.24.98.26.39.02.75.02 1.09.02.34 0 .57.05.7.14.53.68.79 1.84.79 3.49 0 .4.01 1.24.05 2.51.03 1.27.07 2.63.12 4.09.05 1.46.07 2.79.07 4V109c-.09.37-.19.72-.3 1.05-.11.33-.33.55-.67.67-.28.09-.52.09-.72-.02-.2-.11-.44-.15-.72-.12-.12 0-.28.12-.47.35-.19.23-.36.46-.51.7-.16.23-.29.47-.42.72-.12.25-.12.4 0 .47.15.16.67.19 1.53.12.87-.08 1.58-.12 2.14-.12.5 0 1.04.02 1.63.07.59.05 1.12.1 1.58.16.43.12.92.18 1.46.16.54-.02.94-.24 1.19-.67.25-.37.43-.79.53-1.26.11-.46.05-.81-.16-1.02-.31-.31-.73-.4-1.26-.28-.16.03-.37-.06-.65-.28-.28-.22-.5-.33-.65-.33-.22 0-.49.14-.81.42-.33.28-.57.4-.72.37-.12 0-.19-.17-.21-.51-.02-.34-.04-.7-.07-1.09-.03-.39-.05-.77-.05-1.16V93.62c0-.22.09-.39.28-.51.4-.15.81-.15 1.21 0 .15.09.49.19 1 .3.51.11.91.01 1.19-.3.25-.22.5-.47.77-.77.26-.29.33-.6.21-.91-.16-.62-.5-1.02-1.02-1.21-.25-.09-.44-.19-.58-.3-.14-.11-.13-.21.02-.3.06-.12.38-.19.95-.21.57-.02.92.21 1.05.67.03.28.05.53.05.74v1.16c.09-.43.14-.82.14-1.16 0-.25-.03-.51-.09-.79s-.16-.48-.28-.6a.497.497 0 00-.42-.19c-.19 0-.36-.01-.51-.05-.24 0-.45-.02-.63-.05zm-6.23-.65l6.74.19c-1.09-.09-2.09-.15-3.02-.19-.78-.09-1.53-.15-2.25-.16-.74-.02-1.22.04-1.47.16zm4.56 6.88l.19 12.92.37-.09c-.09-.09-.14-.17-.14-.23 0-.03-.01-.08-.02-.14-.02-.06-.02-.14-.02-.23-.06-.15-.11-.88-.14-2.18-.03-1.3-.08-2.7-.14-4.18l-.1-5.87zm.69 13.2c0 .12.08.21.23.26.15.05.36.07.63.07.26 0 .5.02.7.05.2.03.33.05.4.05.12.09.31.28.56.56.25.28.37.51.37.7 0 .22.02.46.07.72.05.26.04.32-.02.16-.03-.06-.04-.41-.02-1.05.02-.64-.24-1.08-.77-1.32-.53-.31-.98-.52-1.37-.63-.4-.12-.65.03-.78.43z"/><path d="M216.49 128.61h-29.38V71.8h29.38v56.81zM205.1 90.44c-.74-.71-1.38-1.22-1.91-1.51-.53-.29-.67-.19-.42.3 0 .09-.33.14-1 .14-.67 0-1.49.09-2.46.28-.98.19-1.96.52-2.95 1-.99.48-1.75 1.25-2.28 2.3-.62 1.05-1.11 2.36-1.46 3.93-.36 1.57-.51 3.17-.47 4.81.05 1.64.33 3.21.86 4.7.53 1.49 1.38 2.73 2.56 3.72 1.24.96 2.46 1.61 3.67 1.95 1.21.34 2.32.43 3.35.26 1.02-.17 1.92-.57 2.7-1.19.77-.62 1.38-1.32 1.81-2.09.37-.81.73-1.73 1.07-2.77.34-1.04.6-2.09.79-3.16.19-1.07.26-2.11.23-3.12-.03-1.01-.14-1.91-.33-2.72-.92-3.03-2.18-5.31-3.76-6.83zm-3.34 1.44c.87.09 1.63.43 2.3 1 .67.57 1.23 1.27 1.7 2.09.47.82.82 1.73 1.07 2.72.25.99.37 1.97.37 2.93 0 .96-.13 1.98-.4 3.05-.26 1.07-.64 2.03-1.14 2.88-.5.85-1.07 1.56-1.72 2.12-.65.56-1.33.84-2.05.84-.74 0-1.56-.16-2.44-.49-.88-.33-1.7-.87-2.46-1.63-.76-.76-1.39-1.75-1.88-2.98-.5-1.22-.68-2.73-.56-4.53.06-1.8.44-3.23 1.14-4.3.7-1.07 1.46-1.89 2.28-2.46.82-.57 1.61-.94 2.37-1.09.76-.16 1.23-.21 1.42-.15zm-2.28 1.72c-.47.25-.91.56-1.35.93-.4.34-.79.78-1.16 1.3a6.48 6.48 0 00-.88 1.81c-.43 1.43-.54 2.94-.33 4.53.22 1.6.54 2.86.98 3.79.25.47.56.87.93 1.21.37.34.75.6 1.14.79.39.19.74.33 1.05.42.31.09.51.11.6.05.09-.16-.02-.38-.35-.67-.33-.29-.67-.61-1.05-.95-.19-.15-.41-.34-.67-.56-.26-.22-.53-.53-.79-.93s-.5-.95-.7-1.65c-.2-.7-.32-1.63-.35-2.81-.16-1.12-.09-2.14.21-3.07.29-.93.66-1.69 1.09-2.28.5-.71 1.04-1.35 1.63-1.91zm6.83-4.51c-.71-.4-1.34-.74-1.88-1.02-.54-.28-1.03-.48-1.46-.6-.5-.15-.96-.23-1.39-.23l1.72.56c.09.03.41.21.95.53.54.33 1.13.72 1.77 1.19.63.46 1.24.99 1.81 1.58.57.59.98 1.21 1.23 1.86.25.65.47 1.4.67 2.25.2.85.37 1.74.51 2.67.14.93.24 1.84.3 2.72.06.88.03 1.67-.09 2.35-.22 1.43-.52 2.71-.91 3.86s-1.2 2.36-2.44 3.63c-.65.62-1.31 1.14-1.98 1.56-.67.42-1.28.75-1.84 1-.68.31-1.32.54-1.91.7 1.05-.28 2.06-.64 3.02-1.07.81-.37 1.63-.88 2.49-1.51.85-.64 1.54-1.42 2.07-2.35.53-.93.92-1.96 1.19-3.09.26-1.13.46-2.22.58-3.28.12-1.05.18-2 .16-2.84-.02-.84-.04-1.47-.07-1.91-.09-.31-.25-.84-.46-1.6-.22-.76-.51-1.58-.88-2.46-.37-.88-.83-1.74-1.37-2.56-.54-.83-1.14-1.47-1.79-1.94zm6.19 15.2c-.12.12-.19.22-.19.28 0 .16.02.28.05.37.03.09.12.17.28.23l-.14-.88z"/><path d="M244.29 128.61h-29.47V71.8h29.47v56.81zm-20.08-17.99c.06-.25-.03-.56-.28-.93s-.4-.68-.47-.93c0-.16-.01-.59-.02-1.3-.02-.71-.04-1.53-.07-2.44-.03-.91-.05-1.8-.05-2.65v-2.07c.06-.9.13-1.61.21-2.14.08-.53.08-.91.02-1.16-.06-.09-.2.06-.42.46-.12.22-.26.42-.42.6-.03-.47-.08-.93-.14-1.39a7.99 7.99 0 01-.02-1.09c.02-.36.07-.58.16-.67.28-.19.5-.36.67-.53.17-.17.36-.18.58-.02.03.03.24.36.63 1s.85 1.39 1.39 2.28c.54.88 1.12 1.84 1.74 2.88a173.8 173.8 0 011.72 2.95c.53.93.98 1.7 1.37 2.3.39.6.61.98.67 1.14l1.63 2.18c.03.03.09.19.16.49.08.3.15.61.23.95.08.34.17.67.28 1 .11.33.24.52.4.58.12.09.35.16.67.21.33.05.64.05.95 0 .31-.05.6-.13.88-.26.28-.12.43-.34.47-.65.12-.59.06-1.31-.19-2.16-.25-.85-.37-2.3-.37-4.35 0-.96.02-2.06.07-3.3.05-1.24.07-2.46.07-3.67s.01-2.29.02-3.23c.01-.95.04-1.6.07-1.98.09-.77.21-1.38.35-1.81.14-.43.18-.76.12-.98a.851.851 0 01-.16-.47c-.02-.19-.07-.39-.16-.6-.12-.22-.2-.43-.23-.65-.19.25-.36.48-.51.7-.34.53-.6.85-.79.98-.19.06-.41.17-.67.33-.26.16-.41.36-.44.6 0 .31.12.85.35 1.63.23.78.3 1.5.21 2.18 0 .28-.01.92-.02 1.93-.02 1.01-.05 2.08-.12 3.23-.06 1.15-.11 2.22-.14 3.21-.03.99-.05 1.61-.05 1.86-.12.43-.22.93-.28 1.49-.06.56-.23.93-.51 1.12a.86.86 0 01-.77.26c-.3-.05-.55-.29-.77-.72-.25-.4-.45-.75-.6-1.05-.16-.29-.26-.61-.33-.95-.09-.34-.16-.65-.21-.93-.05-.28.02-.45.21-.51.12-.06.2-.09.23-.09s.12-.05.28-.14c.12 0 .2-.02.23-.05-.43-.5-.84-.98-1.21-1.44-.81-.93-1.33-1.63-1.58-2.09-.16-.22-.41-.7-.77-1.44-.36-.74-.73-1.53-1.12-2.37-.39-.84-.76-1.63-1.12-2.37-.36-.74-.58-1.19-.67-1.35-.28-.34-.57-.88-.86-1.63-.3-.74-.53-1.19-.72-1.35-.16-.12-.23-.3-.23-.53v-.49c0-.12-.02-.1-.07.07s-.15.35-.3.53c-.19.16-.56.37-1.12.65s-.88.56-.98.84c0 .19.04.43.12.72.08.3.19.6.33.91.14.31.26.6.35.88.09.28.14.45.14.51.06.31.01.79-.16 1.44-.17.65-.26 1.16-.26 1.53 0 .43-.06.89-.19 1.37-.12.48-.19.89-.19 1.23 0 .16-.02.78-.07 1.88-.05 1.1-.07 2.32-.07 3.65v3.77c0 1.18.05 1.92.14 2.23.37 1.18.84 1.74 1.39 1.67.25-.12.52-.36.81-.72.34-.36.52-.62.58-.77zm-.46 1.76c-.06.06-.08.19-.05.4.03.2.06.26.09.16 0-.09.07-.21.21-.35.14-.14.26-.3.35-.49.19-.19.37-.42.56-.7l-.42.42c-.34.19-.59.38-.74.56zm8.32-11.53c-.37-.74-.74-1.5-1.12-2.28-.34-.68-.69-1.36-1.05-2.05-.36-.68-.67-1.26-.95-1.72-.28-.47-.58-1.01-.91-1.65-.33-.64-.65-1.25-.98-1.84-.33-.59-.63-1.12-.91-1.58-.28-.47-.53-.76-.74-.88-.22-.12-.4-.24-.56-.35-.16-.11-.33-.21-.51-.3-.22-.12-.4-.2-.56-.23.62.71 1.22 1.49 1.81 2.32.56.78 1.16 1.69 1.81 2.74.65 1.05 1.3 2.17 1.95 3.35.65 1.24 1.15 2.15 1.51 2.74.36.59.6 1.02.72 1.3.3.3.46.43.49.43zm-6.98 9.86v-6.55c0-.84.03-1.32.09-1.44 0-.12-.05-.39-.14-.79-.09-.4-.17-.82-.23-1.26-.19-.46-.34-.98-.47-1.53.12 2.05.25 3.9.37 5.58.06.71.1 1.43.12 2.16.02.73.05 1.36.12 1.91.06.54.1.98.12 1.32.02.34.02.54.02.6zm.65-6.51l.47-.37-.09-.37-.38.74zm9.3 9.39h.33c.06 0 .26-.06.6-.19.12 0 .25-.04.37-.12.12-.08.28-.18.47-.3.22-.12.4-.26.56-.42l-2.33 1.03zm2.88-4.51v-.19c0-.03.02-.09.05-.19.03-.09.05-.2.05-.33 0-.09.06-.22.19-.37.12-.16.19-.33.19-.51v-8.65c0-2.54.01-5.39.05-8.55-.12.19-.21.58-.26 1.19-.05.6-.1 1.35-.16 2.23-.06.88-.09 1.88-.09 3v12.37zm.19.93v1.02c.06-.03.09-.14.09-.33v-.33c0-.08-.03-.2-.09-.36z"/><path transform="rotate(4.289 341.634 92.143)" class="st2" d="M248.34 72.59h186.17v38.97H248.34z"/><path d="M274.8 113.93l-29.39-2.21 4.25-56.65 29.39 2.21-4.25 56.65zm-3.24-39.4c.04-.18-.01-.42-.16-.71s-.32-.55-.5-.78c-.18-.23-.38-.39-.59-.49-.21-.09-.4-.13-.55-.11-.32.1-.62.4-.91.91-.29.51-.52 1.19-.71 2.04-.03.4-.29 1.23-.77 2.48-.48 1.25-1.01 2.59-1.58 4.01-.57 1.42-1.14 2.75-1.7 4s-.96 2.08-1.21 2.5c-.44.84-.8 1.53-1.09 2.09-.29.55-.53.87-.72.95-.16-.01-.33-.29-.52-.83s-.34-.93-.45-1.15c-.08-.22-.06-.49.06-.79.12-.3.12-.6.02-.88-.11-.16-.26-.51-.46-1.04-.19-.53-.41-1.16-.65-1.89-.24-.73-.5-1.48-.76-2.25-.27-.77-.46-1.45-.57-2.05-.22-1.2-.47-2.27-.74-3.23-.27-.95-.39-1.66-.35-2.12.01-.19.02-.48.02-.88s-.06-.82-.19-1.25c-.12-.43-.27-.81-.43-1.15-.16-.34-.35-.52-.57-.53-.48-.16-.9.04-1.23.61-.34.57-.45 1.35-.34 2.35.12.44.4 1.44.83 2.98.43 1.54.9 3.2 1.42 4.98.52 1.78 1.01 3.4 1.48 4.87.47 1.46.76 2.39.89 2.77.25.8.48 1.5.68 2.13.2.62.35 1.08.46 1.36.05.13.15.3.29.51.14.21.32.43.53.65.22.22.46.4.73.54.27.14.51.19.73.15.38-.03.69-.14.93-.33.25-.18.39-.52.43-1.02.04-.49.04-.86.01-1.09-.03-.24.04-.44.21-.61.04-.12.31-.73.81-1.83s1.01-2.33 1.54-3.71c.52-1.37 1.02-2.66 1.5-3.85s.79-1.94.94-2.24c.14-.24.31-.58.5-1.03.19-.45.39-.9.61-1.35.22-.45.41-.85.58-1.22.17-.36.3-.61.41-.76.17-.17.38-.45.64-.81s.42-.69.5-.9zM261.23 85.5c.04-.09-.01-.47-.15-1.15-.13-.68-.3-1.45-.5-2.32s-.39-1.68-.59-2.42c-.19-.74-.3-1.21-.31-1.4-.09-.07-.2-.39-.35-.96-.14-.57-.32-1.16-.52-1.76-.26-.7-.5-1.45-.72-2.24l1.22 4.94c.37 1.3.69 2.52.96 3.64s.42 1.75.44 1.87c.06.47.15.88.28 1.23.11.22.19.41.24.57zm11.08-10.4c-1.34 3.32-2.57 6.32-3.71 9-.46 1.12-.92 2.22-1.39 3.32-.47 1.1-.89 2.11-1.25 3.03-.36.92-.66 1.67-.89 2.26-.23.59-.4.94-.5 1.06-.15.39-.37.79-.65 1.19-.28.4-.5.64-.66.72-.23.11-.43.15-.62.14l-.23-.02c.02.13.03.24.02.33-.02.31-.1.48-.22.5l-.86.31c.28-.01.56-.07.85-.17.22-.08.45-.16.7-.25.24-.09.45-.27.62-.54.13-.08.44-.66.92-1.73.48-1.07 1.06-2.36 1.74-3.88.68-1.52 1.37-3.13 2.09-4.83.72-1.7 1.38-3.31 1.99-4.82.61-1.51 1.12-2.78 1.52-3.8.4-1.02.58-1.63.53-1.82z"/><path d="M302.8 116.03l-29.34-2.2 4.25-56.65 29.34 2.2-4.25 56.65zm-8.12-40.19l.13.1c.09.1.24.11.46.03.25-.04.38-.12.39-.23.01-.11-.14-.22-.44-.34-.27-.11-.51-.08-.73.11-.22.19-.42.3-.61.35-.2.11-.4.29-.6.54-.2.25-.73.42-1.58.51-.81.03-1.45.02-1.91-.05-.46-.07-.91-.13-1.34-.19-.19-.01-.45-.06-.78-.13-.34-.07-.65-.1-.93-.07s-.55.12-.81.29c-.26.17-.42.45-.48.85-.12.4-.06.68.19.85.25.17.57.28.95.33.38.04.75.08 1.09.1.34.03.57.09.68.19.47.72.65 1.9.53 3.54-.03.4-.08 1.24-.14 2.51-.06 1.27-.13 2.63-.19 4.09s-.14 2.79-.23 3.99c-.09 1.2-.14 1.89-.15 2.04-.12.36-.25.7-.38 1.02-.13.32-.37.52-.72.62-.28.07-.52.05-.72-.08a1.23 1.23 0 00-.71-.17c-.12-.01-.29.09-.49.31s-.39.44-.56.66-.33.45-.47.69c-.14.24-.15.39-.03.46.14.17.65.24 1.52.23.87-.01 1.58 0 2.14.04.49.04 1.03.1 1.62.19.58.09 1.11.18 1.56.28.42.16.91.25 1.45.27.54.03.95-.17 1.23-.58.27-.35.48-.76.63-1.21.14-.46.11-.8-.08-1.03-.29-.33-.7-.46-1.23-.37-.16.02-.37-.09-.63-.33-.26-.24-.47-.36-.62-.37-.22-.02-.5.1-.84.36-.35.25-.59.36-.75.32-.12-.01-.18-.18-.17-.53.01-.34.01-.71.01-1.09 0-.39.01-.78.04-1.16.03-.39.05-.67.06-.86l.89-11.87c.03-.46.06-.8.08-1.02a.58.58 0 01.32-.49c.41-.12.81-.09 1.21.09.15.1.47.23.97.38s.9.08 1.2-.21c.26-.2.54-.43.82-.71.28-.27.38-.57.28-.89-.11-.63-.42-1.06-.93-1.28-.24-.11-.43-.23-.56-.34-.13-.12-.12-.22.04-.3.07-.12.39-.16.97-.14.57.03.9.28.99.75.01.28.01.53-.01.75-.02.22-.03.42-.05.6l-.04.56c.12-.43.2-.81.23-1.15.02-.25.01-.51-.03-.8-.04-.28-.12-.49-.23-.62-.08-.13-.22-.2-.4-.22s-.35-.04-.51-.08c-.22-.01-.42-.04-.6-.09zm-6.16-1.11l6.71.69c-1.07-.17-2.07-.31-3-.41-.77-.15-1.51-.26-2.24-.33-.73-.07-1.22-.06-1.47.05zm4.02 7.2l-.78 12.9.38-.07c-.08-.1-.13-.18-.12-.24 0-.03 0-.08-.01-.14-.01-.06-.01-.14-.01-.23-.05-.16-.04-.89.03-2.19.07-1.3.12-2.69.17-4.18l.34-5.85zm-.29 13.22c-.01.12.06.21.21.27.15.06.36.1.62.12.26.02.49.05.69.1.2.05.33.07.39.08.11.1.29.3.51.6.23.3.33.54.32.72-.02.22-.01.46.02.72.03.27.01.32-.04.16-.03-.06-.01-.41.06-1.05.06-.63-.16-1.09-.67-1.38-.5-.35-.94-.59-1.32-.73-.37-.13-.64 0-.79.39z"/><path d="M330.62 118.12l-29.3-2.2 4.25-56.65 29.3 2.2-4.25 56.65zm-18.83-41.08c-.26.14-.46.52-.6 1.17-.14.64-.23 1.19-.26 1.66-.02.22-.07.94-.16 2.16-.09 1.22-.18 2.53-.25 3.92-.08 1.39-.16 2.68-.25 3.87s-.14 1.88-.15 2.06c-.01.16-.06.56-.14 1.2-.08.65-.15 1.34-.2 2.08-.06.74-.09 1.45-.11 2.14-.02.68.02 1.15.13 1.41.18.42.28.64.28.67 0 .03.18.12.54.27.36.12.74.05 1.11-.22.38-.27.61-.6.71-1 .06-.37-.01-.82-.2-1.37-.19-.54-.28-.94-.26-1.18.01-.19.06-.46.13-.83.07-.37.14-.76.2-1.17.06-.41.12-.79.18-1.13.06-.34.09-.58.1-.74-.04-.31-.06-.7-.05-1.17 0-.47.1-.77.3-.91.19-.08.7-.09 1.52-.03.82.06 1.42.04 1.8-.05.47-.03.9-.12 1.3-.27.4-.16.82-.11 1.27.14.21.14.43.49.67 1.05.24.56.48 1.19.72 1.9.24.7.48 1.39.71 2.06.23.67.41 1.2.53 1.58.12.41.27.9.45 1.46.18.56.39 1.08.63 1.56s.5.88.77 1.2c.27.32.55.41.84.27.61-.23.97-.49 1.08-.78.11-.29.13-.67.04-1.14-.05-.16-.19-.44-.43-.85-.23-.41-.5-.86-.81-1.37-.31-.5-.6-1.01-.89-1.51-.29-.5-.49-.99-.61-1.47-.49-1.75-.73-2.74-.71-2.99.01-.19 0-.3-.04-.35-.04-.05 0-.12.13-.2.04-.09.29-.28.76-.57.47-.29.97-.72 1.5-1.29.52-.57 1-1.17 1.44-1.8.44-.64.65-1.3.64-1.98.07-1.3-.12-2.4-.57-3.31-.45-.9-.91-1.58-1.41-2.02-.43-.5-.81-.86-1.15-1.09-.34-.23-.66-.37-.97-.42-.24-.14-.33-.23-.26-.28.07-.04-.03-.03-.28.05-.1.09-.45.11-1.06.08-.6-.03-1.24-.07-1.9-.12-.66-.05-1.34-.09-2.04-.13-.7-.04-1.17-.06-1.42-.08-.56-.04-1.21-.09-1.97-.15-.76-.05-1.2-.05-1.33.01zm1.42 14.55c-.01.09-.01.4 0 .93s.01 1.13 0 1.79c0 .67 0 1.3.02 1.89.02.59.02 1 0 1.21 0 .47-.02.81-.05 1.02-.03.22-.17.44-.4.67-.27.26-.4.41-.41.44 0 .03-.1.04-.28.03-.19-.01-.43-.08-.73-.2-.24-.11-.4-.2-.49-.27.23.27.44.52.64.75.5.41.85.5 1.05.27.14-.18.29-.49.47-.94.17-.45.33-.97.47-1.55.14-.58.27-1.16.41-1.74.14-.58.22-1.09.25-1.52-.03-.41-.02-.77.03-1.09.06-.32.09-.61.11-.85.02-.28.09-.52.2-.73l.4.26c.45.25.8.37 1.05.36.31-.01.36-.16.15-.45-.21-.3-.44-.45-.69-.47-.34-.03-.65-.13-.93-.33-.28-.19-.57-.36-.87-.51-.24-.11-.37 0-.37.32s-.01.56-.03.71zm7.52-11.27c.62.05 1.25.3 1.9.75.35.24.62.61.8 1.11.18.5.28 1.02.3 1.58.08.57-.05 1.13-.41 1.69-.35.56-.76 1.02-1.22 1.35-.43.34-.97.54-1.61.6-.64.06-1.32.05-2.02-.03-.31-.02-.68-.1-1.13-.22-.44-.13-.86-.24-1.26-.33-.4-.09-.74-.18-1.03-.26-.29-.08-.48-.13-.57-.14-.06 0-.35.08-.86.26s-.82.17-.93-.02c-.11-.13-.1-.4.06-.79.15-.39.28-.66.39-.81.14-.18.19-.31.15-.41-.04-.1-.06-.3-.07-.61.01-.15.01-.4-.02-.72-.02-.33-.03-.67-.04-1.03 0-.36-.01-.68-.02-.96-.01-.28-.01-.44-.01-.47.03-.34.07-.58.15-.74.17-.17.49-.15.97.07.21.14.37.19.48.15.11-.04.32-.05.63-.02.25.02.52.02.82-.01.3-.02.59-.03.86-.01.25.02.7.08 1.36.17.66.1 1.1.11 1.33.03.1-.12.21-.18.34-.18.13.01.35 0 .66 0zm-6.44 3.8c-.01.19-.09.37-.23.54a1.8 1.8 0 00-.07.27l.57.46 2.45.32c-.4-.06-.77-.17-1.1-.32-.24-.11-.5-.22-.77-.34-.27-.11-.45-.24-.53-.37l-.25-.44-.07-.12zm-.14-2.53c-.13.11-.12.29.03.54.15.24.22.44.21.6-.01.12.07.29.24.48l.09.1c-.11-.19-.19-.4-.23-.62-.19-.39-.17-.65.06-.79.19-.05.5-.06.93-.02l.65.05-1-.26a2.59 2.59 0 00-.67-.14c-.2-.02-.3 0-.31.06zm8.37-5.24c.77.52 1.47 1.04 2.12 1.56.55.51 1.06 1.07 1.53 1.68.47.61.75 1.28.85 2 .17 1.41.11 2.85-.18 4.3-.3 1.45-.77 2.42-1.43 2.9-.62.42-1.16.81-1.6 1.18-.45.37-.68.62-.68.74-.01.12.09.47.29 1.05.2.57.48 1.22.83 1.93.34.8.74 1.7 1.2 2.7-.33-.96-.59-1.82-.79-2.58-.23-.7-.4-1.34-.51-1.93-.11-.58-.15-.95-.1-1.1.04-.09.24-.31.61-.68.37-.36.77-.81 1.19-1.33.43-.53.8-1.14 1.12-1.85.32-.71.49-1.43.51-2.18-.03-.78-.05-1.5-.05-2.15 0-.65-.14-1.31-.41-1.97-.28-.66-.76-1.32-1.46-2-.69-.67-1.71-1.43-3.04-2.27zm2.17 25.06c-.07.15.05.18.37.1.32-.08.63-.36.95-.84.25-.38.38-.78.42-1.18.02-.22.01-.4 0-.56l-.26 1.01c-.08.24-.17.47-.26.68-.09.21-.22.37-.39.48-.29.13-.47.2-.55.19-.09-.01-.18.03-.28.12z"/><path d="M358.11 120.18l-29.34-2.2 4.25-56.65 29.34 2.2-4.25 56.65zM346.96 79.3c-.31-.02-.88-.07-1.71-.15-.83-.08-1.71-.17-2.64-.29l-2.52-.33c-.75-.1-1.21-.16-1.36-.17-.34-.03-.56.04-.67.21s-.19.41-.24.75c-.03.37.17.81.6 1.3.43.5.71.8.86.9.09.1.28.17.59.21.31.04.64.08.99.12.35.04.68.07.99.1.31.02.5.02.56 0 .26-.1.44-.23.56-.38.12-.15.46-.2 1.01-.16.22.02.38.14.48.39.11.24.18.54.24.9.05.36.08.74.08 1.12 0 .39.02.72.06 1.01.04.28 0 1.01-.12 2.18-.12 1.17-.26 2.44-.43 3.81-.17 1.37-.34 2.75-.52 4.13-.18 1.39-.33 2.4-.44 3.04-.26 1.35-.26 2.33-.01 2.94.25.61.49.97.74 1.08.24.08.56.04.96-.14.4-.17.69-.34.85-.52.13-.11.18-.31.14-.57-.04-.27-.11-.56-.21-.88l-.22-1.37 1.22-16.22.28.02c.12.01.23.01.3 0 .08-.01.18-.01.3 0 .31.05.52.13.64.23s.36.17.73.19c.4.03.62.03.65 0 .03-.03.18-.09.43-.2.31-.01.67-.03 1.08-.06.41-.03.74.09 1 .35.26.24.47.33.61.28.14-.05.47-.09.96-.11.57-.08.96-.35 1.18-.8.22-.45.19-1.23-.1-2.34-.09-.47-.3-.79-.63-.96-.33-.16-.68-.23-1.03-.19-.36.04-.69.13-1 .27-.31.15-.54.23-.7.25-.29.1-.68.14-1.17.1-.49-.04-.9-.07-1.2-.09-.25.01-.49.04-.71.09-.19.02-.42.02-.7-.01-.25.01-.52-.01-.76-.03zm1.27 4.11c-.23 3.06-.4 5.78-.52 8.17-.08 1.08-.14 2.13-.19 3.13-.04 1.01-.09 1.92-.13 2.74-.05.82-.09 1.51-.13 2.07-.04.56-.06.85-.07.88-.02.31-.09.6-.21.87-.08.18-.15.3-.21.36.18.01.35-.1.49-.34.1-.12.2-.37.29-.77.09-.4.13-.97.13-1.71.06-.77.13-1.96.22-3.55.09-1.59.19-3.19.31-4.8.12-1.61.23-3.03.32-4.26.09-1.24.14-1.9.15-1.99.02-.25.17-.36.45-.34.09.01.37.03.83.06.46.03.97.04 1.51.02.55-.02 1.05-.03 1.52-.03s.78-.02.94-.07c.36-.22.65-.43.89-.63.2-.17.34-.33.41-.48-.14.24-.34.41-.6.51-.5.4-1.02.58-1.58.53-.31-.02-.73-.08-1.25-.16-.52-.09-1.04-.15-1.55-.19-.51-.04-.96-.07-1.34-.1-.38-.04-.61-.01-.68.08z"/><path d="M385.09 122.21l-29.34-2.2L360 63.36l29.34 2.2-4.25 56.65zm-4.36-41.4c-.22-.02-.51.09-.89.31-.37.22-.7.54-.98.95-.14.21-.26.83-.37 1.86-.11 1.03-.19 2.2-.24 3.5l-.15 3.86c-.05 1.27-.14 2.2-.28 2.78-.05.68-.11 1.42-.19 2.22-.08.8-.23 1.55-.47 2.25-.24.7-.63 1.3-1.16 1.8-.53.5-1.3.81-2.31.92-1 .08-1.75.12-2.25.11-.5-.01-.87-.07-1.11-.18-.24-.11-.38-.23-.42-.36a.92.92 0 00-.27-.39c-.26-.24-.39-.39-.38-.47.01-.08-.07-.11-.23-.09-.19.08-.41-.03-.65-.33-.24-.3-.51-.6-.79-.9-.23-.3-.34-.54-.34-.72 0-.19 0-.34.01-.47.04-.09.11-.19.21-.31.1-.12.09-.38-.03-.79-.03-.41-.09-.88-.17-1.41-.08-.53-.1-1.13-.05-1.78.03-.34.06-1.01.11-2.02.04-1.01.11-2.06.19-3.16s.16-2.08.22-2.94c.06-.86.13-1.36.2-1.48.07-.15.23-.48.47-.99.24-.51.28-.94.12-1.3-.3-.92-.74-1.36-1.3-1.31-.25.04-.6.18-1.03.41-.44.23-.76.51-.97.84-.18.3-.18.83 0 1.61.17.78.23 1.58.17 2.41-.02.25-.06.77-.12 1.58-.06.8-.13 1.7-.2 2.69s-.15 2.04-.21 3.15c-.07 1.11-.09 2.19-.08 3.23.01 1.04.08 1.95.19 2.72.11.77.25 1.27.42 1.5.31.37.75.8 1.3 1.31s1.21.96 1.97 1.36c.76.4 1.6.67 2.5.82.91.14 1.87.07 2.88-.23 2.01-.63 3.48-1.24 4.43-1.84.95-.6 1.47-1.19 1.58-1.77.04-.59.03-1.16-.06-1.73l-.15-1.08c0-.06.04-.57.11-1.53.07-.96.15-2.01.24-3.15.09-1.14.17-2.23.25-3.27.08-1.04.13-1.68.14-1.92.16-.45.33-1.1.52-1.94.19-.84.35-1.41.5-1.71.06-.34-.02-.85-.23-1.53-.22-.68-.43-1.04-.65-1.09zm-12.19 13.44c-.24 1.16-.27 1.98-.09 2.46.07.32.16.52.28.63.08-1.02.17-1.99.27-2.92.06-.74.13-1.51.22-2.31s.15-1.4.18-1.8c.03-.46.07-1.18.11-2.16.04-.98.07-2.01.09-3.09-.03-1.28-.05-2.61-.07-4.01 0 .06-.04.68-.09 1.86-.06 1.18-.13 2.52-.21 4.04-.08 1.52-.19 2.97-.33 4.36-.14 1.38-.26 2.36-.36 2.94zm14.03-10.55l-.53 7.09c-.07.93-.14 1.83-.2 2.71-.07.88-.14 1.67-.22 2.36-.08.69-.15 1.29-.2 1.78-.05.49-.08.77-.09.83-.11.21-.21.55-.31 1.03-.1.47-.28.99-.56 1.54-.27.55-.64 1.09-1.1 1.62-.46.52-1.06.96-1.8 1.31-.8.38-1.56.65-2.28.83-.71.18-1.34.34-1.88.49-.6.17-1.2.3-1.8.38 1.31-.03 2.53-.21 3.68-.56 1.02-.3 2.04-.75 3.09-1.35 1.04-.6 1.87-1.52 2.49-2.75.35-.94.63-2.37.84-4.3.21-1.93.38-3.83.52-5.72.16-2.25.28-4.68.35-7.29z"/><path d="M411.93 124.22l-29.25-2.2 4.25-56.65 29.25 2.2-4.25 56.65zm-20.94-17.93c.18.08.38.2.6.37.22.17.47.05.75-.36.27-.35.52-.81.73-1.37.21-.56.34-.96.39-1.21.12-.3.14-.57.08-.81-.06-.24.04-.38.29-.42.28-.04.48.08.6.37s.36.45.73.47c.34.03.73-.03 1.18-.17.45-.14 1.16-.17 2.15-.1 1.02.08 1.75.18 2.19.3.44.13.86.1 1.24-.09.38-.16.76-.35 1.14-.57.37-.22.63-.26.78-.13.03.03.12.19.27.46.15.28.28.55.41.82.12.27.24.57.35.89.11.32.17.56.16.71.07.32.18.73.33 1.24.15.51.51.82 1.1.92.61.17 1.02.17 1.24 0 .21-.17.37-.5.47-.99.18-.39.09-.78-.28-1.16-.38-.38-.62-.79-.75-1.2-.08-.19-.24-.67-.48-1.43-.24-.76-.51-1.6-.81-2.51-.3-.91-.59-1.82-.85-2.72-.26-.91-.46-1.6-.61-2.07-.11-.54-.31-1.21-.57-2.02-.27-.81-.53-1.61-.8-2.39s-.51-1.5-.72-2.15c-.22-.65-.35-1.07-.39-1.26-.08-.16-.12-.43-.13-.8 0-.37-.04-.76-.1-1.17-.06-.41-.13-.8-.21-1.18-.08-.38-.2-.67-.38-.87-.17-.17-.38-.18-.6-.05-.23.14-.44.32-.65.53-.2.22-.38.45-.54.7-.16.25-.28.47-.35.65-.06.37-.04.7.07.98.1.29.15.54.13.76-.01.18-.12.4-.33.65-.21.25-.38.54-.53.87a3.4 3.4 0 00-.31.79c-.07.26-.11.5-.12.71-.02.25-.35.89-.98 1.93-.64 1.04-1.2 2.13-1.69 3.28-.45 1.05-.71 1.78-.77 2.18-.06.4-.15.75-.27 1.05-.05.25-.18.62-.39 1.14-.21.51-.47.97-.78 1.39-.15.3-.39.69-.71 1.16-.33.47-.64.99-.93 1.54-.29.55-.48 1.06-.58 1.52-.13.47-.05.74.23.82zm3.72-1.73c-.15.3-.26.56-.34.77-.26.51-.47.85-.64 1.02-.13.08-.25.16-.34.23-.1.07-.17.17-.21.29-.1.09-.15.17-.16.27.43-.31.74-.58.95-.82.51-.61.76-1.2.74-1.76zm8.55-7.05c.24.55.38 1.09.41 1.64.04.55-.02 1.03-.18 1.45-.05.18-.18.28-.4.3-.22.01-.49-.02-.81-.11-.32-.09-.65-.19-1-.31s-.63-.19-.85-.2c-.93-.07-1.56-.19-1.88-.37-.11-.13-.31-.14-.6-.02-.29.12-.73.25-1.33.39-.63.17-1.06.22-1.27.16-.21-.06-.42-.15-.63-.26-.12-.04-.13-.17-.02-.4.11-.22.27-.47.48-.73s.41-.55.62-.86c.21-.31.36-.6.44-.88s.26-.72.54-1.33c.28-.62.57-1.25.89-1.89.31-.64.58-1.21.8-1.71.22-.5.34-.76.34-.79.01-.12-.07-.24-.23-.37-.16-.12-.32-.23-.47-.34-.09-.04-.02-.16.21-.36.23-.2.45-.42.65-.65.24-.29.4-.53.47-.71.08-.18.25-.21.52-.1.12.07.34.49.65 1.26s.66 1.65 1.04 2.64c.37.99.72 1.94 1.02 2.85.32.91.51 1.48.59 1.7zm-8.2 6.71l6.46.25c-.36-.12-.89-.2-1.57-.23-.68-.04-1.39-.05-2.14-.04-.9-.05-1.81-.04-2.75.02zm2.45-6.53l.38-.72c.14-.24.27-.46.38-.67.11-.21.18-.37.22-.5.2-.23.34-.53.39-.9.05-.24.13-.52.25-.82-.17.11-.35.37-.55.77-.2.4-.37.84-.49 1.29-.23.55-.42 1.06-.58 1.55zm2.24 1.84c-.05-.22-.12-.46-.23-.72-.11-.26-.27-.36-.49-.32-.16.05-.35.07-.56.05l-.37-.03 1.65 1.02zm8.92 3.47c.08.13.06-.03-.06-.47-.12-.44-.3-1.05-.54-1.81-.24-.76-.53-1.69-.86-2.79-.34-1.1-.68-2.22-1.03-3.36-.85-2.7-1.87-5.78-3.04-9.22.97 3.24 1.84 6.14 2.61 8.68.38 1.15.73 2.25 1.06 3.3.32 1.05.61 1.98.86 2.79s.45 1.49.59 2.03c.16.52.29.81.41.85z"/><path d="M438.86 126.25l-29.3-2.2 4.25-56.65 29.3 2.2-4.25 56.65zm-16.72-41.21c-.42-.19-.82-.15-1.2.12s-.62.51-.73.71c-.14.27-.14.58 0 .93.14.35.21.59.2.71a128.995 128.995 0 01-.42 4.14c-.12 1.03-.22 2.03-.3 3.01-.07.97-.12 1.63-.15 1.97-.02.31-.05 1.02-.07 2.14-.02 1.12-.03 2.28-.03 3.49s0 2.32.01 3.31c0 1 .01 1.57.03 1.73.07.25.34.48.79.69.45.21.74.31.86.32.06 0 .6.06 1.62.17 1.02.11 2.14.22 3.38.32 1.24.11 2.36.22 3.38.35 1.02.12 1.57.19 1.66.19.22.02.41.08.59.18.18.11.42.17.73.2.25.02.59-.06 1.02-.23.43-.17.71-.51.85-1.03.16-.52.12-1.03-.12-1.55-.24-.51-.56-.79-.96-.82-.4-.03-1.03.03-1.88.18-.85.15-1.45.22-1.79.19l-6.95-.52c-.19-.01-.46-.03-.81-.04-.36-.01-.53-.09-.52-.25.01-.12.01-.6-.01-1.42s-.01-1.41.02-1.75c0-.03.02-.28.06-.74.03-.46.06-1.06.09-1.79.02-.73.07-1.51.13-2.34.06-.83.13-1.67.19-2.5l.53-7.09c.36-.19.52-.68.51-1.45-.03-.77-.26-1.28-.71-1.53zm1.84 1.54c-.27 3.15-.5 5.98-.68 8.48-.08 1.08-.16 2.13-.23 3.13-.08 1-.14 1.91-.18 2.71-.05.81-.06 1.46-.06 1.98.01.51.03.77.06.77l.27.11.82-17.18zm7.43 24.05l-6.62-.59c.2.17.66.28 1.37.34.71.05 1.47.11 2.27.17.93.06 1.92.09 2.98.08zm3.85-2.28c-.12.33-.26.6-.43.81-.14.21-.29.4-.44.57-.15.17-.31.3-.47.38-.22.08-.52.1-.89.07a1 1 0 01-.46-.13c.45.25.84.37 1.18.37.25-.04.53-.18.82-.43.3-.23.53-.78.69-1.64z"/><path transform="rotate(-1.295 243.43 164.304)" class="st2" d="M65.61 147.11h356.4v34.87H65.61z"/><path d="M93.84 196.14l-29.37.66-1.28-56.79 29.37-.66 1.28 56.79zm-7.59-37.63c-.31.07-.64.3-.98.7-.35.4-.69.88-1.04 1.44-.34.57-.68 1.17-1.01 1.81-.33.64-.66 1.17-.99 1.58-.3.47-.63 1.08-1.01 1.84-.37.75-.75 1.5-1.14 2.24-.39.74-.8 1.44-1.23 2.1-.44.66-.85 1.12-1.25 1.38-.43.32-.77.34-1.02.07-.26-.27-.46-.62-.63-1.06-.16-.43-.29-.87-.38-1.32-.09-.45-.15-.72-.18-.81-.13-.18-.37-.57-.72-1.15s-.86-1.16-1.53-1.73c-.32-.33-.75-.84-1.29-1.53-.54-.69-1.09-1.38-1.63-2.08-.54-.7-1.04-1.29-1.5-1.78-.46-.49-.77-.63-.92-.44-.18.16-.24.4-.17.72.07.32.18.66.35 1.02.16.35.33.68.51.99.18.31.27.52.27.64s-.01.36-.03.7c-.02.34-.06.74-.11 1.19-.05.45-.09.89-.11 1.33-.02.43-.08.76-.16.98-.06.22-.09.9-.09 2.05l-.03 3.7c-.02 1.32-.02 2.53-.01 3.65s.02 1.75.02 1.91c-.06.31-.06.54-.01.7.05.15.43.33 1.15.53.34.12.66.07.95-.14.29-.21.52-.48.7-.83.18-.34.34-.67.49-.99.15-.31.23-.56.26-.75 0-.12-.01-.66-.01-1.6-.01-.95-.03-1.95-.07-3.02-.04-1.07-.1-2.04-.18-2.9-.08-.87-.17-1.3-.26-1.3-.28.04-.5.34-.68.9-.17.56-.36 1.05-.57 1.45-.12.25-.15.77-.1 1.56.05.79.08 1.63.1 2.53.02.9.04 1.72.06 2.46.02.74-.04 1.13-.16 1.16-.06.03-.13-.45-.22-1.46-.09-1-.18-2.13-.29-3.36-.11-1.24-.18-2.41-.22-3.53-.04-1.11-.08-1.81-.12-2.09-.13-.46-.21-1.1-.23-1.9-.02-.81 0-1.38.05-1.72.09-.28.27-.46.55-.52.28-.07.56-.04.84.07.12.03.35.26.69.68.33.43.69.92 1.06 1.49.37.57.75 1.16 1.13 1.79.39.63.74 1.14 1.06 1.53.64.89 1.26 1.86 1.86 2.91.6 1.06 1.09 1.73 1.46 2.04.38.21.79.16 1.23-.14s.76-.44.94-.42c.16.03.2.25.13.67-.07.42-.02.63.13.62.15 0 .27-.08.34-.24.07-.16.18-.38.33-.66.09-.13.23-.32.41-.59.18-.27.38-.53.59-.78l.77-1.04-1.08 1.42 1.87-3.76-2.69 4.2 2.54-5.03-.43-.27-.03-1.49c-.01-.25.03-.57.1-.95.07-.39.15-.65.24-.77.12-.1.38-.42.77-.97s.66-.83.82-.83c.18-.1.32-.03.4.2.08.23.22.56.42.99.17.46.32 1.3.45 2.52.14 1.22.16 2.61.07 4.16.02.84.01 1.7-.01 2.58-.03.88-.03 1.73-.01 2.53.02.81.03 1.49.05 2.04.01.56.07.94.17 1.16.04.25.17.41.41.48.23.07.44.11.63.1.19 0 .38-.01.58-.01.2 0 .32.02.35.09.13.18.19.32.2.41 0 .09.08.08.23-.05.06 0 .26-.21.59-.62.06-.22.18-.41.36-.57-.06.03-.11.11-.13.24-.12.22-.19.35-.22.38-.12.07-.28.1-.46.1h-.14l-.01-.33c0-.09.04-.42.12-.98.11-.37.02-.91-.29-1.62-.31-.71-.47-1.35-.49-1.94-.01-.31-.01-1.2-.01-2.67s-.02-3.06-.04-4.76c-.02-1.7-.03-3.29-.01-4.77.01-1.47.02-2.35.01-2.63-.01-.47.17-.86.53-1.17.15-.16.33-.29.55-.38.21-.16.24-.28.08-.37-.16-.09-.38-.13-.68-.12-.29.01-.63.03-1 .07-.41.02-.72.07-.96.14zm-8.94 7.59c-.71-1.04-1.36-2.02-1.97-2.93-.51-.76-.98-1.49-1.4-2.18-.42-.69-.69-1.14-.82-1.35-.07-.18.07.09.41.83.34.74.77 1.56 1.29 2.48.52.92 1.02 1.74 1.5 2.45.48.72.81.96.99.7zm.08 1.68c.09.06.08.01-.03-.16s-.22-.34-.31-.53c-.16-.21-.35-.49-.58-.82.01.25.06.48.16.69.13.55.39.82.76.82zm11.74-9.34c-.01 3.5-.02 6.67-.02 9.49.03 1.18.05 2.35.08 3.53.03 1.18.07 2.24.12 3.18.05.95.1 1.73.15 2.37.04.63.12 1.03.21 1.18.07.15.11-.05.13-.61.02-.56.02-1.29 0-2.19-.02-.9-.06-1.95-.12-3.16-.06-1.21-.1-2.43-.13-3.67-.13-2.93-.27-6.31-.42-10.12z"/><path d="M121.12 195.52l-29.33.66-1.28-56.79 29.33-.66 1.28 56.79zm-22.58-15.81c.19.06.4.16.64.31s.47 0 .71-.43c.24-.38.44-.85.6-1.43.16-.58.25-.99.27-1.24.09-.31.09-.58.01-.81-.08-.23 0-.38.25-.45.28-.07.49.04.63.31.15.28.4.41.78.4.34-.01.73-.1 1.16-.28.43-.18 1.14-.28 2.13-.3 1.02-.02 1.76.01 2.21.09.45.08.86.01 1.23-.21.37-.19.73-.42 1.08-.67.35-.26.6-.32.76-.2.03.03.14.18.31.43.18.26.34.52.48.78.15.26.29.54.44.85.15.31.22.54.23.69.1.31.25.71.45 1.2s.59.76 1.18.81c.62.11 1.03.07 1.23-.12.2-.19.32-.53.37-1.03.15-.41.01-.78-.4-1.13-.41-.35-.7-.72-.86-1.12-.1-.18-.3-.64-.61-1.38-.31-.74-.66-1.54-1.05-2.42-.39-.87-.76-1.75-1.11-2.62-.34-.88-.62-1.54-.81-2-.17-.52-.42-1.18-.77-1.96-.34-.78-.69-1.55-1.03-2.3-.34-.75-.65-1.44-.93-2.07-.28-.63-.45-1.04-.52-1.22-.1-.15-.16-.41-.2-.79-.04-.37-.11-.76-.21-1.16-.1-.4-.21-.79-.33-1.16-.12-.37-.27-.64-.46-.83-.19-.15-.39-.15-.6.01-.21.16-.41.36-.59.59-.18.24-.34.49-.47.75-.13.27-.23.49-.29.68-.02.37.03.7.16.97.13.28.2.52.2.74 0 .19-.08.41-.26.68-.18.27-.33.57-.44.92-.12.28-.2.56-.24.82-.04.27-.06.51-.05.72.01.25-.26.92-.79 2.02s-.99 2.24-1.36 3.43c-.35 1.09-.53 1.84-.55 2.24-.02.4-.08.76-.16 1.07-.03.25-.12.64-.28 1.17-.16.53-.37 1.02-.64 1.46-.12.31-.32.72-.6 1.22-.28.5-.54 1.04-.78 1.62-.24.58-.38 1.1-.43 1.57-.09.47.03.73.31.78zm3.53-2.08c-.12.31-.2.58-.26.8-.21.53-.38.89-.53 1.08-.12.1-.23.18-.32.26a.57.57 0 00-.18.31c-.09.1-.14.19-.13.28.4-.35.68-.65.86-.9.45-.66.64-1.27.56-1.83zm7.82-7.84c.29.52.48 1.05.57 1.59.09.54.08 1.03-.04 1.47-.03.19-.15.3-.36.33s-.49.03-.81-.03c-.33-.05-.67-.12-1.03-.21-.36-.08-.65-.13-.86-.12-.93.02-1.57-.04-1.91-.19-.13-.12-.33-.11-.6.04-.28.15-.71.32-1.29.52-.62.23-1.03.33-1.25.28-.22-.04-.44-.11-.65-.19-.13-.03-.14-.16-.06-.39.09-.23.22-.49.4-.78.18-.28.36-.59.54-.92s.3-.63.35-.91c.06-.28.19-.74.41-1.38.22-.64.45-1.3.7-1.97.25-.67.46-1.27.63-1.78.17-.52.26-.79.26-.82 0-.12-.09-.24-.26-.34-.17-.1-.34-.2-.49-.29-.09-.03-.04-.15.18-.38.21-.22.41-.46.59-.71.21-.31.34-.57.4-.75.06-.19.23-.24.51-.15.13.06.38.46.77 1.19.39.74.82 1.58 1.29 2.53.47.95.9 1.86 1.29 2.74.38.86.62 1.4.72 1.62zm-7.5 7.47l6.46-.38c-.37-.09-.9-.11-1.58-.08s-1.39.09-2.13.16c-.91.05-1.83.15-2.75.3zm1.8-6.74l.31-.75c.12-.25.22-.48.31-.71.09-.22.15-.39.17-.51.18-.25.28-.56.3-.94.03-.25.08-.53.17-.84-.15.13-.31.4-.47.82-.16.42-.28.87-.37 1.33-.17.57-.31 1.1-.42 1.6zm2.41 1.62a4.87 4.87 0 00-.29-.69c-.13-.24-.3-.33-.52-.27-.15.07-.34.1-.56.11l-.37.01 1.74.84zm9.22 2.58c.1.12.06-.03-.1-.46-.17-.43-.4-1.01-.71-1.75l-1.13-2.69-1.35-3.25c-1.11-2.61-2.42-5.57-3.92-8.89 1.28 3.13 2.43 5.93 3.44 8.39.49 1.1.95 2.16 1.37 3.18.43 1.01.8 1.91 1.13 2.69.33.78.59 1.44.79 1.96.19.52.35.79.48.82z"/><path d="M148.87 194.9l-29.33.66-1.28-56.79 29.33-.66 1.28 56.79zm-15.37-29.97c-.22.07-.37.1-.46.1-.09 0-.16-.15-.2-.46-.13-.21-.2-.4-.2-.55 0-.15-.06-.39-.16-.69-.1-.15-.3-.41-.6-.78-.3-.37-.64-.74-1-1.12-.37-.38-.7-.75-1-1.12-.3-.37-.5-.62-.6-.78-.13-.15-.26-.42-.39-.81-.13-.38-.27-.81-.42-1.27-.15-.46-.33-.88-.54-1.24-.21-.37-.39-.61-.55-.73-.35-.27-.78-.37-1.29-.3s-.82.38-.93.9c-.03.28.12.73.43 1.36.31.63.7 1.29 1.18 2 .48.7.97 1.41 1.47 2.13s.92 1.27 1.27 1.67c.7.88 1.35 1.69 1.94 2.42.59.73.9 1.14.93 1.23 0 .09.02.5.05 1.21.03.71.08 1.5.15 2.37.07.87.11 1.7.13 2.51.02.81.03 1.3.03 1.49 0 .22-.02.55-.07 1-.05.45-.07.88-.04 1.28.02.4.16.76.4 1.08.24.32.64.47 1.2.46.56-.01.9-.18 1.03-.51s.19-.69.16-1.1c-.03-.4-.1-.83-.21-1.27-.12-.45-.2-.78-.23-.99-.1-.18-.17-.59-.24-1.23-.06-.63-.11-1.33-.16-2.09-.05-.76-.06-1.48-.05-2.16.01-.68.07-1.19.15-1.54.12-.28.41-.79.87-1.53s1-1.55 1.62-2.43c.62-.88 1.2-1.7 1.76-2.46s.94-1.26 1.15-1.51c.39-.5.86-1.09 1.4-1.75.54-.66.81-1.16.8-1.51-.01-.34-.19-.65-.56-.94-.36-.29-.61-.52-.74-.7-.19-.15-.46-.1-.81.16-.35.26-.69.65-1.02 1.19-.15.25-.38.65-.69 1.2-.31.55-.63 1.11-.96 1.7-.33.58-.62 1.11-.87 1.6s-.42.85-.51 1.1c-.12.13-.32.39-.59.78-.27.39-.55.77-.83 1.13-.29.36-.55.7-.79 1.02-.25.32-.38.48-.41.48zm-3.68-8.38l3.27 4.86c-.07-.12-.25-.44-.56-.94-.31-.5-.7-1.05-1.18-1.62-.47-.65-.98-1.41-1.53-2.3zm12.82 1.24c-1.14 1.7-2.19 3.26-3.15 4.68-.81 1.26-1.54 2.36-2.2 3.3-.66.94-.99 1.48-.99 1.6 0 .09.01.64.04 1.63.02.99.08 2.08.17 3.25.03 1.42.11 2.99.25 4.69-.15.22-.25.41-.31.57-.18.35-.33.57-.45.66l-.5.52c.21-.1.44-.27.69-.53.18-.22.34-.49.47-.8s.19-.79.18-1.45c-.01-.5 0-1.23.02-2.21s.03-1.95 0-2.91l-.08-3.63c1.02-1.57 1.98-3.05 2.88-4.44.72-1.16 1.4-2.26 2.04-3.3.62-1.01.94-1.56.94-1.63zm62.23 35.84l-29.37.66-1.28-56.79 29.37-.66 1.28 56.79zm-14.84-27.14c.01.53 0 1.22-.05 2.07-.04.85-.1 1.7-.17 2.54-.07.84-.12 1.6-.13 2.28-.02.68-.02 1.12-.02 1.3.04.37.13.77.28 1.2.15.43.61.62 1.39.57.37-.01.61-.19.71-.55.1-.36.11-.77.04-1.23-.07-.46-.17-.92-.29-1.36-.12-.45-.18-.75-.18-.9 0-.19-.02-.79-.04-1.81s-.05-2.11-.07-3.28c-.03-1.16-.04-2.25-.03-3.25.01-1.01.01-1.6.01-1.79 0-.16 0-.55.02-1.19.02-.64.03-1.33.05-2.07.01-.74.02-1.44.02-2.09 0-.65 0-1.08-.01-1.3 0-.22-.03-.45-.09-.7-.05-.25-.11-.43-.17-.55-.1-.25-.18-.43-.25-.55.06-.09.14-.17.23-.24a.58.58 0 00.28-.15c.06-.06.12-.1.18-.1.15-.03.37.06.63.29.27.23.32.14.16-.26-.19-.28-.49-.58-.9-.91-.25-.18-.49-.33-.71-.45l.57.41.01.28c0 .19-.04.39-.13.61-.15.19-.3.3-.46.34-.15.03-.35.05-.6.06-.16 0-.41.19-.75.55-.35.36-.69.79-1.02 1.28-.33.49-.66.96-.99 1.42-.33.46-.51.76-.54.92-.15.19-.32.43-.5.73s-.37.57-.59.83c-.18.35-.43.71-.77 1.09.16.06.34.09.56.08.34.12.64.11.88-.02.21-.1.46-.39.72-.88.27-.49.46-.82.58-1.01.33-.47.73-.65 1.2-.54.06 0 .13.34.21 1.02.08.68.17 1.48.29 2.39.11.91.21 1.82.29 2.74.09.89.13 1.62.15 2.18zm3.48 7.96c-.04-1.98-.08-3.69-.09-5.11-.02-1.42-.04-2.95-.08-4.58s-.07-3.18-.11-4.67c-.03-1.49-.07-2.72-.11-3.69a263 263 0 01-.06-1.51.984.984 0 01-.15-.55c0-.09-.02-.15-.05-.18l.65 20.29z"/><path d="M232.75 193.01l-29.51.67-1.28-56.79 29.51-.67 1.28 56.79zm-17.72-29.09c-.4-.08-1.05-.12-1.93-.1-.88.02-1.45.08-1.69.18-.28.1-.4.21-.36.33.03.12.1.25.19.37.13.09.33.23.61.43.28.2.38.37.29.53 0 .19-.1.34-.31.47l-.28.15c0 .16.07.29.2.41.04.22.18.37.43.45.19.12.55.16 1.1.11.54-.04 1-.07 1.37-.08l6.13-.14c.22 0 .4.05.54.15.14.11.4.09.77-.04.4-.04.69-.21.87-.51.18-.3.28-.62.3-.96.09-.34.04-.77-.15-1.3-.18-.52-.51-.86-.98-1-.44-.15-.87-.11-1.3.1-.43.21-.71.32-.83.32l-2.23.05c-.62.01-1.19.05-1.72.11-.52.08-.86.06-1.02-.03z"/><path d="M260.64 192.38l-29.37.66-1.28-56.79 29.37-.66 1.28 56.79zm-14.84-27.15c.01.53 0 1.22-.05 2.07-.04.85-.1 1.7-.17 2.54-.07.84-.12 1.6-.14 2.28-.02.68-.02 1.12-.02 1.3.04.37.13.77.28 1.2.15.43.61.62 1.39.57.37-.01.61-.19.71-.55.1-.36.11-.77.04-1.23-.07-.46-.17-.92-.29-1.36-.12-.45-.18-.75-.18-.9 0-.19-.02-.79-.04-1.81s-.05-2.11-.07-3.28c-.03-1.16-.04-2.25-.03-3.25.01-1.01.01-1.6.01-1.79 0-.16 0-.55.02-1.19.02-.64.03-1.33.05-2.07.01-.74.02-1.44.02-2.09v-1.3c-.01-.22-.03-.45-.09-.7-.05-.25-.11-.43-.18-.55-.1-.25-.18-.43-.24-.55.06-.09.14-.17.23-.24a.58.58 0 00.28-.15c.06-.06.12-.1.18-.1.15-.03.36.06.63.29.27.23.32.14.16-.26-.19-.27-.49-.58-.9-.91-.25-.18-.49-.33-.71-.45l.57.41.01.28c0 .19-.04.39-.13.61-.15.19-.3.3-.46.34-.15.03-.36.05-.6.06-.16 0-.41.19-.75.55-.35.37-.69.79-1.02 1.28-.33.49-.66.96-.99 1.42-.33.46-.51.76-.54.92-.15.19-.32.43-.5.73s-.37.57-.59.83c-.18.35-.43.71-.77 1.09.16.06.34.08.56.08.34.12.64.11.88-.02.21-.1.46-.39.72-.88.27-.49.46-.82.58-1.01.33-.47.73-.65 1.2-.54.06 0 .13.34.21 1.02.08.68.17 1.48.29 2.39.11.91.21 1.82.29 2.74.09.89.13 1.62.15 2.18zm3.48 7.97c-.04-1.98-.08-3.69-.09-5.11-.02-1.43-.04-2.95-.08-4.58s-.07-3.18-.11-4.67c-.03-1.49-.07-2.72-.11-3.69a263 263 0 01-.06-1.51.984.984 0 01-.15-.55c0-.09-.02-.15-.05-.18l.65 20.29z"/><path d="M288.43 191.75l-29.47.66-1.28-56.79 29.47-.67 1.28 56.8zm-10.23-38.97c-.01-.46-.19-.95-.54-1.45-.35-.5-.73-.75-1.13-.74-.43.01-.74.1-.92.28-.18.17-.51.31-.97.42-.22.04-.56.08-1.02.14-.46.06-.97.1-1.51.13s-1.05.05-1.51.08-.8.04-1.02.05c-.37.01-.82.01-1.35.01h-1.16c-.25.01-.38.06-.39.17-.01.11-.01.43 0 .95l.06 1.72c.03.84.06 1.72.08 2.65.02.93.06 1.77.13 2.53.06.76.1 1.21.1 1.37.01.31-.04.58-.14.82-.1.23-.11.44-.01.63.13.28.62.33 1.47.15.85-.17 1.57-.31 2.15-.42.31-.07.83-.11 1.55-.13.73-.02 1.5.11 2.31.39s1.5.74 2.08 1.39c.57.65.87 1.63.9 2.93.03 1.33-.25 2.37-.84 3.11-.59.74-1.24 1.3-1.96 1.67-.72.37-1.42.6-2.1.68-.68.08-1.13.12-1.35.12-.16 0-.44-.06-.86-.19s-.84-.28-1.24-.44c-.41-.16-.78-.31-1.13-.46-.34-.15-.53-.28-.57-.41-.13-.28-.28-.58-.44-.92-.16-.34-.39-.67-.67-1.01-.22-.27-.48-.46-.76-.56-.28-.1-.51-.07-.7.08-.18.13-.24.34-.17.63.07.29.17.61.3.95.13.18.34.51.63.99s.7.99 1.24 1.55 1.22 1.05 2.03 1.47c.82.42 1.83.61 3.04.58 1.21-.03 2.3-.32 3.26-.89a9.65 9.65 0 002.49-2.08c.69-.82 1.22-1.68 1.57-2.57.35-.89.52-1.74.5-2.55-.03-1.36-.44-2.69-1.23-3.99-.79-1.3-1.75-2.23-2.88-2.79-1.19-.56-2.13-.87-2.81-.94-.68-.06-1.32-.01-1.9.16-.28.13-.55.29-.82.48-.28.19-.5.37-.69.53-.18.16-.36.27-.53.34-.17.07-.3.02-.4-.13-.13-.18-.21-.49-.23-.92-.03-.43-.04-.91-.06-1.42-.01-.51-.02-1-.01-1.46v-1.02c-.01-.43-.05-.65-.13-.65s-.04-.05.11-.14c.06-.09.36-.16.9-.18.54-.03 1.13-.05 1.77-.06.63-.01 1.25-.02 1.86-.02.6 0 1.03 0 1.28-.01.46-.01 1.12.04 1.96.14.84.11 1.4.09 1.67-.04.15-.03.33-.33.54-.9l.17-.8zm-7.52 16.68c.12-.03.14-.05.05-.05-.09 0-.24-.02-.44-.06-.2-.04-.43-.1-.68-.17-.25-.07-.45-.17-.61-.29-.35-.43-.82-.83-1.4-1.22s-.81-.51-.68-.36c.06.03.2.18.4.45.21.28.49.56.83.86.35.3.74.54 1.18.72.43.18.88.22 1.35.12zm-1.8-5.26c.06 0 .24-.04.53-.13.29-.08.6-.16.93-.23.32-.07.58-.15.76-.25.18-.1.26-.16.23-.19-.06 0-.23.04-.49.13-.26.08-.56.18-.9.28-.34.1-.62.19-.85.27-.23.08-.3.12-.21.12zm.88-8.39a6 6 0 00-.07.98c-.06.25-.08.49-.08.72.01.23.04.35.1.35.06.06.27.04.63-.06.35-.1.77-.16 1.25-.19s1.02-.05 1.63-.06c.6-.01 1.14.08 1.61.29.5.21 1.04.5 1.62.87.58.38 1.14.81 1.68 1.31s1 1.02 1.38 1.55c.38.53.67 1.03.87 1.49l.56 2.03a8.406 8.406 0 00-.76-2.87c-.33-.74-.82-1.52-1.49-2.34-.67-.82-1.62-1.51-2.84-2.07-1.19-.56-2.18-.91-2.95-1.05-.78-.14-1.39-.21-1.84-.21-.45-.01-.77-.03-.95-.07-.19-.05-.31-.27-.35-.67zm11.3 10.2c.11.71.09 1.36-.05 1.95-.11.56-.3 1.15-.57 1.76-.26.61-.61 1.18-1.03 1.72-.39.54-.88 1.01-1.45 1.43-.58.42-1.1.8-1.56 1.15-.61.39-1.19.71-1.75.97 1.08-.24 2.12-.68 3.13-1.33.73-.64 1.45-1.54 2.17-2.72.73-1.17 1.1-2.82 1.11-4.93z"/><path d="M316.41 191.12l-29.37.66-1.28-56.79 29.37-.66 1.28 56.79zm-12.79-20.59c-.01-.4-.17-.89-.47-1.45-.31-.57-.69-.85-1.16-.83-.43.01-.74.02-.93.02-.19 0-.32.13-.41.38-.09.31-.1.62-.05.93.05.31.07.57.04.79-.06.25-.18.43-.36.54-.18.11-.27.29-.27.54.01.28.06.5.15.65.1.15.15.35.15.6 0 .16-.07.31-.22.47-.15.16-.24.32-.27.47-.12.19-.2.41-.24.66-.04.25-.01.42.08.51.13.12.25.27.38.43.13.17.33.2.61.1.25-.04.58-.24 1.01-.6.43-.37.79-.71 1.09-1.02.06-.16.14-.41.24-.75.1-.34.21-.7.32-1.08l.31-1.36zm-3.3-2.11c-.06 0-.15.07-.27.19-.21.22-.32.43-.31.61l.02.79c0 .16.02.25.05.28.03-.25.11-.5.26-.75.12-.22.18-.42.2-.61 0-.19.02-.36.05-.51zm4.31 1.2c.01.5-.03.96-.11 1.4-.02.37-.07.78-.16 1.24-.08.45-.2.8-.35 1.05-.24.56-.46.94-.67 1.13l-.27.28c.45-.44.83-.96 1.13-1.56.24-.5.42-1.05.54-1.64.12-.59.09-1.22-.11-1.9z"/><path d="M344.34 190.49l-29.51.67-1.28-56.79 29.51-.67 1.28 56.79zm-20.76-31.9c.28-.16.46-.4.54-.71.09-.31.17-.62.26-.94-.01-.28-.15-.37-.42-.27-.09.03-.2.13-.32.29 0-.06.01-.16.04-.28 0-.03.06-.22.17-.56.09-.22.53-.66 1.32-1.33s1.91-1.05 3.37-1.15c1.39-.09 2.42.18 3.07.81.65.64 1.2 1.49 1.66 2.57.26.55.17 1.11-.26 1.68-.44.57-1.01 1.1-1.71 1.6s-1.43.94-2.18 1.33c-.75.39-1.31.7-1.67.92-.8.48-1.54 1.06-2.22 1.72-.68.67-1.34 1.47-1.97 2.42-.3.44-.51 1.02-.64 1.73-.12.72-.18 1.39-.16 2.03.01.63.05 1.21.11 1.72s.15.76.27.76c.34.15.92.27 1.73.38.22 0 .8.02 1.75.08s1.97.1 3.07.14c1.1.04 2.12.06 3.05.07.93.01 1.47.01 1.63.01.28-.01.57.06.87.21.3.15.59.22.87.21.25-.01.63-.19 1.15-.56.52-.37.87-.71 1.05-1.02.09-.28.01-.7-.24-1.25-.24-.55-.63-.93-1.16-1.14-.5-.17-1.06-.09-1.67.25-.61.34-1.06.59-1.33.75-.19.04-.53.06-1.02.07-.5.01-1.06 0-1.7-.03-.64-.03-1.23-.07-1.79-.1s-.9-.05-1.02-.05c-.37.01-.68-.02-.93-.1-.25-.07-.53-.06-.84.04-.22.04-.47.1-.76.2-.29.1-.56.12-.81.06-.28-.09-.42-.22-.4-.41.01-.19.07-.51.19-.98.03-.22.2-.58.53-1.08s.72-1.05 1.17-1.63c.45-.58.88-1.12 1.29-1.61.41-.49.76-.85 1.07-1.07.21-.22.63-.53 1.26-.94.63-.4 1.28-.82 1.97-1.25.69-.43 1.33-.84 1.92-1.23.6-.39.98-.72 1.16-1 .12-.25.23-.64.35-1.17.11-.53.17-1.1.17-1.7 0-.6-.04-1.19-.11-1.76-.08-.57-.16-.98-.26-1.23-.13-.31-.43-.64-.91-1-.47-.36-.95-.74-1.42-1.13-.63-.39-1.29-.81-1.98-1.26l.2.74c-.47-.08-.9-.18-1.31-.3-.41-.11-.79-.19-1.14-.23-.36-.04-.6-.06-.72-.05-.16 0-.43.03-.81.09-.39.06-.83.17-1.34.36-.51.18-1.03.46-1.56.83-.54.37-1.01.85-1.43 1.45-.45.69-.73 1.33-.84 1.93-.11.59-.16 1.13-.15 1.63.01.5.07.89.19 1.18.11.29.24.47.36.53.33.08.81-.01 1.39-.27zm3.87-3.71c-.34.01-.63.05-.88.11-.65.14-1.05.4-1.19.77-.11.44-.23.91-.34 1.4-.06.22-.08.45-.08.7l.09-.05-.09.05c0 .09-.01.14-.04.14s-.05.02-.05.05c-.09.22-.21.45-.36.71s-.25.41-.31.47c-.12 0-.26.01-.39.03a.65.65 0 00-.39.22c-.15.13-.27.25-.36.38l-.18.38c.34-.13.61-.28.83-.44.22-.1.41-.22.6-.36.18-.14.33-.33.45-.54.24-.35.38-.81.41-1.38.03-.57.28-1.15.73-1.71.46-.41.82-.68 1.1-.82.17-.07.32-.11.45-.11zm9.31 2.67c-.11.75-.26 1.42-.47 2.01-.17.56-.35 1.1-.52 1.62-.17.52-.4.84-.68.97-.25.16-.59.39-1.03.67-.44.29-.89.56-1.35.82-.46.26-.89.49-1.29.7-.4.21-.67.38-.83.51-.18.07-.51.25-.96.56-.46.31-.95.66-1.46 1.06-.52.4-1 .79-1.44 1.17-.44.38-.72.71-.84 1-.18.41-.2.61-.08.61.03 0 .06-.02.09-.05.12-.1.28-.16.46-.2.34-.13.65-.2.93-.21.13.06.3.09.51.08.22 0 .42-.01.6-.01l.6-.01-2.29-.41c.12-.19.29-.39.5-.62.24-.25.59-.56 1.05-.91.18-.13.53-.38 1.05-.74.52-.37 1.09-.76 1.72-1.18.63-.42 1.22-.81 1.76-1.18.55-.37.93-.6 1.15-.7.46-.29.88-.64 1.26-1.05.38-.41.66-.79.83-1.13.15-.19.24-.47.26-.84.02-.37.09-.75.21-1.12.1-.45.18-.92.26-1.42zm1.3 16.15c-.12 0-.23.04-.32.1l-.6.34c-.34.19-.57.29-.69.29-.09.09-.2.1-.32.01.37-.01.71-.03 1.02-.07.58-.1.88-.33.91-.67z"/><path d="M372.64 189.85l-29.42.66-1.28-56.79 29.42-.66 1.28 56.79zm-13.46-40.01c-.15.03-.2.14-.13.31.07.17.01.26-.18.26-.06 0-.32.01-.77.02s-.96.04-1.53.08c-.57.04-1.13.11-1.67.2-.54.09-.98.23-1.32.42-.34.16-.83.42-1.47.78-.64.36-1.27 1.02-1.88 2-.61.98-1.09 2.33-1.42 4.08-.33 1.74-.3 4.05.11 6.93.23 1.92.71 3.42 1.43 4.52.72 1.1 1.54 1.9 2.45 2.41.91.51 1.87.79 2.88.86 1.01.07 1.95.02 2.83-.16.88-.17 1.59-.37 2.13-.58.54-.21.84-.35.9-.41l.08-.42c.63-.79 1.17-1.62 1.62-2.5.45-.78.84-1.65 1.17-2.58.34-.94.51-1.89.52-2.85.01-.99-.12-2.04-.37-3.15-.26-1.11-.56-2.2-.91-3.26-.35-1.06-.73-1.99-1.13-2.79-.41-.8-.72-1.39-.95-1.79-.45-.76-.91-1.38-1.39-1.85-.48-.49-.81-.66-1-.53zm3.9 11.81c.1 1.49-.01 2.74-.31 3.77-.3 1.03-.7 1.89-1.2 2.58-.5.69-1.04 1.2-1.64 1.53-.6.32-1.17.6-1.73.83-.55.23-1.09.32-1.62.27-.53-.05-.98-.18-1.36-.39-.38-.21-.68-.41-.92-.61s-.36-.32-.36-.39c-.1-.21-.38-.39-.85-.54-.13-.09-.33-.29-.62-.59s-.61-.75-.98-1.35c-.37-.6-.71-1.34-1.03-2.23-.32-.89-.53-1.91-.65-3.05-.06-1.18.12-2.26.53-3.24.41-.99.9-1.81 1.48-2.47.57-.66 1.13-1.19 1.66-1.57.53-.38.88-.64 1.03-.77.3-.22.69-.43 1.15-.63.46-.2 1.1-.16 1.91.1.5.11 1.05.33 1.64.66.6.33 1.17.83 1.73 1.5s1.04 1.53 1.45 2.59c.43 1.06.65 2.39.69 4zm-11.37-.95c-.22 1.37-.14 2.55.22 3.55s.85 1.83 1.45 2.5c.64.73 1.43 1.36 2.37 1.9-.62-.2-1.19-.61-1.7-1.22-.44-.45-.85-1.13-1.23-2.04-.38-.91-.6-2.07-.66-3.5-.1-1.45-.01-2.67.27-3.63.27-.97.6-1.74.97-2.32.37-.58.71-1.02 1.02-1.3.3-.29.46-.44.45-.48-.03-.03-.18.02-.44.15s-.54.43-.84.9c-.3.47-.62 1.16-.98 2.07-.35.91-.65 2.05-.9 3.42zm6.05-12.13c1.85.83 3.43 1.83 4.76 3.01 1.11 1.09 2.09 2.45 2.95 4.07.86 1.62 1.14 3.52.85 5.7-.29 2.15-.55 3.81-.77 4.99-.22 1.18-.43 2.04-.62 2.57-.19.53-.38.88-.58 1.06-.2.18-.39.37-.57.6-.27.28-.65.6-1.14.93-.49.34-1.01.68-1.56 1.03-.58.39-1.24.82-1.97 1.3 1.33-.15 2.53-.71 3.59-1.66.91-.79 1.78-2.07 2.61-3.82.83-1.76 1.31-4.25 1.46-7.47.08-3.23-.35-5.69-1.28-7.39-.94-1.7-1.96-2.92-3.06-3.67-1.37-.85-2.93-1.26-4.67-1.25z"/><path d="M400.57 189.22l-29.51.67-1.28-56.79 29.51-.67 1.28 56.79zm-20.76-31.9c.28-.16.46-.4.54-.71.09-.31.17-.62.26-.94-.01-.28-.15-.37-.42-.27-.09.03-.2.13-.32.29 0-.06.01-.16.04-.28 0-.03.06-.22.17-.56.09-.22.53-.66 1.32-1.33s1.91-1.05 3.37-1.15c1.39-.09 2.41.18 3.06.81.65.64 1.2 1.49 1.66 2.57.26.55.17 1.11-.26 1.68-.44.57-1.01 1.1-1.71 1.6s-1.43.94-2.18 1.33c-.75.39-1.31.7-1.68.92-.8.48-1.54 1.06-2.22 1.72-.68.67-1.34 1.47-1.97 2.42-.3.44-.51 1.02-.64 1.73-.12.72-.18 1.39-.16 2.03.01.63.05 1.21.11 1.72s.15.76.27.76c.34.15.92.27 1.73.38.22 0 .8.02 1.75.08s1.97.1 3.07.14c1.1.04 2.12.06 3.05.07.93.01 1.47.01 1.63.01.28-.01.57.06.87.21.3.15.59.22.87.21.25-.01.63-.19 1.15-.56.52-.37.87-.71 1.05-1.02.09-.28.01-.7-.24-1.25-.24-.55-.63-.93-1.16-1.14-.5-.17-1.06-.09-1.67.25-.61.34-1.06.59-1.33.75-.19.04-.53.06-1.02.07-.5.01-1.06 0-1.7-.03-.64-.03-1.23-.07-1.79-.1s-.9-.05-1.02-.05c-.37.01-.68-.02-.93-.1-.25-.07-.53-.06-.84.04-.22.04-.47.1-.76.2-.29.1-.56.12-.81.06-.28-.09-.42-.22-.4-.41.01-.19.07-.51.19-.98.03-.22.2-.58.53-1.08.33-.5.72-1.05 1.17-1.63.45-.58.88-1.12 1.29-1.61.41-.49.76-.85 1.07-1.07.21-.22.63-.53 1.26-.94.63-.4 1.28-.82 1.97-1.25.69-.43 1.33-.84 1.92-1.23.6-.39.98-.72 1.16-1 .12-.25.23-.64.35-1.17.11-.53.17-1.1.17-1.7 0-.6-.04-1.19-.11-1.77-.08-.57-.16-.98-.26-1.23-.13-.31-.43-.64-.91-1-.47-.36-.95-.74-1.42-1.13-.63-.39-1.29-.81-1.98-1.26l.2.74c-.47-.08-.9-.18-1.31-.3-.41-.11-.79-.19-1.14-.23-.36-.04-.6-.06-.72-.05-.16 0-.43.03-.81.09-.39.06-.83.17-1.34.36-.51.18-1.03.46-1.56.83-.54.37-1.01.85-1.43 1.45-.45.69-.73 1.33-.84 1.93-.11.59-.16 1.13-.15 1.63.01.5.07.89.19 1.18.11.29.24.47.36.53.35.09.83 0 1.41-.26zm3.87-3.71c-.34.01-.63.05-.88.11-.65.14-1.05.4-1.19.77-.11.44-.23.91-.34 1.4-.06.22-.08.45-.08.7l.09-.05-.09.05c0 .09-.01.14-.04.14s-.05.02-.05.05c-.09.22-.21.45-.36.71s-.25.41-.31.47c-.12 0-.26.01-.39.03a.65.65 0 00-.39.22c-.15.13-.27.25-.36.38l-.18.38c.34-.13.61-.28.83-.44.22-.1.41-.22.6-.36.18-.14.33-.33.45-.54.24-.35.38-.81.41-1.38.03-.57.27-1.15.73-1.71.46-.41.82-.68 1.1-.82.17-.07.33-.11.45-.11zm9.32 2.67c-.11.75-.26 1.42-.47 2.01-.17.56-.35 1.1-.52 1.62-.17.52-.4.84-.68.97-.25.16-.59.39-1.03.67a30.272 30.272 0 01-2.64 1.52c-.4.21-.67.38-.83.51-.18.07-.51.25-.96.56-.46.31-.94.66-1.46 1.06s-1 .79-1.44 1.17c-.44.38-.72.71-.84 1-.18.41-.2.61-.08.61.03 0 .06-.02.09-.05.12-.1.28-.16.46-.2.34-.13.65-.2.93-.21.13.06.3.09.51.08.22 0 .42-.01.6-.01l.6-.01-2.29-.41c.12-.19.29-.39.5-.62.24-.25.59-.56 1.05-.91.18-.13.53-.38 1.05-.74.52-.37 1.09-.76 1.72-1.18.63-.42 1.22-.81 1.76-1.18.55-.37.93-.6 1.15-.7.46-.29.88-.64 1.26-1.05.38-.41.66-.79.83-1.13.15-.19.24-.47.26-.84.02-.37.09-.75.21-1.12.09-.45.17-.92.26-1.42zm1.29 16.15c-.12 0-.23.04-.32.1l-.6.34c-.34.19-.57.29-.69.29-.09.09-.2.1-.33.01.37-.01.71-.03 1.02-.07.59-.1.9-.32.92-.67z"/><path d="M428.46 188.59l-29.37.66-1.28-56.79 29.37-.66 1.28 56.79zm-14.84-27.15c.01.53 0 1.22-.05 2.07-.04.85-.1 1.7-.17 2.54-.07.84-.12 1.6-.13 2.28-.02.68-.02 1.12-.02 1.3.04.37.13.77.28 1.2.15.43.61.62 1.39.57.37-.01.61-.19.71-.55.1-.36.11-.77.04-1.23-.07-.46-.17-.92-.29-1.36-.12-.45-.18-.75-.18-.9 0-.19-.02-.79-.04-1.81s-.05-2.11-.07-3.28c-.03-1.16-.03-2.25-.03-3.25.01-1.01.01-1.6.01-1.79 0-.16 0-.55.02-1.19.02-.64.03-1.33.05-2.07.01-.74.02-1.44.02-2.09 0-.65 0-1.08-.01-1.3 0-.22-.03-.45-.08-.7-.05-.25-.11-.43-.18-.55-.1-.25-.18-.43-.25-.55.06-.09.14-.17.23-.24a.58.58 0 00.28-.15c.06-.06.12-.1.18-.1.15-.03.36.06.63.29.27.23.32.14.16-.26-.19-.27-.49-.58-.9-.91-.25-.18-.49-.33-.71-.45l.57.41.01.28c0 .19-.04.39-.13.61-.15.19-.3.3-.46.34-.15.03-.36.05-.6.06-.15 0-.41.19-.75.55-.35.37-.69.79-1.02 1.28-.33.49-.66.96-.99 1.42-.33.46-.51.76-.54.92-.15.19-.32.43-.49.73-.18.3-.38.57-.59.83-.18.35-.43.71-.77 1.09.16.06.34.08.56.08.34.12.64.11.88-.02.21-.1.46-.39.72-.88.27-.49.46-.82.58-1.01.33-.47.73-.65 1.2-.54.06 0 .13.34.21 1.02.08.68.17 1.48.29 2.39.11.91.21 1.83.3 2.74.07.89.12 1.62.13 2.18zm3.48 7.97c-.04-1.98-.08-3.69-.09-5.11-.02-1.43-.04-2.95-.08-4.58s-.07-3.18-.11-4.67c-.03-1.49-.07-2.72-.11-3.69a263 263 0 01-.06-1.51.984.984 0 01-.15-.55c0-.09-.02-.15-.05-.18l.65 20.29z"/><path transform="rotate(-1.295 163.528 165.844)" d="M144.53 137.79h38.5v56.61h-38.5z"/><path class="st2" d="M100.46 216.35h328.75v31.47H100.46z"/><path d="M127.11 260.88H97.74v-56.81h29.38v56.81zm-11.38-38.16c-.74-.71-1.38-1.22-1.91-1.51-.53-.29-.67-.19-.42.3 0 .09-.33.14-1 .14s-1.49.09-2.46.28c-.98.19-1.96.52-2.95 1-.99.48-1.75 1.25-2.28 2.3-.62 1.05-1.11 2.36-1.46 3.93-.36 1.57-.51 3.17-.47 4.81.05 1.64.33 3.21.86 4.7.53 1.49 1.38 2.73 2.56 3.72 1.24.96 2.46 1.61 3.67 1.95 1.21.34 2.32.43 3.35.26 1.02-.17 1.92-.57 2.7-1.19.77-.62 1.38-1.32 1.81-2.09.37-.81.73-1.73 1.07-2.77.34-1.04.6-2.09.79-3.16.19-1.07.26-2.11.23-3.12-.03-1.01-.14-1.91-.33-2.72-.93-3.04-2.18-5.32-3.76-6.83zm-3.35 1.44c.87.09 1.63.43 2.3 1 .67.57 1.23 1.27 1.7 2.09.47.82.82 1.73 1.07 2.72.25.99.37 1.97.37 2.93 0 .96-.13 1.98-.4 3.04-.26 1.07-.64 2.03-1.14 2.88-.5.85-1.07 1.56-1.72 2.12-.65.56-1.33.84-2.05.84-.74 0-1.56-.16-2.44-.49-.88-.33-1.7-.87-2.46-1.63-.76-.76-1.39-1.75-1.88-2.98-.5-1.22-.68-2.73-.56-4.53.06-1.8.44-3.23 1.14-4.3.7-1.07 1.46-1.89 2.28-2.46.82-.57 1.61-.94 2.37-1.09.76-.16 1.23-.2 1.42-.14zm-2.28 1.72c-.47.25-.91.56-1.35.93-.4.34-.79.77-1.16 1.3a6.48 6.48 0 00-.88 1.81c-.43 1.43-.54 2.94-.33 4.53.22 1.6.54 2.86.98 3.79.25.47.56.87.93 1.21.37.34.75.6 1.14.79.39.19.74.33 1.05.42.31.09.51.11.6.05.09-.15-.02-.38-.35-.67-.33-.29-.67-.61-1.05-.95-.19-.15-.41-.34-.67-.56-.26-.22-.53-.53-.79-.93s-.5-.95-.7-1.65c-.2-.7-.32-1.63-.35-2.81-.16-1.12-.09-2.14.21-3.07.29-.93.66-1.69 1.09-2.28.5-.72 1.04-1.36 1.63-1.91zm6.83-4.51c-.71-.4-1.34-.74-1.88-1.02-.54-.28-1.03-.48-1.46-.6-.5-.15-.96-.23-1.39-.23l1.72.56c.09.03.41.21.95.54.54.33 1.13.72 1.77 1.19.63.46 1.24.99 1.81 1.58.57.59.98 1.21 1.23 1.86.25.65.47 1.4.67 2.25.2.85.37 1.74.51 2.67.14.93.24 1.84.3 2.72.06.88.03 1.67-.09 2.35-.22 1.43-.52 2.71-.91 3.86s-1.2 2.35-2.44 3.63c-.65.62-1.31 1.14-1.98 1.56-.67.42-1.28.75-1.84 1-.68.31-1.32.54-1.91.7 1.05-.28 2.06-.64 3.02-1.07.81-.37 1.63-.88 2.49-1.51.85-.64 1.54-1.42 2.07-2.35.53-.93.92-1.96 1.19-3.09s.46-2.22.58-3.28c.12-1.05.18-2 .16-2.84-.02-.84-.04-1.47-.07-1.91-.09-.31-.25-.84-.46-1.6-.22-.76-.51-1.58-.88-2.46-.37-.88-.83-1.73-1.37-2.56-.54-.84-1.13-1.49-1.79-1.95zm6.19 15.2c-.12.12-.19.22-.19.28 0 .15.02.28.05.37.03.09.12.17.28.23l-.14-.88z"/><path d="M154.54 260.88h-29.43v-56.81h29.43v56.81zm-17.71-26.12c.25.12.46.19.63.19.17 0 .44-.06.81-.19.15-.03.77-.02 1.86.05 1.08.06 2.2-.05 3.35-.33s2.21-.82 3.18-1.63c.98-.81 1.46-2.12 1.46-3.95s-.3-3.25-.88-4.28c-.59-1.02-1.26-1.77-2.02-2.25s-1.5-.77-2.21-.88c-.71-.11-1.22-.16-1.53-.16h-5.87c-.64 0-1.03.03-1.19.09-.25.06-.46.23-.63.51-.17.28-.26.56-.26.84 0 .09-.02.35-.07.77-.05.42-.09.91-.14 1.46-.05.56-.08 1.12-.09 1.67-.02.56-.02 1.1-.02 1.63 0 .46.01 1.05.02 1.74.01.7.05 1.36.12 1.98.06.62.13 1.19.21 1.72.08.53.12.87.12 1.02 0 .25-.04.64-.12 1.16-.08.53-.16 1.12-.23 1.77-.08.65-.16 1.29-.23 1.91-.08.62-.15 1.05-.21 1.3-.12.56-.09 1.12.09 1.67.19.56.67 1.05 1.44 1.49.71.43 1.16.46 1.35.07s.33-.72.42-1c0-.25-.06-.54-.19-.88-.12-.34-.23-.6-.33-.79-.12-.12-.24-.43-.35-.93-.11-.5-.16-.98-.16-1.44v-1.19c0-.48.03-1 .09-1.56 0-.59.03-1.24.09-1.95.09.03.25.08.47.14.12.06.28.12.47.16.18.04.37.07.55.07zm-1.02-5.91c0-.16-.02-.47-.05-.93-.03-.46-.05-.93-.07-1.39-.02-.46-.03-.91-.05-1.33-.02-.42-.01-.67.02-.77.09-.22.18-.3.26-.26.08.05.18.07.3.07.19 0 .46.04.81.12.36.08.66.12.91.12h2.42c.12 0 .36-.01.7-.02.34-.01.69-.02 1.05-.02.36 0 .72.01 1.09.02.37.02.67.09.88.21.43.25.83.6 1.19 1.07.36.46.53 1.32.53 2.56 0 .59-.15 1.09-.44 1.51-.3.42-.63.8-1 1.14-.37.34-.74.6-1.12.77-.37.17-.64.26-.79.26h-1c-.48 0-.97-.05-1.46-.14-.59 0-1.21-.02-1.86-.05-.12 0-.26.02-.42.05-.09.09-.23.15-.4.16-.17.02-.32.04-.44.07-.59.19-1.01.09-1.26-.28 0-.43.02-.84.05-1.21.03-.34.06-.66.09-.95.04-.31.06-.56.06-.78zm.74-3.58c-.09.03-.09.28.02.74.11.46.16.82.16 1.07 0 .28.02.58.07.91.05.33.02.61-.07.86-.12.31-.2.53-.23.65-.06.12-.09.22-.09.28.12-.03.28-.15.47-.37.12-.12.25-.31.37-.56.12-.25.23-.5.33-.74.03-.59-.05-1.25-.26-1.98-.2-.72-.46-1.01-.77-.86zm-.04 10.18l.33.84c.12.22.22.43.28.63.06.2.09.36.09.49 0 .09.01.37.05.81.03.45.05.92.05 1.42v1.95l.14-4.97 3.11-.46c-.59.09-1.16.09-1.72 0-.43-.03-.88-.09-1.33-.19-.45-.1-.79-.27-1-.52zm4.27-9.76h-.79c-.22 0-.39.02-.51.07s-.16.09-.09.12c.31.19.65.2 1.02.05.16-.04.28-.12.37-.24zm.19 5.11l-1.44-.37c.16.16.34.28.56.37.3.19.6.19.88 0zm8.09.28c.4-.9.59-1.96.56-3.18-.03-1.22-.22-2.33-.56-3.32a6.54 6.54 0 00-.67-1.26c-.26-.37-.52-.7-.77-.98a5.51 5.51 0 00-1.02-.7c.12.03.23.11.33.23.12.09.24.22.35.37.11.16.27.31.49.47.46.43.85 1.12 1.16 2.04.31.93.47 1.83.47 2.7.09.84-.04 1.81-.4 2.93-.36 1.12-.77 1.97-1.23 2.56-.25.25-.55.51-.91.79s-.74.51-1.14.7c-.4.22-.84.48-1.3.79.93-.12 1.85-.63 2.77-1.53.9-.9 1.53-1.77 1.87-2.61z"/><path d="M182.34 260.88h-29.47v-56.81h29.47v56.81zm-11.67-35.93c.37 0 .86.05 1.46.14.6.09 1.14.09 1.6 0 .53-.03.89-.21 1.09-.53.2-.33.33-.64.4-.95.06-.34-.04-.77-.3-1.3s-.55-.85-.86-.98c-.22-.12-.54-.15-.98-.07-.43.08-.77.19-1.02.35-.19.09-.47.17-.84.23s-.76.12-1.16.19c-.4.06-.81.11-1.23.14-.42.03-.74.05-.95.05-.22 0-.66-.02-1.32-.05-.67-.03-1.39-.06-2.16-.09a25.4 25.4 0 00-2.14 0c-.65.03-1.09.09-1.3.19-.22.16-.4.5-.53 1.02-.14.53-.25 1.12-.33 1.79-.08.67-.13 1.3-.16 1.91-.03.6-.05 1.08-.05 1.42 0 .34.03.78.09 1.33.06.54.12 1.06.16 1.56.05.5.09.96.12 1.39.03.43.01.73-.05.88-.06.25-.16.69-.28 1.33-.12.64-.19 1.23-.19 1.79 0 .25.02.73.07 1.44s.11 1.45.19 2.21.15 1.46.21 2.09c.06.64.09.97.09 1 0 .16.11.43.33.84.22.4.5.65.84.74.16 0 .67.01 1.56.02.88.02 1.86.02 2.93.02h4.54c.15 0 .43.05.81.14.39.09.79.18 1.21.26.42.08.78.14 1.09.19.31.05.56.07.74.07.28 0 .66-.16 1.14-.49.48-.33.75-.67.81-1.05 0-.37-.05-.86-.16-1.46s-.38-.95-.81-1.05c-.37-.12-1.01-.02-1.91.33-.9.34-1.61.54-2.14.6-.25.09-.71.11-1.37.05-.67-.06-1.37-.14-2.12-.23-.74-.09-1.43-.17-2.05-.23-.62-.06-1.02-.09-1.21-.09-.25 0-.63.07-1.14.21-.51.14-.86.13-1.05-.02-.22-.12-.26-.38-.14-.77s.19-.64.19-.77c0-.09-.01-.29-.02-.58-.02-.29-.09-.6-.21-.91-.06-.06-.1-.35-.12-.86-.02-.51 0-1.02.05-1.53s.1-.98.16-1.42c.06-.43.15-.67.28-.7.16-.16.4-.19.74-.09.34.09.64.08.88-.05.09 0 .37-.02.84-.05.46-.03.96-.05 1.49-.05h1.46c.45 0 .77.03.95.09.25.12.47.23.65.3.19.08.57.06 1.16-.07.65-.06 1.04-.28 1.16-.65.12-.37.2-.85.23-1.44.09-.62-.06-1-.46-1.14-.4-.14-.74-.29-1.02-.44-.34-.06-.78.01-1.3.21-.53.2-.95.33-1.26.4h-.77c-.36 0-.71-.02-1.07-.07-.36-.05-.7-.09-1.02-.14-.33-.05-.57-.07-.72-.07-.19.09-.41.14-.67.14-.26 0-.55.02-.86.05-.25.06-.54.09-.88.09v-5.18c0-.67.03-1.09.09-1.28 1.43-.03 2.74-.09 3.95-.19 1.02-.03 1.98-.06 2.88-.09a28.1 28.1 0 011.69-.07zm-3.02 1.21h-4.42c-.06.46-.09.88-.09 1.26V229c0 .43-.02.71-.05.84-.09.16-.16.3-.19.42.84 0 1.56-.01 2.18-.05.59-.09 1.11-.14 1.56-.14.45 0 .74-.02.86-.05h-.35c-.26 0-.57-.03-.93-.09-.36-.06-.71-.12-1.07-.19-.36-.06-.57-.25-.63-.56-.16-.49-.25-.98-.28-1.46-.03-.48.05-.77.23-.86.09-.09.3-.15.63-.19.33-.03.67-.11 1.05-.23.45-.1.94-.19 1.5-.28zm-4.51 9.43c0 .16.01.47.05.95.03.48.08 1.02.14 1.6.06.68.11 1.39.14 2.14l1.02-.19c-.12.19-.22.28-.28.28-.12 0-.19-.08-.21-.23-.02-.16-.04-.5-.07-1.02-.09-.56-.16-1.05-.21-1.46-.05-.42-.13-.8-.26-1.14a8.53 8.53 0 00-.32-.93zm1.16.56c.03 0 .22-.02.58-.05.36-.03.74-.08 1.16-.14.42-.06.77-.1 1.07-.12.29-.02.43-.02.4-.02-.16-.12-.43-.16-.81-.12-.39.05-.78.1-1.19.16-.4.06-.72.13-.95.21-.23.09-.32.11-.26.08zm5.82-6.18l1.3.88c-.25-.31-.5-.53-.74-.65-.22-.12-.41-.2-.56-.23z"/><path d="M209.96 260.88h-29.47v-56.81h29.47v56.81zm-20.09-17.99c.06-.25-.03-.56-.28-.93s-.4-.68-.47-.93c0-.15-.01-.59-.02-1.3-.02-.71-.04-1.53-.07-2.44-.03-.91-.05-1.8-.05-2.65v-2.07c.06-.9.13-1.61.21-2.14.08-.53.09-.91.02-1.16-.06-.09-.2.06-.42.46-.12.22-.26.42-.42.6-.03-.47-.08-.93-.14-1.39a7.99 7.99 0 01-.02-1.09c.02-.36.07-.58.16-.67.28-.19.5-.36.67-.54.17-.17.36-.18.58-.02.03.03.24.37.63 1 .39.64.85 1.39 1.39 2.28.54.88 1.12 1.84 1.74 2.88a173.8 173.8 0 011.72 2.95c.53.93.98 1.7 1.37 2.3.39.6.61.98.67 1.14l1.63 2.18c.03.03.08.19.16.49s.15.61.23.95c.08.34.17.67.28 1 .11.33.24.52.4.58.12.09.35.16.67.21.33.05.64.05.95 0 .31-.05.6-.13.88-.26.28-.12.43-.34.47-.65.12-.59.06-1.31-.19-2.16-.25-.85-.37-2.3-.37-4.35 0-.96.02-2.06.07-3.3.05-1.24.07-2.46.07-3.67s.01-2.29.02-3.23.04-1.6.07-1.98c.09-.77.21-1.38.35-1.81.14-.43.18-.76.12-.98a.846.846 0 01-.16-.46c-.02-.19-.07-.39-.16-.6-.12-.22-.2-.43-.23-.65-.19.25-.36.48-.51.7-.34.53-.6.85-.79.98-.19.06-.41.17-.67.33-.26.16-.41.36-.44.6 0 .31.12.85.35 1.63.23.78.3 1.5.21 2.18 0 .28-.01.92-.02 1.93-.02 1.01-.05 2.09-.12 3.23-.06 1.15-.11 2.22-.14 3.21-.03.99-.05 1.61-.05 1.86-.12.43-.22.93-.28 1.49-.06.56-.23.93-.51 1.12a.86.86 0 01-.77.26c-.3-.05-.55-.29-.77-.72-.25-.4-.45-.75-.6-1.05-.16-.29-.26-.61-.33-.95-.09-.34-.16-.65-.21-.93-.05-.28.02-.45.21-.51.12-.06.2-.09.23-.09s.12-.05.28-.14c.12 0 .2-.02.23-.05-.43-.5-.84-.98-1.21-1.44-.81-.93-1.33-1.63-1.58-2.09-.16-.22-.41-.7-.77-1.44-.36-.74-.73-1.53-1.12-2.37-.39-.84-.76-1.63-1.12-2.37-.36-.74-.58-1.19-.67-1.35-.28-.34-.57-.88-.86-1.63-.29-.74-.53-1.19-.72-1.35-.16-.12-.23-.3-.23-.53v-.49c0-.12-.02-.1-.07.07s-.15.35-.3.53c-.19.16-.56.37-1.12.65s-.88.56-.98.84c0 .19.04.43.12.72.08.3.19.6.33.91s.26.6.35.88c.09.28.14.45.14.51.06.31.01.79-.16 1.44-.17.65-.26 1.16-.26 1.53 0 .43-.06.89-.19 1.37-.12.48-.19.89-.19 1.23 0 .16-.02.78-.07 1.88-.05 1.1-.07 2.32-.07 3.65v3.77c0 1.18.05 1.92.14 2.23.37 1.18.84 1.74 1.39 1.67.25-.12.52-.36.81-.72.34-.36.52-.61.58-.77zm-.46 1.77c-.06.06-.08.19-.05.4.03.2.06.26.09.16 0-.09.07-.21.21-.35.14-.14.26-.3.35-.49.19-.19.37-.42.56-.7l-.42.42c-.34.19-.59.37-.74.56zm8.32-11.53c-.37-.74-.74-1.5-1.12-2.28-.34-.68-.69-1.36-1.05-2.05-.36-.68-.67-1.25-.95-1.72-.28-.47-.58-1.02-.91-1.65-.33-.63-.65-1.25-.98-1.84-.33-.59-.63-1.12-.91-1.58-.28-.47-.53-.76-.74-.88-.22-.12-.4-.24-.56-.35-.16-.11-.33-.21-.51-.3-.22-.12-.4-.2-.56-.23.62.71 1.22 1.49 1.81 2.32.56.78 1.16 1.69 1.81 2.74.65 1.05 1.3 2.17 1.95 3.35.65 1.24 1.15 2.15 1.51 2.74.36.59.6 1.02.72 1.3.3.29.46.43.49.43zm-6.97 9.85v-6.55c0-.84.03-1.32.09-1.44 0-.12-.05-.39-.14-.79-.09-.4-.17-.82-.23-1.25-.19-.46-.34-.98-.47-1.53.12 2.04.25 3.9.37 5.58.06.71.1 1.43.12 2.16.02.73.05 1.36.12 1.91.06.54.1.98.12 1.33.01.32.02.52.02.58zm.65-6.5l.47-.37-.09-.37-.38.74zm9.29 9.39h.33c.06 0 .26-.06.6-.19.12 0 .25-.04.37-.12.12-.08.28-.18.47-.3.22-.12.4-.26.56-.42l-2.33 1.03zm2.89-4.51v-.19c0-.03.02-.09.05-.19.03-.09.05-.2.05-.33 0-.09.06-.22.19-.37.12-.15.19-.33.19-.51v-8.65c0-2.54.01-5.39.05-8.55-.12.19-.21.58-.26 1.19-.05.6-.1 1.35-.16 2.23-.06.88-.09 1.88-.09 3v12.37zm.18.93v1.02c.06-.03.09-.14.09-.33v-.32c.01-.09-.03-.22-.09-.37zm61.78 18.59h-29.43v-56.81h29.43v56.81zm-8.83-32.86c.34-.12.63-.46.86-1 .23-.54.24-1.11.02-1.7-.06-.25-.26-.6-.58-1.07a9.8 9.8 0 00-1.19-1.39c-.46-.46-.98-.9-1.53-1.3a4.57 4.57 0 00-1.95-.79c-.65-.12-1.53-.12-2.63 0-1.1.12-2.15.41-3.16.86a7.349 7.349 0 00-2.6 1.91c-.73.82-1.09 1.82-1.09 3 0 1.27.17 2.28.51 3.02.34.74.74 1.34 1.21 1.79.47.45.98.75 1.53.91.56.16 1.05.29 1.49.42.46.09 1.05.19 1.74.3.7.11 1.41.23 2.14.37.73.14 1.39.29 1.98.46.59.17 1.02.37 1.3.58.5.43.85 1.09 1.07 1.98.22.88.19 1.59-.09 2.12-.22.53-.76 1.15-1.63 1.86-.87.71-2.06 1.07-3.58 1.07-.74 0-1.35-.04-1.81-.12-.47-.08-.84-.19-1.12-.33a2.14 2.14 0 01-.7-.56c-.19-.23-.4-.47-.65-.72-.43-.53-.74-.89-.91-1.09-.17-.2-.26-.44-.26-.72 0-.25.08-.46.26-.63.17-.17.19-.38.07-.63-.12-.31-.26-.47-.42-.49a.409.409 0 01-.33-.21 1.01 1.01 0 01-.37-.37c-.09-.15-.12-.36-.09-.6 0-.22.06-.42.19-.6.03-.12.05-.22.05-.28-.12.06-.26.11-.42.14-.31.12-.47.3-.47.51-.06.16-.03.29.09.42.03.06.05.11.05.14a1.34 1.34 0 00-.84 0c-.19.12-.38.3-.58.51-.2.22-.3.57-.3 1.07 0 .46.11 1.02.33 1.65.22.64.55 1.27 1 1.91.45.64.95 1.2 1.51 1.7s1.19.9 1.91 1.21c.68.34 1.46.55 2.32.63.87.08 1.71.08 2.53 0 .82-.08 1.59-.25 2.3-.51.71-.26 1.29-.57 1.72-.91.81-.71 1.51-1.6 2.11-2.65.6-1.05.84-2.14.72-3.25-.09-1.15-.43-2.12-1.02-2.93-.59-.81-1.07-1.43-1.44-1.86-.43-.43-.8-.75-1.09-.95-.3-.2-.5-.27-.63-.21a1.4 1.4 0 00-.05.42c0 .03.02.06.05.09-.34.06-.64.06-.88 0-.53 0-1.07-.09-1.63-.28-.43-.15-1.06-.29-1.88-.42-.82-.12-1.5-.33-2.02-.6-.56-.25-.81-.37-.74-.37.06 0-.06-.03-.37-.09-.19-.06-.54-.33-1.07-.79s-.79-1.02-.79-1.67c0-.34.15-.66.46-.95s.67-.57 1.07-.84c.4-.26.82-.5 1.26-.7.43-.2.79-.32 1.07-.35.53-.12 1.25-.22 2.16-.28.91-.06 1.56.05 1.93.33.43.22.86.56 1.28 1.02.42.47.71.85.86 1.16.12.25.17.5.14.74-.03.25.11.5.42.74.22.22.5.33.84.33a.87.87 0 00.36-.16zm-9.76 6.41c-.31-.03-.77-.15-1.37-.37-.6-.22-.98-.33-1.14-.33-.12 0-.09.08.12.23.2.16.38.34.53.56.22.25.5.84.86 1.77s.72 1.6 1.09 2c.25.22.54.36.88.42.34.06.7.09 1.07.09h1.39c-.28-.09-.54-.14-.79-.14h-.65c-.22 0-.39-.02-.51-.05-.22-.03-.46-.1-.72-.21a4.14 4.14 0 01-.67-.35c-.16-.12-.33-.45-.51-.98-.19-.53-.33-.94-.42-1.25a7.57 7.57 0 00-.46-.79c-.06-.19-.14-.29-.23-.33.12.03.29.09.51.19.12.03.27.05.44.05h.35c.15 0 .33.02.51.05.19.03.4.05.65.05h.93a2.59 2.59 0 01-.74-.28 5.72 5.72 0 01-.67-.14c-.24-.07-.39-.13-.45-.19zm5.9-5.39l-.6-.33c-.34-.15-.68-.28-1.02-.37-.09 0-.33-.04-.7-.12-.37-.08-.78-.16-1.23-.26-.45-.09-.85-.22-1.21-.4-.36-.17-.58-.33-.67-.49-.28-.43-.22-.8.19-1.09.4-.29.84-.44 1.3-.44h1.86c-.31-.03-.64-.09-.98-.19-.25-.03-.54-.05-.88-.07-.34-.02-.62-.02-.84-.02-.5.03-.99.28-1.49.74-.5.46-.64.99-.42 1.58.12.34.35.6.67.77.33.17.67.29 1.05.37.37.08.74.12 1.09.14.36.02.63.02.81.02.12.06.36.09.7.09h1.07c.47.02.9.04 1.3.07zm3.95 1.76c-.19.06-.11.19.23.37l.51.33c.5.65.9 1.32 1.21 2 .28.59.5 1.29.67 2.12.17.82.18 1.65.02 2.49-.37 1.77-.91 2.99-1.6 3.67-.7.68-1.45 1.27-2.25 1.77-.84.46-1.72.86-2.65 1.19-.93.33-1.69.49-2.28.49-.59 0-1.2-.02-1.84-.07-.64-.05-.89-.02-.77.07.03 0 .36.04.98.12.62.08 1.35.09 2.18.02.84-.06 1.74-.22 2.72-.46s1.88-.67 2.72-1.26c.8-.59 1.44-1.3 1.91-2.14.46-.84.8-1.67 1-2.51.2-.84.32-1.61.37-2.32.05-.71.02-1.25-.07-1.63-.06-.34-.23-.77-.51-1.3s-.59-1.01-.93-1.44c-.34-.43-.66-.81-.95-1.14-.29-.34-.51-.46-.67-.37zm.24-2.13c0 .22.09.4.28.53.19.14.34.15.47.02.09-.12.32-.37.67-.74.36-.37.54-.77.54-1.21 0-.15-.01-.38-.02-.67-.02-.29-.04-.6-.07-.91-.09-.28-.17-.59-.23-.93.06 0 .14-.03.23-.09l.23-.23c0-.09-.12-.19-.37-.28l-.33-.19a1.07 1.07 0 01-.14-.23c-.12-.12-.16-.25-.09-.37.06-.12-.17-.52-.7-1.19-.53-.67-.99-1.12-1.39-1.37-.46-.28-1.16-.61-2.09-1-.93-.39-1.52-.58-1.77-.58h-.79c-.16 0-.25-.02-.28-.05.96.34 1.86.65 2.7.93.71.31 1.38.65 2 1.02s1.07.73 1.35 1.07c.22.37.38.67.49.88.11.22.23.42.35.6.09.19.14.33.14.42l.09.47.19.37c.12.46.22.88.28 1.25.09.34.1.69.02 1.05-.08.36-.21.61-.4.77-.31.22-.53.35-.67.4-.14.05-.27.12-.4.21l-.29.05z"/><path d="M293.77 260.88h-29.43v-56.81h29.43v56.81zm-14.18-39.93c-.31 0-.88-.01-1.72-.02-.84-.02-1.72-.05-2.65-.09-.93-.05-1.77-.09-2.53-.14-.76-.05-1.22-.07-1.37-.07-.34 0-.56.09-.65.26-.09.17-.16.43-.19.77 0 .37.23.79.7 1.25.46.46.77.74.93.84.09.09.29.15.6.16.31.02.64.03 1 .05.36.02.69.02 1 .02s.5-.02.56-.05c.25-.12.42-.26.53-.42.11-.15.44-.23 1-.23.22 0 .39.12.51.35.12.23.23.53.3.88s.13.73.16 1.12c.03.39.08.72.14 1 .06.28.08 1.01.05 2.18a297.03 297.03 0 01-.35 8c-.08 1.39-.15 2.42-.21 3.07-.16 1.36-.09 2.34.21 2.93.29.59.57.93.81 1.02.25.06.57-.01.95-.21.39-.2.66-.4.81-.58.12-.12.16-.32.09-.58-.06-.26-.16-.55-.28-.86l-.33-1.35v-16.27h.28c.12 0 .22-.01.3-.02.08-.02.18-.02.3-.02.31.03.53.09.65.19.12.09.37.14.74.14.4 0 .62-.02.65-.05.03-.03.17-.11.42-.23.31-.03.67-.08 1.07-.14.4-.06.74.03 1.02.28.28.22.49.3.63.23.14-.06.46-.12.95-.19.56-.12.93-.42 1.12-.88.19-.46.09-1.24-.28-2.32-.12-.47-.36-.77-.7-.91a1.89 1.89 0 00-1.05-.12c-.36.06-.68.18-.98.35-.29.17-.52.27-.67.3-.28.12-.67.19-1.16.19h-1.21c-.25.03-.48.08-.7.14-.19.03-.42.05-.7.05-.24-.02-.5-.02-.75-.02zm1.58 4c0 3.07.03 5.8.09 8.18 0 1.09.02 2.13.05 3.14.03 1.01.05 1.92.07 2.74.01.82.02 1.51.02 2.07v.88c0 .31-.05.6-.14.88-.06.19-.12.31-.19.37.19 0 .34-.12.46-.37.09-.12.17-.39.23-.79s.06-.98 0-1.72c0-.77-.02-1.96-.05-3.56-.03-1.6-.05-3.2-.05-4.81v-6.28c0-.25.14-.37.42-.37h.84c.46 0 .97-.03 1.51-.09s1.05-.11 1.51-.14c.47-.03.77-.08.93-.14.34-.25.62-.48.84-.7.19-.19.31-.36.37-.51-.12.25-.31.43-.56.56-.47.43-.98.65-1.53.65-.31 0-.73-.02-1.25-.07-.53-.05-1.05-.07-1.56-.07h-1.35c-.37.01-.6.05-.66.15z"/><path d="M321.57 260.88h-29.43v-56.81h29.43v56.81zm-7.44-40.95c-.22 0-.5.12-.86.37s-.66.59-.91 1.02c-.12.22-.2.84-.23 1.88s-.02 2.21.02 3.51c.05 1.3.09 2.59.14 3.86.05 1.27.02 2.2-.07 2.79 0 .68-.01 1.43-.02 2.23-.02.81-.12 1.57-.3 2.28-.19.71-.53 1.34-1.02 1.88-.5.54-1.24.91-2.23 1.09-.99.15-1.74.25-2.23.28-.5.03-.87 0-1.12-.09-.25-.09-.4-.2-.44-.33a.979.979 0 00-.3-.37c-.28-.22-.42-.36-.42-.44s-.08-.1-.23-.07c-.19.09-.41 0-.67-.28-.26-.28-.55-.56-.86-.84-.25-.28-.38-.51-.4-.7-.02-.19-.02-.34-.02-.47.03-.09.09-.2.19-.32.09-.12.06-.39-.09-.79-.06-.4-.16-.87-.28-1.39-.12-.53-.19-1.12-.19-1.77 0-.34-.02-1.02-.05-2.02-.03-1.01-.05-2.06-.05-3.16v-2.95c0-.87.03-1.36.09-1.49.06-.15.19-.5.4-1.02.2-.53.21-.96.02-1.3-.37-.9-.84-1.3-1.39-1.21-.25.06-.58.23-1 .49-.42.26-.72.57-.91.91-.16.31-.12.85.12 1.6.23.76.35 1.56.35 2.39v4.28c0 .99.01 2.05.02 3.16.02 1.12.07 2.19.16 3.23s.22 1.94.4 2.7c.17.76.35 1.25.53 1.46.34.34.81.74 1.39 1.21.59.47 1.28.87 2.07 1.21.79.34 1.64.55 2.56.63.91.08 1.87-.07 2.86-.44 1.95-.77 3.38-1.49 4.28-2.16.9-.67 1.38-1.29 1.44-1.88 0-.59-.06-1.16-.19-1.72-.12-.56-.2-.91-.23-1.07v-9.9c.12-.46.25-1.12.37-1.98.12-.85.25-1.43.37-1.74.03-.34-.09-.84-.35-1.51s-.5-1.02-.72-1.05zm-11.16 14.31c-.15 1.18-.12 2 .09 2.46.09.31.2.51.33.6 0-1.02.01-2 .05-2.93 0-.74.02-1.52.05-2.32.03-.81.05-1.41.05-1.81 0-.46-.02-1.19-.05-2.16-.03-.98-.08-2.01-.14-3.09-.12-1.27-.25-2.6-.37-4 0 .06.02.68.05 1.86.03 1.18.06 2.53.09 4.04.03 1.52.03 2.98 0 4.37-.04 1.4-.08 2.4-.15 2.98zm13.21-11.57v9.83c0 .88-.02 1.67-.05 2.37-.03.7-.06 1.29-.07 1.79-.02.5-.02.77-.02.84-.09.22-.17.57-.23 1.05-.06.48-.21 1.01-.44 1.58-.23.57-.56 1.14-.98 1.7-.42.56-.98 1.04-1.7 1.44-.77.43-1.51.77-2.21 1-.7.23-1.31.44-1.84.63-.59.22-1.18.39-1.77.51 1.3-.12 2.51-.4 3.63-.84.99-.37 1.98-.9 2.98-1.58.99-.68 1.75-1.66 2.28-2.93.28-.96.45-2.41.51-4.35.06-1.94.09-3.85.09-5.74 0-2.26-.06-4.7-.18-7.3z"/><path d="M349.23 260.88h-29.47v-56.81h29.47v56.81zm-22.04-36.3c0 .46-.01.88-.02 1.23-.02.36-.18 1.05-.49 2.07-.06.5-.08 1.3-.07 2.42.02 1.12.07 2.26.16 3.44.09 1.18.18 2.23.26 3.16.08.93.12 1.47.12 1.63 0 .28.02.81.07 1.58s.07 1.35.07 1.72c0 .22.04.46.12.72.08.26.29.51.65.74.36.23.91.46 1.67.67.76.22 1.84.33 3.23.33 2.6 0 4.53-.67 5.79-2.02 1.26-1.35 2.27-3.03 3.05-5.04.37-.96.53-2.14.49-3.53s-.22-2.77-.54-4.11c-.31-1.35-.67-2.57-1.09-3.67-.42-1.1-.84-1.88-1.28-2.35-.43-.5-.94-.89-1.53-1.19s-1.19-.52-1.81-.67c-.62-.15-1.17-.24-1.65-.26-.48-.02-.83-.01-1.05.02-.37.16-1.01.21-1.91.16-.9-.05-1.56-.07-2-.07-.43 0-.86.1-1.28.3-.42.2-.67.52-.77.95-.06.22-.09.43-.09.65-.06.16-.09.35-.09.58-.01.23-.01.41-.01.54zm1.68-.7c.5.22.96.39 1.39.51.87.25 1.52.3 1.95.14.16-.06.47-.14.95-.23s1-.14 1.56-.14 1.1.09 1.63.28c.53.19 1.01.48 1.44.88.31.43.69 1.12 1.14 2.07.45.95.81 1.98 1.09 3.12.28 1.13.4 2.36.35 3.67a8.95 8.95 0 01-1 3.79c-.62 1.18-1.24 2.04-1.86 2.6-.62.56-1.18.91-1.67 1.07-.5.16-.94.19-1.32.12-.39-.08-.67-.13-.86-.16-.22 0-.47-.02-.77-.07a5.07 5.07 0 00-.86-.07c-.31 0-.65-.02-1.02-.05 0 .12-.06.22-.19.28-.22.25-.43.29-.65.14-.28-.15-.48-.29-.6-.4-.12-.11-.11-.32.05-.63.09-.25.17-.4.23-.44.06-.05.05-.26-.05-.63-.03-.34-.13-.84-.3-1.49-.17-.65-.26-1.16-.26-1.53 0-.15-.02-.75-.05-1.79-.03-1.04-.08-2.17-.14-3.39-.06-1.22-.1-2.35-.12-3.37-.02-1.02-.02-1.69-.02-2 0-.25-.01-.49-.02-.72-.02-.23-.02-.47-.02-.72v-.84zm1.44 1.9c0 2.48.05 4.71.14 6.69.03 1.67.05 3.21.07 4.6.02 1.39.05 2.09.12 2.09.06.03.12-.43.16-1.37.05-.94.09-2.03.14-3.25.05-1.22.08-2.39.09-3.51.02-1.12.02-1.81.02-2.09v-.91c0-.36.03-.7.09-1.05 0-.4.01-.79.05-1.16l2.14-.23c-.53-.06-1.01-.09-1.44-.09-.37 0-.71.02-1 .05-.29.03-.49.11-.58.23zm13.11 3.4c.15 1.52.22 2.99.19 4.42-.09 1.27-.27 2.56-.54 3.86-.26 1.3-.75 2.4-1.46 3.3-1.39 1.74-2.64 2.87-3.74 3.39-1.1.53-1.9.82-2.39.88-.46.19-1.01.28-1.63.28h-1.07c.87.16 1.8.16 2.79 0 .81-.09 1.67-.36 2.6-.79.93-.43 1.8-1.15 2.6-2.14 1.61-1.98 2.56-4.13 2.86-6.44.29-2.31.22-4.56-.21-6.76z"/><path d="M377.17 260.88h-29.43v-56.81h29.43v56.81zm-11.11-39.47l.14.09c.09.09.25.09.47 0 .25-.06.37-.15.37-.26 0-.11-.16-.21-.47-.3-.28-.09-.52-.04-.72.16-.2.2-.4.33-.58.4-.19.12-.37.32-.56.58-.19.26-.7.47-1.53.63-.81.09-1.44.12-1.91.09s-.91-.06-1.35-.09c-.19 0-.45-.02-.79-.07s-.65-.05-.93 0a1.8 1.8 0 00-.79.35c-.25.19-.39.48-.42.88-.09.4-.01.68.26.84.26.16.59.24.98.26s.75.02 1.09.02c.34 0 .57.05.7.14.53.68.79 1.84.79 3.49 0 .4.02 1.24.05 2.51.03 1.27.07 2.63.12 4.09.05 1.46.07 2.79.07 4v2.05c-.09.37-.19.72-.3 1.05-.11.32-.33.55-.67.67-.28.09-.52.09-.72-.02-.2-.11-.44-.15-.72-.12-.12 0-.28.12-.46.35-.19.23-.36.46-.51.7-.16.23-.3.47-.42.72s-.12.4 0 .46c.15.16.67.19 1.53.12.87-.08 1.58-.12 2.14-.12.5 0 1.04.02 1.63.07.59.05 1.12.1 1.58.16.43.12.92.18 1.47.16.54-.02.94-.24 1.19-.67.25-.37.43-.79.53-1.25.11-.46.05-.81-.16-1.02-.31-.31-.73-.4-1.26-.28-.16.03-.37-.06-.65-.28-.28-.22-.5-.33-.65-.33-.22 0-.49.14-.81.42-.33.28-.57.4-.72.37-.12 0-.19-.17-.21-.51-.02-.34-.04-.7-.07-1.09-.03-.39-.05-.77-.05-1.16v-13.78c0-.22.09-.39.28-.51.4-.15.81-.15 1.21 0 .15.09.49.19 1 .3.51.11.91.01 1.19-.3.25-.22.5-.47.77-.77.26-.29.33-.6.21-.91-.15-.62-.5-1.02-1.02-1.21-.25-.09-.44-.19-.58-.3-.14-.11-.13-.21.02-.3.06-.12.38-.19.95-.21.57-.02.92.21 1.05.67.03.28.05.53.05.74v1.16c.09-.43.14-.82.14-1.16 0-.25-.03-.51-.09-.79s-.16-.48-.28-.6a.497.497 0 00-.42-.19c-.19 0-.36-.01-.51-.05-.26 0-.47-.02-.65-.05zm-6.23-.65l6.74.19c-1.08-.09-2.09-.15-3.02-.19-.77-.09-1.53-.15-2.25-.16-.74-.01-1.22.04-1.47.16zm4.55 6.88l.19 12.92.37-.09c-.09-.09-.14-.17-.14-.23 0-.03-.01-.08-.02-.14-.02-.06-.02-.14-.02-.23-.06-.15-.11-.88-.14-2.18-.03-1.3-.08-2.7-.14-4.18l-.1-5.87zm.7 13.21c0 .12.08.21.23.26.15.05.36.07.63.07.26 0 .49.02.7.05.2.03.33.05.4.05.12.09.31.28.56.56.25.28.37.51.37.7 0 .22.02.46.07.72.05.26.04.32-.02.16-.03-.06-.04-.41-.02-1.05.02-.64-.24-1.08-.77-1.33-.53-.31-.98-.52-1.37-.63-.4-.11-.65.03-.78.44z"/><path d="M405.06 260.88h-29.38v-56.81h29.38v56.81zm-11.39-38.16c-.74-.71-1.38-1.22-1.91-1.51-.53-.29-.67-.19-.42.3 0 .09-.33.14-1 .14-.67 0-1.49.09-2.46.28-.98.19-1.96.52-2.95 1-.99.48-1.75 1.25-2.28 2.3-.62 1.05-1.11 2.36-1.47 3.93-.36 1.57-.51 3.17-.46 4.81s.33 3.21.86 4.7c.53 1.49 1.38 2.73 2.56 3.72 1.24.96 2.46 1.61 3.67 1.95 1.21.34 2.32.43 3.35.26 1.02-.17 1.92-.57 2.7-1.19s1.38-1.32 1.81-2.09c.37-.81.73-1.73 1.07-2.77.34-1.04.6-2.09.79-3.16.19-1.07.26-2.11.23-3.12-.03-1.01-.14-1.91-.33-2.72-.92-3.04-2.18-5.32-3.76-6.83zm-3.35 1.44c.87.09 1.63.43 2.3 1 .67.57 1.23 1.27 1.7 2.09.46.82.82 1.73 1.07 2.72.25.99.37 1.97.37 2.93 0 .96-.13 1.98-.4 3.04-.26 1.07-.64 2.03-1.14 2.88-.5.85-1.07 1.56-1.72 2.12-.65.56-1.33.84-2.05.84-.74 0-1.56-.16-2.44-.49-.88-.33-1.7-.87-2.46-1.63-.76-.76-1.39-1.75-1.88-2.98-.5-1.22-.68-2.73-.56-4.53.06-1.8.44-3.23 1.14-4.3.7-1.07 1.46-1.89 2.28-2.46.82-.57 1.61-.94 2.37-1.09.76-.16 1.24-.2 1.42-.14zm-2.27 1.72c-.46.25-.91.56-1.35.93-.4.34-.79.77-1.16 1.3a6.48 6.48 0 00-.88 1.81c-.43 1.43-.54 2.94-.33 4.53.22 1.6.54 2.86.98 3.79.25.47.56.87.93 1.21.37.34.75.6 1.14.79.39.19.74.33 1.05.42s.51.11.6.05c.09-.15-.02-.38-.35-.67-.33-.29-.67-.61-1.05-.95-.19-.15-.41-.34-.67-.56-.26-.22-.53-.53-.79-.93s-.5-.95-.7-1.65-.32-1.63-.35-2.81c-.16-1.12-.08-2.14.21-3.07.29-.93.66-1.69 1.09-2.28.49-.72 1.04-1.36 1.63-1.91zm6.83-4.51c-.71-.4-1.34-.74-1.88-1.02-.54-.28-1.03-.48-1.46-.6-.5-.15-.96-.23-1.39-.23l1.72.56c.09.03.41.21.95.54s1.13.72 1.77 1.19c.64.46 1.24.99 1.81 1.58.57.59.98 1.21 1.23 1.86.25.65.47 1.4.67 2.25.2.85.37 1.74.51 2.67.14.93.24 1.84.3 2.72.06.88.03 1.67-.09 2.35-.22 1.43-.52 2.71-.91 3.86s-1.2 2.35-2.44 3.63c-.65.62-1.31 1.14-1.98 1.56-.67.42-1.28.75-1.84 1-.68.31-1.32.54-1.91.7 1.05-.28 2.06-.64 3.02-1.07.81-.37 1.63-.88 2.49-1.51.85-.64 1.54-1.42 2.07-2.35.53-.93.92-1.96 1.19-3.09.26-1.13.46-2.22.58-3.28.12-1.05.18-2 .16-2.84-.02-.84-.04-1.47-.07-1.91-.09-.31-.25-.84-.47-1.6-.22-.76-.51-1.58-.88-2.46-.37-.88-.83-1.73-1.37-2.56-.53-.84-1.13-1.49-1.78-1.95zm6.18 15.2c-.12.12-.19.22-.19.28 0 .15.01.28.05.37.03.09.12.17.28.23l-.14-.88z"/><path d="M432.91 260.88h-29.43v-56.81h29.43v56.81zm-8.84-32.86c.34-.12.63-.46.86-1 .23-.54.24-1.11.02-1.7-.06-.25-.26-.6-.58-1.07a10.5 10.5 0 00-1.19-1.39c-.46-.46-.98-.9-1.53-1.3a4.57 4.57 0 00-1.95-.79c-.65-.12-1.53-.12-2.63 0-1.1.12-2.15.41-3.16.86a7.349 7.349 0 00-2.6 1.91c-.73.82-1.09 1.82-1.09 3 0 1.27.17 2.28.51 3.02.34.74.74 1.34 1.21 1.79.47.45.98.75 1.53.91.56.16 1.05.29 1.49.42.46.09 1.05.19 1.74.3.7.11 1.41.23 2.14.37.73.14 1.39.29 1.98.46.59.17 1.02.37 1.3.58.49.43.85 1.09 1.07 1.98.22.88.19 1.59-.09 2.12-.22.53-.76 1.15-1.63 1.86-.87.71-2.06 1.07-3.58 1.07-.74 0-1.35-.04-1.81-.12-.46-.08-.84-.19-1.12-.33a2.14 2.14 0 01-.7-.56c-.19-.23-.4-.47-.65-.72-.43-.53-.74-.89-.91-1.09-.17-.2-.26-.44-.26-.72 0-.25.08-.46.26-.63.17-.17.19-.38.07-.63-.12-.31-.26-.47-.42-.49a.409.409 0 01-.33-.21 1.01 1.01 0 01-.37-.37c-.09-.15-.12-.36-.09-.6 0-.22.06-.42.19-.6.03-.12.05-.22.05-.28-.12.06-.26.11-.42.14-.31.12-.46.3-.46.51-.06.16-.03.29.09.42.03.06.05.11.05.14a1.34 1.34 0 00-.84 0c-.19.12-.38.3-.58.51-.2.22-.3.57-.3 1.07 0 .46.11 1.02.33 1.65.22.64.55 1.27 1 1.91.45.64.95 1.2 1.51 1.7s1.19.9 1.91 1.21c.68.34 1.46.55 2.32.63.87.08 1.71.08 2.53 0 .82-.08 1.59-.25 2.3-.51.71-.26 1.29-.57 1.72-.91.81-.71 1.51-1.6 2.12-2.65.6-1.05.84-2.14.72-3.25-.09-1.15-.43-2.12-1.02-2.93-.59-.81-1.07-1.43-1.44-1.86-.43-.43-.8-.75-1.09-.95-.29-.2-.5-.27-.63-.21a1.4 1.4 0 00-.05.42c0 .03.02.06.05.09-.34.06-.64.06-.88 0-.53 0-1.07-.09-1.63-.28-.43-.15-1.06-.29-1.88-.42-.82-.12-1.5-.33-2.02-.6-.56-.25-.81-.37-.74-.37.06 0-.06-.03-.37-.09-.19-.06-.54-.33-1.07-.79s-.79-1.02-.79-1.67c0-.34.15-.66.47-.95.31-.29.67-.57 1.07-.84.4-.26.82-.5 1.26-.7.43-.2.79-.32 1.07-.35.53-.12 1.25-.22 2.16-.28.91-.06 1.56.05 1.93.33.43.22.86.56 1.28 1.02.42.47.7.85.86 1.16.12.25.17.5.14.74-.03.25.11.5.42.74.22.22.49.33.84.33.09-.02.21-.07.33-.16zm-9.76 6.41c-.31-.03-.77-.15-1.37-.37-.6-.22-.98-.33-1.14-.33-.12 0-.09.08.12.23s.38.34.54.56c.22.25.5.84.86 1.77s.72 1.6 1.09 2c.25.22.54.36.88.42.34.06.7.09 1.07.09h1.39c-.28-.09-.54-.14-.79-.14h-.65c-.22 0-.39-.02-.51-.05-.22-.03-.46-.1-.72-.21a4.14 4.14 0 01-.67-.35c-.16-.12-.33-.45-.51-.98-.19-.53-.33-.94-.42-1.25-.12-.25-.28-.51-.47-.79-.06-.19-.14-.29-.23-.33.12.03.29.09.51.19.12.03.27.05.44.05h.35c.16 0 .33.02.51.05.19.03.4.05.65.05h.93a2.59 2.59 0 01-.74-.28 5.72 5.72 0 01-.67-.14c-.24-.07-.39-.13-.45-.19zm5.9-5.39l-.6-.33c-.34-.15-.68-.28-1.02-.37-.09 0-.33-.04-.7-.12-.37-.08-.78-.16-1.23-.26s-.85-.22-1.21-.4c-.36-.17-.58-.33-.67-.49-.28-.43-.22-.8.19-1.09.4-.29.84-.44 1.3-.44h1.86c-.31-.03-.64-.09-.98-.19-.25-.03-.54-.05-.88-.07-.34-.02-.62-.02-.84-.02-.5.03-.99.28-1.49.74-.5.46-.64.99-.42 1.58.12.34.35.6.67.77.33.17.67.29 1.05.37.37.08.74.12 1.09.14.36.02.63.02.81.02.12.06.36.09.7.09h1.07c.47.02.9.04 1.3.07zm3.96 1.76c-.19.06-.11.19.23.37l.51.33c.5.65.9 1.32 1.21 2 .28.59.5 1.29.67 2.12.17.82.18 1.65.02 2.49-.37 1.77-.91 2.99-1.6 3.67-.7.68-1.45 1.27-2.25 1.77-.84.46-1.72.86-2.65 1.19-.93.33-1.69.49-2.28.49-.59 0-1.2-.02-1.84-.07-.64-.05-.89-.02-.77.07.03 0 .36.04.98.12.62.08 1.35.09 2.18.02.84-.06 1.74-.22 2.72-.46.98-.25 1.88-.67 2.72-1.26.81-.59 1.44-1.3 1.91-2.14.46-.84.8-1.67 1-2.51.2-.84.33-1.61.37-2.32.05-.71.02-1.25-.07-1.63-.06-.34-.23-.77-.51-1.3s-.59-1.01-.93-1.44c-.34-.43-.66-.81-.95-1.14-.29-.34-.52-.46-.67-.37zm.23-2.13c0 .22.09.4.28.53.19.14.34.15.46.02.09-.12.32-.37.67-.74.36-.37.53-.77.53-1.21 0-.15-.01-.38-.02-.67-.02-.29-.04-.6-.07-.91-.09-.28-.17-.59-.23-.93.06 0 .14-.03.23-.09l.23-.23c0-.09-.12-.19-.37-.28l-.33-.19a1.07 1.07 0 01-.14-.23c-.12-.12-.16-.25-.09-.37.06-.12-.17-.52-.7-1.19-.53-.67-.99-1.12-1.39-1.37-.46-.28-1.16-.61-2.09-1-.93-.39-1.52-.58-1.77-.58h-.79c-.16 0-.25-.02-.28-.05.96.34 1.86.65 2.7.93.71.31 1.38.65 2 1.02.62.37 1.07.73 1.35 1.07.22.37.38.67.49.88.11.22.22.42.35.6.09.19.14.33.14.42l.09.47.19.37c.12.46.22.88.28 1.25.09.34.1.69.02 1.05-.08.36-.21.61-.4.77-.31.22-.53.35-.67.4-.14.05-.27.12-.4.21l-.27.05zM205.31 204.2h35.53v56.61h-35.53z"/></svg>