<?xml version="1.0" encoding="utf-8"?>
<!-- Generator: Adobe Illustrator 15.0.2, SVG Export Plug-In . SVG Version: 6.00 Build 0)  -->
<!DOCTYPE svg PUBLIC "-//W3C//DTD SVG 1.1//EN" "http://www.w3.org/Graphics/SVG/1.1/DTD/svg11.dtd">
<svg version="1.1" id="Layer_1" xmlns="http://www.w3.org/2000/svg" xmlns:xlink="http://www.w3.org/1999/xlink" x="0px" y="0px"
	 width="792px" height="1105.882px" viewBox="0 0 792 1105.882" enable-background="new 0 0 792 1105.882" xml:space="preserve">
<g>
	<path fill="#C39E06" d="M681.228,314.708l33.783-16.829l-5.028-39.053l-25.348-61.581l-23.092-0.07l-17.544,3.135
		c-12.807-27.976-28.464-43.03-47.477-61.727l7.258-16.721l5.231-20.641l-19.95-17.804l-39.901-24.6L523.8,46.006l-26.639,28.679
		c-28.666-3.078-51.441-15.802-78.878-18.089l-10.501-35.512l-40.228-0.684l-34.037,6.156l-30.123,6.973L301.52,70.84
		c-17.176,5.795-33.568,13.104-49.021,21.807c-8.576,4.82-16.873,10.058-24.853,15.701l-29.16-19.317L146.639,138.4l-20.128,27.266
		l21.269,28.07c-15.15,30.635-26.031,50.377-33.251,78.15l-32.694,3.711L76.02,297.5l-2.584,66.687l2.521,16.372l32.707,7.467
		c4.458,29.35,7.511,60.644,22.446,79.942l-18.722,25.531l16.062,31.677l46.919,52.505l20.686-6.815l8.766-8.272
		c21.825,18.899,46.463,34.493,73.026,46.197l-1.963,31.997l65.806,20.204l34.658-0.975l15.213-26.854
		c12.107,0.075,24.331-0.507,36.643-1.964c16.379-1.951,32.226-5.295,47.515-9.805l20.052,27.146l18.634-6.018l32.263-12.274
		l29.553-17.228l13.389-11.895l-10.741-34.847c30.578-19.381,39.952-38.584,55.343-61.601l35.012,8.424l6.777-15.821l31.136-58.975
		l3.496-21.826l-32.313-20.888C683.001,369.519,689.879,346.579,681.228,314.708z"/>
	<g>
		<path fill="#F5F5F5" d="M318.33,487.146h-102.3V195.231h91.596l87.314,118.14l87.324-118.14h91.583v291.915H471.561l2.559-156.655
			l8.931,10.064l-86.678,120.978l-88.113-117.925l7.499-13.117L318.33,487.146z"/>
	</g>
</g>
<g>
	<path fill="#68737A" d="M49.742,772.337h30.426l24.119,63.538l25.537-63.538h30.743l17.975,118.868h-30.895l-8.677-68.415h-0.317
		l-28.526,68.415h-12.3l-27.272-68.415h-0.316l-9.931,68.415H29.563L49.742,772.337z"/>
	<path fill="#68737A" d="M224.523,891.206h-30.895V772.337h30.895V891.206z"/>
	<path fill="#68737A" d="M312.002,802.922c-5.675-4.731-12.92-7.886-20.496-7.886c-5.675,0-13.237,3.319-13.237,9.938
		c0,6.936,8.348,9.614,13.719,11.35l7.879,2.362c16.556,4.89,29.324,13.244,29.324,32.479c0,11.818-2.837,23.96-12.3,31.997
		c-9.297,7.886-21.762,11.198-33.732,11.198c-14.985,0-29.641-5.042-41.776-13.561l13.237-24.91
		c7.727,6.783,16.873,12.301,27.437,12.301c7.246,0,14.973-3.623,14.973-11.983c0-8.665-12.135-11.667-18.76-13.554
		c-19.393-5.523-32.162-10.564-32.162-33.581c0-24.118,17.189-39.889,40.991-39.889c11.983,0,26.639,3.787,37.204,9.779
		L312.002,802.922z"/>
	<path fill="#68737A" d="M411.139,802.922c-5.675-4.731-12.934-7.886-20.499-7.886c-5.675,0-13.25,3.319-13.25,9.938
		c0,6.936,8.36,9.614,13.718,11.35l7.883,2.362c16.556,4.89,29.324,13.244,29.324,32.479c0,11.818-2.838,23.96-12.3,31.997
		c-9.298,7.886-21.753,11.198-33.736,11.198c-14.973,0-29.641-5.042-41.776-13.561l13.25-24.91
		c7.714,6.783,16.86,12.301,27.424,12.301c7.246,0,14.973-3.623,14.973-11.983c0-8.665-12.135-11.667-18.76-13.554
		c-19.381-5.523-32.162-10.564-32.162-33.581c0-24.118,17.189-39.889,40.991-39.889c11.986,0,26.655,3.787,37.207,9.779
		L411.139,802.922z"/>
	<path fill="#68737A" d="M475.905,891.206h-30.907V772.337h30.907V891.206z"/>
	<path fill="#68737A" d="M623.592,829.567c0,38.464-27.589,65.578-65.729,65.578c-38.153,0-65.742-27.114-65.742-65.578
		c0-35.949,31.528-61.169,65.742-61.169C592.063,768.398,623.592,793.618,623.592,829.567z M524.281,829.719
		c0,20.495,15.125,35.475,33.581,35.475c18.443,0,33.567-14.979,33.567-35.475c0-16.392-15.124-31.363-33.567-31.363
		C539.406,798.356,524.281,813.328,524.281,829.719z"/>
	<path fill="#68737A" d="M639.945,772.337h30.908l56.584,72.678h0.316v-72.678h30.908v118.868h-30.908l-56.597-72.836h-0.304v72.836
		h-30.908V772.337z"/>
	<path fill="#68737A" d="M68.983,1059.667l-8.195,20.66H27.992l45.716-118.869h33.732l44.778,118.869h-32.947l-7.727-20.66H68.983z
		 M90.581,998.192h-0.317l-12.768,37.837h25.689L90.581,998.192z"/>
	<path fill="#68737A" d="M276.395,1080.327h-38.458l-29.172-45.717h-0.304v45.717h-30.908V961.458h46.197
		c23.485,0,41.294,11.198,41.294,36.57c0,16.404-9.133,30.591-26.005,33.58L276.395,1080.327z M208.461,1014.749h2.99
		c10.083,0,21.445-1.9,21.445-14.82c0-12.934-11.362-14.821-21.445-14.821h-2.99V1014.749z"/>
	<path fill="#68737A" d="M347.774,1080.327h-30.896v-92.699h-25.537v-26.17h81.969v26.17h-25.537V1080.327z"/>
	<path fill="#68737A" d="M431.14,1080.327h-30.895V961.458h30.895V1080.327z"/>
	<path fill="#68737A" d="M532.338,992.036c-5.675-4.725-12.934-7.879-20.495-7.879c-5.675,0-13.25,3.319-13.25,9.932
		c0,6.941,8.36,9.614,13.718,11.35l7.88,2.369c16.556,4.889,29.324,13.236,29.324,32.479c0,11.818-2.838,23.953-12.3,31.997
		c-9.298,7.879-21.75,11.197-33.732,11.197c-14.973,0-29.642-5.054-41.776-13.566l13.25-24.903c7.714,6.776,16.859,12.3,27.424,12.3
		c7.246,0,14.973-3.623,14.973-11.983c0-8.664-12.135-11.666-18.76-13.554c-19.381-5.522-32.162-10.564-32.162-33.581
		c0-24.118,17.189-39.889,40.991-39.889c11.982,0,26.651,3.788,37.203,9.779L532.338,992.036z"/>
	<path fill="#68737A" d="M627.202,1080.327h-30.896v-92.699h-25.549v-26.17h81.981v26.17h-25.537V1080.327z"/>
	<path fill="#68737A" d="M744.931,992.036c-5.675-4.725-12.921-7.879-20.495-7.879c-5.676,0-13.237,3.319-13.237,9.932
		c0,6.941,8.348,9.614,13.718,11.35l7.879,2.369c16.557,4.889,29.325,13.236,29.325,32.479c0,11.818-2.838,23.953-12.3,31.997
		c-9.298,7.879-21.763,11.197-33.732,11.197c-14.985,0-29.642-5.054-41.776-13.566l13.237-24.903
		c7.727,6.776,16.872,12.3,27.437,12.3c7.246,0,14.973-3.623,14.973-11.983c0-8.664-12.135-11.666-18.76-13.554
		c-19.394-5.522-32.162-10.564-32.162-33.581c0-24.118,17.189-39.889,40.991-39.889c11.982,0,26.639,3.788,37.203,9.779
		L744.931,992.036z"/>
</g>
</svg>
