<?xml version="1.0" encoding="utf-8"?>
<!-- Generator: Adobe Illustrator 18.1.1, SVG Export Plug-In . SVG Version: 6.00 Build 0)  -->
<svg version="1.1" id="Layer_1" xmlns="http://www.w3.org/2000/svg" xmlns:xlink="http://www.w3.org/1999/xlink" x="0px" y="0px"
	 viewBox="-215 307.8 179.2 179.2" enable-background="new -215 307.8 179.2 179.2" xml:space="preserve">
<path fill="#5A636A" d="M-55,448.3c0,8-2.4,14.3-7.3,19s-11.3,6.9-19.4,6.9h-87.4c-8.1,0-14.5-2.3-19.4-6.9s-7.3-11-7.3-19
	c0-3.5,0.1-7,0.4-10.4c0.2-3.4,0.7-7,1.4-10.9s1.6-7.5,2.6-10.9c1.1-3.3,2.5-6.6,4.3-9.8c1.8-3.2,3.9-5.9,6.2-8.1
	c2.3-2.2,5.2-4,8.6-5.3c3.4-1.3,7.1-2,11.2-2c0.6,0,2,0.7,4.2,2.1c2.2,1.4,4.7,3,7.4,4.8s6.4,3.4,10.8,4.8c4.4,1.4,8.9,2.1,13.3,2.1
	s8.9-0.7,13.3-2.1c4.4-1.4,8-3,10.8-4.8s5.2-3.4,7.4-4.8c2.2-1.4,3.6-2.1,4.2-2.1c4.1,0,7.8,0.7,11.1,2c3.4,1.3,6.2,3.1,8.6,5.3
	c2.3,2.2,4.4,4.9,6.2,8.1c1.8,3.2,3.2,6.4,4.3,9.8s2,7,2.7,10.9s1.2,7.5,1.4,10.9S-55,444.8-55,448.3z M-87,359
	c0,10.6-3.8,19.6-11.2,27.1s-16.6,11.2-27.2,11.2s-19.7-3.8-27.2-11.2s-11.2-16.6-11.2-27.1c0-10.6,3.8-19.7,11.2-27.2
	s16.6-11.2,27.2-11.2s19.7,3.8,27.2,11.2S-87,348.4-87,359z"/>
</svg>
