<?xml version="1.0" encoding="utf-8"?>
<!-- Generator: Adobe Illustrator 15.0.2, SVG Export Plug-In . SVG Version: 6.00 Build 0)  -->
<!DOCTYPE svg PUBLIC "-//W3C//DTD SVG 1.1//EN" "http://www.w3.org/Graphics/SVG/1.1/DTD/svg11.dtd">
<svg version="1.1" id="Layer_1" xmlns="http://www.w3.org/2000/svg" xmlns:xlink="http://www.w3.org/1999/xlink" x="0px" y="0px"
	 width="216px" height="216px" viewBox="0 0 216 216" enable-background="new 0 0 216 216" xml:space="preserve">
<g>
	<path fill="#d7682b" d="M102.252,126.91h-2.101v3.259h2.208c0.515,0,1.051-0.407,1.051-1.629
		C103.41,127.275,102.767,126.91,102.252,126.91z"/>
	<path fill="#d7682b" d="M110.979,152.64h-1.673v7.933h1.673c2.187,0,3.43-1.693,3.43-3.987
		C114.409,154.227,113.123,152.64,110.979,152.64z"/>
	<path fill="#d7682b" d="M133.771,152.618c-2.101,0-3.044,2.016-3.044,4.01c0,2.036,0.985,4.009,3.065,4.009
		c2.122,0,3.044-2.059,3.044-4.052C136.837,154.526,135.829,152.618,133.771,152.618z"/>
	<path fill="#d7682b" d="M86.858,126.889c-2.101,0-3.044,2.016-3.044,4.01c0,2.036,0.986,4.009,3.066,4.009
		c2.123,0,3.044-2.059,3.044-4.052C89.924,128.797,88.916,126.889,86.858,126.889z"/>
	<path fill="#d7682b" d="M105.319,101.181h-2.53v3.258h2.637c0.515,0,1.051-0.6,1.051-1.629
		C106.477,101.76,105.833,101.181,105.319,101.181z"/>
	<path fill="#d7682b" d="M213.62,84.287l-72.981-10.604L108,7.549L75.361,73.682L2.38,84.287l52.81,51.477l-12.466,72.688
		L108,174.133l65.277,34.318l-12.467-72.688L213.62,84.287z M142.841,97.429c2.572,0,4.78,1.265,5.788,3.323l-3.108,2.38
		c-0.515-1.201-1.672-1.994-2.83-1.994c-1.736,0-2.979,1.672-2.979,4.03c0,2.38,1.243,3.988,3.087,3.988
		c1.029,0,2.015-0.536,2.83-1.501h-2.68v-3.001h6.26v8.104h-3.452v-1.244c-0.985,0.922-2.058,1.352-3.322,1.352
		c-3.752,0-6.968-3.623-6.968-7.847C135.466,100.752,138.703,97.429,142.841,97.429z M122.43,71.807h12.948v3.645h-4.373v11.577
		h-4.181V75.452h-4.395V71.807z M116.727,71.807h4.181v15.221h-4.181V71.807z M117.498,97.537v15.221h-4.181V97.537H117.498z
		 M106.991,81.09c-2.68-0.9-3.859-2.037-3.859-4.266c0-3.366,2.68-5.146,5.681-5.146c2.209,0,4.331,0.965,5.703,1.651l-1.801,3.452
		c0,0-2.208-1.394-4.03-1.394c-0.729,0-1.223,0.214-1.223,0.75c0,0.793,1.072,0.964,2.83,1.522c2.809,0.879,4.588,1.865,4.588,4.716
		c0,3.666-2.958,4.845-5.788,4.845c-2.209,0-4.803-0.708-6.625-1.779l1.801-3.666c0,0,2.551,1.672,4.889,1.672
		c0.9,0,1.222-0.257,1.222-0.665C110.379,81.904,108.813,81.711,106.991,81.09z M107.249,112.758l-2.895-4.674h-1.565v4.674h-4.181
		V97.537h6.989c2.98,0,5.124,2.68,5.124,5.274c0,1.758-0.814,3.387-2.187,4.352l3.43,5.596H107.249z M107.655,128.54
		c0,2.701-2.015,5.273-5.017,5.273h-2.487v4.674h-4.181v-15.222h6.561C105.511,123.266,107.655,125.945,107.655,128.54z
		 M96.7,71.807h4.181v15.221H96.7V71.807z M96.227,105.361c0,4.245-2.165,7.525-6.882,7.525c-4.866,0-6.86-3.494-6.86-7.525v-7.825
		h4.181v7.825c0,2.016,0.75,3.816,2.68,3.816c1.973,0,2.701-1.844,2.701-3.816v-7.825h4.181V105.361z M94.168,130.941
		c0,3.987-3.044,7.675-7.332,7.675c-4.352,0-7.268-3.838-7.268-7.761c0-4.031,3.087-7.676,7.354-7.676
		C91.296,123.18,94.168,127.061,94.168,130.941z M85.25,71.807l2.979,9.969l2.938-9.969h4.395l-5.595,15.221h-3.473l-5.66-15.221
		H85.25z M67.347,97.537H73.2c5.06,0,7.675,3.387,7.675,7.589c0,4.609-3.044,7.632-7.675,7.632h-5.853V97.537z M68.226,164.41
		c-2.208,0-4.802-0.708-6.625-1.78l1.801-3.666c0,0,2.551,1.673,4.888,1.673c0.9,0,1.222-0.258,1.222-0.665
		c0-0.879-1.565-1.071-3.387-1.693c-2.68-0.9-3.859-2.037-3.859-4.267c0-3.365,2.68-5.145,5.681-5.145
		c2.208,0,4.331,0.964,5.703,1.65l-1.801,3.451c0,0-2.208-1.394-4.03-1.394c-0.729,0-1.222,0.215-1.222,0.751
		c0,0.793,1.072,0.965,2.83,1.521c2.808,0.88,4.588,1.865,4.588,4.717C74.014,163.23,71.055,164.41,68.226,164.41z M87.714,152.64
		h-4.373v11.577h-4.181V152.64h-4.395v-3.645h12.949V152.64z M102.745,156.82c0,4.245-2.165,7.525-6.882,7.525
		c-4.866,0-6.86-3.495-6.86-7.525v-7.825h4.181v7.825c0,2.016,0.75,3.816,2.68,3.816c1.973,0,2.701-1.844,2.701-3.816v-7.825h4.181
		V156.82z M110.979,164.217h-5.854v-15.222h5.854c5.06,0,7.675,3.388,7.675,7.59C118.654,161.194,115.61,164.217,110.979,164.217z
		 M120.112,138.487h-10.848v-15.222h10.655v3.645h-6.475v2.145h5.531v3.387h-5.531v2.401h6.667V138.487z M120.114,97.537h3.259
		l6.11,7.739v-7.739h4.181v15.221h-3.323l-6.046-7.482v7.482h-4.181V97.537z M124.681,164.217H120.5v-15.222h4.181V164.217z
		 M126.246,138.487h-4.181v-15.222h3.259l6.11,7.739v-7.739h4.181v15.222h-3.323l-6.046-7.482V138.487z M133.75,164.346
		c-4.352,0-7.268-3.838-7.268-7.761c0-4.03,3.087-7.676,7.354-7.676c4.373,0,7.246,3.881,7.246,7.761
		C141.082,160.658,138.038,164.346,133.75,164.346z M148.352,164.41c-2.208,0-4.803-0.708-6.625-1.78l1.801-3.666
		c0,0,2.552,1.673,4.889,1.673c0.9,0,1.222-0.258,1.222-0.665c0-0.879-1.564-1.071-3.387-1.693c-2.681-0.9-3.859-2.037-3.859-4.267
		c0-3.365,2.68-5.145,5.682-5.145c2.208,0,4.33,0.964,5.702,1.65l-1.801,3.451c0,0-2.208-1.394-4.03-1.394
		c-0.729,0-1.223,0.215-1.223,0.751c0,0.793,1.072,0.965,2.83,1.521c2.809,0.88,4.588,1.865,4.588,4.717
		C154.14,163.23,151.182,164.41,148.352,164.41z"/>
	<path fill="#d7682b" d="M76.63,105.125c0-2.358-1.287-3.944-3.43-3.944h-1.672v7.932H73.2
		C75.387,109.113,76.63,107.419,76.63,105.125z"/>
</g>
</svg>
