<?xml version="1.0" encoding="utf-8"?>
<!-- Generator: Adobe Illustrator 15.0.2, SVG Export Plug-In . SVG Version: 6.00 Build 0)  -->
<!DOCTYPE svg PUBLIC "-//W3C//DTD SVG 1.1//EN" "http://www.w3.org/Graphics/SVG/1.1/DTD/svg11.dtd">
<svg version="1.1" id="Layer_1" xmlns="http://www.w3.org/2000/svg" xmlns:xlink="http://www.w3.org/1999/xlink" x="0px" y="0px"
	 width="680.393px" height="682.353px" viewBox="0 0 680.393 682.353" enable-background="new 0 0 680.393 682.353"
	 xml:space="preserve">
<g>
	<path fill="#C39E06" d="M628.169,314.708l33.783-16.829l-5.028-39.053l-25.348-61.581l-23.092-0.07l-17.544,3.135
		c-12.807-27.976-28.464-43.03-47.477-61.727l7.258-16.721l5.231-20.641l-19.95-17.804l-39.901-24.6l-25.36-12.813l-26.639,28.679
		c-28.666-3.078-51.441-15.802-78.878-18.089l-10.501-35.512l-40.228-0.684l-34.037,6.156l-30.123,6.973l-1.875,37.311
		c-17.176,5.795-33.568,13.104-49.021,21.807c-8.576,4.82-16.873,10.058-24.853,15.701l-29.16-19.317L93.581,138.4l-20.128,27.266
		l21.269,28.07c-15.15,30.635-26.031,50.377-33.251,78.15l-32.694,3.711L22.961,297.5l-2.584,66.687l2.521,16.372l32.707,7.467
		c4.458,29.35,7.511,60.644,22.446,79.942l-18.722,25.531l16.062,31.677l46.919,52.505l20.686-6.815l8.766-8.272
		c21.825,18.899,46.463,34.493,73.026,46.197l-1.963,31.997l65.806,20.204l34.658-0.975l15.213-26.854
		c12.107,0.075,24.331-0.507,36.643-1.964c16.379-1.951,32.226-5.295,47.515-9.805l20.052,27.146l18.634-6.018l32.263-12.274
		l29.553-17.228l13.389-11.895l-10.741-34.847c30.578-19.381,39.952-38.584,55.343-61.601l35.012,8.424l6.777-15.821l31.136-58.975
		l3.496-21.826l-32.313-20.888C629.942,369.519,636.82,346.579,628.169,314.708z"/>
	<g>
		<path fill="#F5F5F5" d="M265.271,487.146h-102.3V195.231h91.596l87.314,118.14l87.324-118.14h91.583v291.915H418.502
			l2.559-156.655l8.931,10.064l-86.678,120.978l-88.113-117.925l7.499-13.117L265.271,487.146z"/>
	</g>
</g>
</svg>
