<?xml version="1.0" encoding="utf-8"?>
<!-- Generator: Adobe Illustrator 28.3.0, SVG Export Plug-In . SVG Version: 6.00 Build 0)  -->
<svg version="1.1" id="Layer_1" xmlns="http://www.w3.org/2000/svg" xmlns:xlink="http://www.w3.org/1999/xlink" x="0px" y="0px"
	 viewBox="0 0 1290.9 490.7" style="enable-background:new 0 0 1290.9 490.7;" xml:space="preserve">
<style type="text/css">
	.st0{fill:#D7672B;}
	.st1{fill:#FFFFFF;}
	.st2{font-family:'Impact';}
	.st3{font-size:123px;}
	.st4{fill:#D7672B;stroke:#FFFFFF;stroke-miterlimit:10;}
</style>
<rect class="st0" width="1290.9" height="490.7"/>
<rect x="486.9" y="241.9" class="st1" width="365.8" height="55.4"/>
<g>
	<text transform="matrix(1 0 0 1 315.4517 245.35)" class="st1 st2 st3">OPENSTUDIOS</text>
</g>
<g>
	<text transform="matrix(1 0 0 1 1382.2222 124.5976)" class="st0 st2" style="font-size:70px; letter-spacing:-3;">A</text>
</g>
<g>
	<text transform="matrix(1 0 0 1 1381.802 184.608)" class="st0 st2" style="font-size:70px; letter-spacing:-3;">P</text>
</g>
<g>
	<text transform="matrix(1 0 0 1 1381.802 244.6182)" class="st0 st2" style="font-size:70px; letter-spacing:-3;">R</text>
</g>
<g>
	<text transform="matrix(1 0 0 1 1381.802 304.6285)" class="st0 st2" style="font-size:70px; letter-spacing:-3;">1</text>
</g>
<g>
	<text transform="matrix(1 0 0 1 1381.802 364.6387)" class="st0 st2" style="font-size:70px; letter-spacing:-3;">3</text>
</g>
<g>
	<text transform="matrix(1 0 0 1 1381.802 424.649)" class="st0 st2" style="font-size:70px; letter-spacing:-3;">-</text>
</g>
<g>
	<text transform="matrix(1 0 0 1 1381.802 484.6592)" class="st0 st2" style="font-size:70px; letter-spacing:-3;">1</text>
</g>
<g>
	<text transform="matrix(1 0 0 1 1381.802 544.6695)" class="st0 st2" style="font-size:70px; letter-spacing:-3;">4</text>
</g>
<g>
	<text transform="matrix(1 0 0 1 1381.802 604.6797)" class="st0 st2" style="font-size:70px; letter-spacing:-3;">,</text>
</g>
<g>
	<text transform="matrix(1 0 0 1 1381.802 664.69)" class="st0 st2" style="font-size:70px; letter-spacing:-3;">2</text>
</g>
<g>
	<text transform="matrix(1 0 0 1 1381.802 724.7003)" class="st0 st2" style="font-size:70px; letter-spacing:-3;">0</text>
</g>
<g>
	<text transform="matrix(1 0 0 1 1381.802 784.7105)" class="st0 st2" style="font-size:70px; letter-spacing:-3;">2</text>
</g>
<g>
	<text transform="matrix(1 0 0 1 1381.8025 844.7206)" class="st0 st2" style="font-size:70px; letter-spacing:-3;">3</text>
</g>
<g>
	<text transform="matrix(1 0 0 1 1340.6719 -121.3862)" class="st0 st2" style="font-size:70px; letter-spacing:-3;">APR 13-14, 2023</text>
</g>
<path class="st0" d="M507.3,242.9l8.2,55.3h-14.7l-0.8-9.9h-5.1l-0.9,9.9h-14.9l7.3-55.3H507.3z M499.7,278.5
	c-0.7-6.3-1.5-14-2.2-23.2c-1.5,10.6-2.4,18.3-2.8,23.2H499.7z"/>
<path class="st0" d="M514.5,242.9H529c3.9,0,6.9,0.3,9,0.9c2.1,0.6,3.7,1.5,4.8,2.7s1.8,2.6,2.2,4.2c0.4,1.7,0.6,4.2,0.6,7.7v4.8
	c0,3.5-0.4,6.1-1.1,7.7c-0.7,1.6-2.1,2.9-4,3.7c-1.9,0.9-4.5,1.3-7.6,1.3h-3.9v22.3h-14.4V242.9z M528.9,252.4v14.1
	c0.4,0,0.8,0,1.1,0c1.3,0,2.2-0.3,2.8-1s0.8-2,0.8-4.1V257c0-1.9-0.3-3.1-0.9-3.7C532,252.7,530.8,252.4,528.9,252.4z"/>
<path class="st0" d="M546.1,242.9h10.2c6.8,0,11.4,0.3,13.8,0.8c2.4,0.5,4.4,1.9,5.9,4c1.5,2.2,2.3,5.6,2.3,10.3
	c0,4.3-0.5,7.2-1.6,8.7c-1.1,1.5-3.2,2.4-6.3,2.7c2.8,0.7,4.8,1.7,5.7,2.8c1,1.2,1.6,2.3,1.8,3.3s0.4,3.7,0.4,8.2v14.6h-13.4v-18.4
	c0-3-0.2-4.8-0.7-5.5c-0.5-0.7-1.7-1.1-3.7-1.1v25h-14.4V242.9z M560.5,252.4v12.3c1.6,0,2.8-0.2,3.4-0.7s1-1.9,1-4.3v-3
	c0-1.8-0.3-2.9-0.9-3.5C563.3,252.7,562.2,252.4,560.5,252.4z"/>
<path class="st0" d="M610.1,242.9v55.3h-13.8v-29.7c0-4.3-0.1-6.9-0.3-7.7c-0.2-0.9-0.8-1.5-1.7-2s-3-0.7-6.2-0.7h-1.4v-6.5
	c6.7-1.4,11.7-4.4,15.2-8.9H610.1z"/>
<path class="st0" d="M637.9,266.9c2.1,0.7,3.7,1.9,4.7,3.5c1,1.6,1.5,5.4,1.5,11.3c0,4.4-0.5,7.8-1.5,10.2c-1,2.4-2.7,4.3-5.2,5.5
	s-5.6,1.9-9.5,1.9c-4.4,0-7.8-0.7-10.3-2.2s-4.1-3.3-4.9-5.4c-0.8-2.1-1.2-5.8-1.2-11.1v-4.4h13.8v9c0,2.4,0.1,3.9,0.4,4.6
	c0.3,0.6,0.9,1,1.9,1c1.1,0,1.8-0.4,2.1-1.2s0.5-3,0.5-6.4v-3.8c0-2.1-0.2-3.7-0.7-4.6c-0.5-1-1.2-1.6-2.1-1.9s-2.7-0.5-5.4-0.5v-8
	c3.3,0,5.3-0.1,6.1-0.4c0.8-0.3,1.3-0.8,1.7-1.6c0.3-0.8,0.5-2.2,0.5-4v-3.1c0-1.9-0.2-3.2-0.6-3.8c-0.4-0.6-1-0.9-1.9-0.9
	c-1,0-1.6,0.3-2,1c-0.4,0.6-0.5,2-0.5,4.2v4.5h-13.8v-4.7c0-5.3,1.2-8.9,3.6-10.7c2.4-1.9,6.3-2.8,11.5-2.8c6.6,0,11.1,1.3,13.4,3.9
	c2.3,2.6,3.5,6.1,3.5,10.7c0,3.1-0.4,5.3-1.3,6.7C641.5,264.5,640,265.8,637.9,266.9z"/>
<path class="st4" d="M725.3,287.4v5c0,2.6-0.3,4.7-0.9,6.4s-1.7,3.1-3.2,4.2c-1.5,1.2-3.2,1.9-5.1,2.3v-4c1.4-0.8,2.1-1.8,2.3-3.1
	h-2.3v-10.8H725.3z"/>
<path class="st0" d="M662.5,270.8v9.5h-18.1v-9.5H662.5z"/>
<path class="st0" d="M684,242.9v55.3h-13.8v-29.7c0-4.3-0.1-6.9-0.3-7.7c-0.2-0.9-0.8-1.5-1.7-2s-3-0.7-6.2-0.7h-1.4v-6.5
	c6.7-1.4,11.7-4.4,15.2-8.9H684z"/>
<path class="st0" d="M714,242.9v36.2h3.9v9.4H714v9.7h-13.8v-9.7h-16.4v-9.4l11.9-36.2H714z M700.2,279.1v-23.5l-6.1,23.5H700.2z"/>
<path class="st0" d="M725.3,287.4v5c0,2.6-0.3,4.7-0.9,6.4s-1.7,3.1-3.2,4.2c-1.5,1.2-3.2,1.9-5.1,2.3v-4c1.4-0.8,2.1-1.8,2.3-3.1
	h-2.3v-10.8H725.3z"/>
<path class="st0" d="M764.2,288.8v9.4h-30.4l0-7.9c9-14.7,14.3-23.8,16-27.3c1.7-3.5,2.5-6.2,2.5-8.2c0-1.5-0.3-2.6-0.8-3.4
	c-0.5-0.7-1.3-1.1-2.3-1.1s-1.8,0.4-2.3,1.2c-0.5,0.8-0.8,2.4-0.8,4.9v5.3h-12.4v-2c0-3.1,0.2-5.5,0.5-7.3c0.3-1.8,1.1-3.5,2.4-5.3
	c1.3-1.7,2.9-3,4.9-3.9s4.4-1.3,7.2-1.3c5.5,0,9.6,1.4,12.5,4.1c2.8,2.7,4.2,6.2,4.2,10.3c0,3.2-0.8,6.5-2.4,10
	c-1.6,3.5-6.2,11-14,22.5H764.2z"/>
<path class="st0" d="M798.6,261.7v18.5c0,4.2-0.2,7.2-0.7,9.2c-0.5,1.9-1.4,3.7-2.8,5.4c-1.4,1.7-3.2,2.9-5.2,3.6
	c-2,0.7-4.3,1.1-6.8,1.1c-3.3,0-6-0.4-8.2-1.1s-3.9-2-5.2-3.6c-1.3-1.6-2.2-3.3-2.8-5.1c-0.5-1.8-0.8-4.6-0.8-8.5v-19.3
	c0-5.1,0.4-8.9,1.3-11.4c0.9-2.5,2.6-4.6,5.2-6.1c2.6-1.5,5.8-2.3,9.5-2.3c3,0,5.7,0.5,8.1,1.6s4.2,2.4,5.4,3.9
	c1.2,1.5,2,3.2,2.4,5.2C798.4,254.4,798.6,257.5,798.6,261.7z M784.8,257c0-2.9-0.1-4.8-0.4-5.5c-0.3-0.7-1-1.1-2-1.1
	c-1,0-1.7,0.4-2,1.2c-0.3,0.8-0.5,2.6-0.5,5.5v27c0,3.2,0.2,5.1,0.5,5.8c0.3,0.7,1,1,2,1s1.7-0.4,2-1.2c0.3-0.8,0.5-2.5,0.5-5.2V257
	z"/>
<path class="st0" d="M829.8,288.8v9.4h-30.4l0-7.9c9-14.7,14.3-23.8,16-27.3c1.7-3.5,2.5-6.2,2.5-8.2c0-1.5-0.3-2.6-0.8-3.4
	c-0.5-0.7-1.3-1.1-2.3-1.1s-1.8,0.4-2.3,1.2c-0.5,0.8-0.8,2.4-0.8,4.9v5.3h-12.4v-2c0-3.1,0.2-5.5,0.5-7.3c0.3-1.8,1.1-3.5,2.4-5.3
	c1.3-1.7,2.9-3,4.9-3.9c2-0.9,4.4-1.3,7.2-1.3c5.5,0,9.6,1.4,12.5,4.1c2.8,2.7,4.2,6.2,4.2,10.3c0,3.2-0.8,6.5-2.4,10
	c-1.6,3.5-6.2,11-14,22.5H829.8z"/>
<path class="st0" d="M857.6,266.9c2.1,0.7,3.7,1.9,4.7,3.5c1,1.6,1.5,5.4,1.5,11.3c0,4.4-0.5,7.8-1.5,10.2c-1,2.4-2.7,4.3-5.2,5.5
	s-5.6,1.9-9.5,1.9c-4.4,0-7.8-0.7-10.3-2.2c-2.5-1.5-4.1-3.3-4.9-5.4c-0.8-2.1-1.2-5.8-1.2-11.1v-4.4h13.8v9c0,2.4,0.1,3.9,0.4,4.6
	c0.3,0.6,0.9,1,1.9,1c1.1,0,1.8-0.4,2.1-1.2s0.5-3,0.5-6.4v-3.8c0-2.1-0.2-3.7-0.7-4.6c-0.5-1-1.2-1.6-2.1-1.9
	c-0.9-0.3-2.7-0.5-5.4-0.5v-8c3.3,0,5.3-0.1,6.1-0.4c0.8-0.3,1.3-0.8,1.7-1.6c0.3-0.8,0.5-2.2,0.5-4v-3.1c0-1.9-0.2-3.2-0.6-3.8
	s-1-0.9-1.9-0.9c-1,0-1.6,0.3-2,1s-0.5,2-0.5,4.2v4.5h-13.8v-4.7c0-5.3,1.2-8.9,3.6-10.7c2.4-1.9,6.3-2.8,11.5-2.8
	c6.6,0,11.1,1.3,13.4,3.9c2.3,2.6,3.5,6.1,3.5,10.7c0,3.1-0.4,5.3-1.3,6.7C861.2,264.5,859.8,265.8,857.6,266.9z"/>
</svg>
