<?xml version="1.0" encoding="UTF-8"?>
<svg id="Layer_1" data-name="Layer 1" xmlns="http://www.w3.org/2000/svg" version="1.1" viewBox="0 0 1290.9 490.7">
  <defs>
    <style>
      .cls-1, .cls-2, .cls-3 {
        fill: #d7672b;
      }

      .cls-1, .cls-4 {
        stroke-width: 0px;
      }

      .cls-2 {
        font-size: 70px;
        letter-spacing: 0em;
      }

      .cls-2, .cls-5 {
        font-family: Impact, Impact;
      }

      .cls-2, .cls-5, .cls-6 {
        isolation: isolate;
      }

      .cls-5 {
        font-size: 123px;
      }

      .cls-5, .cls-4 {
        fill: #fff;
      }

      .cls-3 {
        stroke: #fff;
        stroke-miterlimit: 10;
      }
    </style>
  </defs>
  <rect class="cls-1" width="1290.9" height="490.7"/>
  <rect class="cls-4" x="476.9" y="241.9" width="384.8" height="55.4"/>
  <text class="cls-5" transform="translate(315.5 245.3)"><tspan x="0" y="0">OPENSTUDIOS</tspan></text>
  <text class="cls-2" transform="translate(1382.2 124.6)"><tspan x="0" y="0">A</tspan></text>
  <text class="cls-2" transform="translate(1381.8 184.6)"><tspan x="0" y="0">P</tspan></text>
  <text class="cls-2" transform="translate(1381.8 244.6)"><tspan x="0" y="0">R</tspan></text>
  <text class="cls-2" transform="translate(1381.8 304.6)"><tspan x="0" y="0">1</tspan></text>
  <text class="cls-2" transform="translate(1381.8 364.6)"><tspan x="0" y="0">3</tspan></text>
  <text class="cls-2" transform="translate(1381.8 424.6)"><tspan x="0" y="0">-</tspan></text>
  <text class="cls-2" transform="translate(1381.8 484.7)"><tspan x="0" y="0">1</tspan></text>
  <text class="cls-2" transform="translate(1381.8 544.7)"><tspan x="0" y="0">4</tspan></text>
  <text class="cls-2" transform="translate(1381.8 604.7)"><tspan x="0" y="0">,</tspan></text>
  <text class="cls-2" transform="translate(1381.8 664.7)"><tspan x="0" y="0">2</tspan></text>
  <text class="cls-2" transform="translate(1381.8 724.7)"><tspan x="0" y="0">0</tspan></text>
  <text class="cls-2" transform="translate(1381.8 784.7)"><tspan x="0" y="0">2</tspan></text>
  <text class="cls-2" transform="translate(1381.8 844.7)"><tspan x="0" y="0">3</tspan></text>
  <text class="cls-2" transform="translate(1340.7 -121.4)"><tspan x="0" y="0">APR 13-14, 2023</tspan></text>
  <path class="cls-1" d="M507.3,242.9l8.2,55.3h-14.7l-.8-9.9h-5.1l-.9,9.9h-14.9l7.3-55.3h20.9ZM499.7,278.5c-.7-6.3-1.5-14-2.2-23.2-1.5,10.6-2.4,18.3-2.8,23.2h5Z"/>
  <path class="cls-1" d="M514.5,242.9h14.5c3.9,0,6.9.3,9,.9,2.1.6,3.7,1.5,4.8,2.7s1.8,2.6,2.2,4.2c.4,1.7.6,4.2.6,7.7v4.8c0,3.5-.4,6.1-1.1,7.7-.7,1.6-2.1,2.9-4,3.7-1.9.9-4.5,1.3-7.6,1.3h-3.9v22.3h-14.4v-55.3h0ZM528.9,252.4v14.1h1.1c1.3,0,2.2-.3,2.8-1s.8-2,.8-4.1v-4.4c0-1.9-.3-3.1-.9-3.7-.7-.6-1.9-.9-3.8-.9Z"/>
  <path class="cls-1" d="M546.1,242.9h10.2c6.8,0,11.4.3,13.8.8,2.4.5,4.4,1.9,5.9,4,1.5,2.2,2.3,5.6,2.3,10.3s-.5,7.2-1.6,8.7-3.2,2.4-6.3,2.7c2.8.7,4.8,1.7,5.7,2.8,1,1.2,1.6,2.3,1.8,3.3s.4,3.7.4,8.2v14.6h-13.4v-18.4c0-3-.2-4.8-.7-5.5s-1.7-1.1-3.7-1.1v25h-14.4v-55.4ZM560.5,252.4v12.3c1.6,0,2.8-.2,3.4-.7s1-1.9,1-4.3v-3c0-1.8-.3-2.9-.9-3.5-.7-.5-1.8-.8-3.5-.8Z"/>
  <path class="cls-1" d="M610.1,242.9v55.3h-13.8v-29.7c0-4.3,0-6.9-.3-7.7-.2-.9-.8-1.5-1.7-2s-3-.7-6.2-.7h-1.4v-6.5c6.7-1.4,11.7-4.4,15.2-8.9h8.2v.2Z"/>
  <path class="cls-1" d="M637.9,266.9c2.1.7,3.7,1.9,4.7,3.5s1.5,5.4,1.5,11.3-.5,7.8-1.5,10.2c-1,2.4-2.7,4.3-5.2,5.5s-5.6,1.9-9.5,1.9-7.8-.7-10.3-2.2-4.1-3.3-4.9-5.4c-.8-2.1-1.2-5.8-1.2-11.1v-4.4h13.8v9c0,2.4,0,3.9.4,4.6.3.6.9,1,1.9,1s1.8-.4,2.1-1.2.5-3,.5-6.4v-3.8c0-2.1-.2-3.7-.7-4.6-.5-1-1.2-1.6-2.1-1.9s-2.7-.5-5.4-.5v-8c3.3,0,5.3-.1,6.1-.4s1.3-.8,1.7-1.6c.3-.8.5-2.2.5-4v-3.1c0-1.9-.2-3.2-.6-3.8-.4-.6-1-.9-1.9-.9s-1.6.3-2,1c-.4.6-.5,2-.5,4.2v4.5h-13.8v-4.7c0-5.3,1.2-8.9,3.6-10.7,2.4-1.9,6.3-2.8,11.5-2.8s11.1,1.3,13.4,3.9c2.3,2.6,3.5,6.1,3.5,10.7s-.4,5.3-1.3,6.7c-.7,1.1-2.2,2.4-4.3,3.5Z"/>
  <path class="cls-3" d="M725.3,287.4v5c0,2.6-.3,4.7-.9,6.4s-1.7,3.1-3.2,4.2c-1.5,1.2-3.2,1.9-5.1,2.3v-4c1.4-.8,2.1-1.8,2.3-3.1h-2.3v-10.8h9.2Z"/>
  <path class="cls-1" d="M662.5,270.8v9.5h-18.1v-9.5h18.1Z"/>
  <path class="cls-1" d="M684,242.9v55.3h-13.8v-29.7c0-4.3,0-6.9-.3-7.7-.2-.9-.8-1.5-1.7-2s-3-.7-6.2-.7h-1.4v-6.5c6.7-1.4,11.7-4.4,15.2-8.9h8.2v.2Z"/>
  <path class="cls-1" d="M714,242.9v36.2h3.9v9.4h-3.9v9.7h-13.8v-9.7h-16.4v-9.4l11.9-36.2h18.3ZM700.2,279.1v-23.5l-6.1,23.5h6.1Z"/>
  <path class="cls-1" d="M725.3,287.4v5c0,2.6-.3,4.7-.9,6.4s-1.7,3.1-3.2,4.2c-1.5,1.2-3.2,1.9-5.1,2.3v-4c1.4-.8,2.1-1.8,2.3-3.1h-2.3v-10.8h9.2Z"/>
  <path class="cls-1" d="M764.2,288.8v9.4h-30.4v-7.9c9-14.7,14.3-23.8,16-27.3s2.5-6.2,2.5-8.2-.3-2.6-.8-3.4c-.5-.7-1.3-1.1-2.3-1.1s-1.8.4-2.3,1.2-.8,2.4-.8,4.9v5.3h-12.4v-2c0-3.1.2-5.5.5-7.3s1.1-3.5,2.4-5.3c1.3-1.7,2.9-3,4.9-3.9s4.4-1.3,7.2-1.3c5.5,0,9.6,1.4,12.5,4.1,2.8,2.7,4.2,6.2,4.2,10.3s-.8,6.5-2.4,10c-1.6,3.5-6.2,11-14,22.5h15.2Z"/>
  <path class="cls-1" d="M798.6,261.7v18.5c0,4.2-.2,7.2-.7,9.2-.5,1.9-1.4,3.7-2.8,5.4-1.4,1.7-3.2,2.9-5.2,3.6s-4.3,1.1-6.8,1.1-6-.4-8.2-1.1-3.9-2-5.2-3.6-2.2-3.3-2.8-5.1c-.5-1.8-.8-4.6-.8-8.5v-19.3c0-5.1.4-8.9,1.3-11.4.9-2.5,2.6-4.6,5.2-6.1,2.6-1.5,5.8-2.3,9.5-2.3s5.7.5,8.1,1.6,4.2,2.4,5.4,3.9,2,3.2,2.4,5.2c.4,1.6.6,4.7.6,8.9ZM784.8,257c0-2.9,0-4.8-.4-5.5-.3-.7-1-1.1-2-1.1s-1.7.4-2,1.2-.5,2.6-.5,5.5v27c0,3.2.2,5.1.5,5.8.3.7,1,1,2,1s1.7-.4,2-1.2c.3-.8.5-2.5.5-5.2v-27.5h0Z"/>
  <path class="cls-1" d="M829.8,288.8v9.4h-30.4v-7.9c9-14.7,14.3-23.8,16-27.3s2.5-6.2,2.5-8.2-.3-2.6-.8-3.4c-.5-.7-1.3-1.1-2.3-1.1s-1.8.4-2.3,1.2-.8,2.4-.8,4.9v5.3h-12.4v-2c0-3.1.2-5.5.5-7.3s1.1-3.5,2.4-5.3c1.3-1.7,2.9-3,4.9-3.9s4.4-1.3,7.2-1.3c5.5,0,9.6,1.4,12.5,4.1,2.8,2.7,4.2,6.2,4.2,10.3s-.8,6.5-2.4,10c-1.6,3.5-6.2,11-14,22.5h15.2Z"/>
  <g class="cls-6">
    <path class="cls-1" d="M859.2,241.9v36.2h3.9v9.4h-3.9v9.7h-13.8v-9.7h-16.4v-9.4l11.9-36.2h18.3ZM845.4,278.1v-23.5l-6.1,23.5h6.1Z"/>
  </g>
</svg>