<?xml version="1.0" encoding="utf-8"?>
<!-- Generator: Adobe Illustrator 21.1.0, SVG Export Plug-In . SVG Version: 6.00 Build 0)  -->
<svg version="1.1" xmlns="http://www.w3.org/2000/svg" xmlns:xlink="http://www.w3.org/1999/xlink" x="0px" y="0px"
	 viewBox="0 0 576 580.6" style="enable-background:new 0 0 576 580.6;" xml:space="preserve">
<style type="text/css">
	.st0{clip-path:url(#SVGID_2_);fill:#B185BC;}
	.st1{clip-path:url(#SVGID_2_);fill:#E94698;}
	.st2{clip-path:url(#SVGID_2_);fill:#F0E911;}
	.st3{clip-path:url(#SVGID_2_);fill:#0F9A49;}
	.st4{clip-path:url(#SVGID_2_);fill:#EC2130;}
	.st5{clip-path:url(#SVGID_2_);fill:#F38120;}
	.st6{clip-path:url(#SVGID_2_);fill:#224192;}
	.st7{clip-path:url(#SVGID_2_);fill:#5E266C;}
	.st8{clip-path:url(#SVGID_2_);fill:#1A86BF;}
	.st9{fill:#F5F5F5;}
</style>
<g id="Layer_2">
</g>
<g id="Layer_1">
	<g>
		<defs>
			<path id="SVGID_1_" d="M546,267.7l30-14.9l-4.5-34.7L549,163.3l-20.5-0.1l-15.6,2.8c-11.4-24.8-25.3-38.2-42.2-54.8l6.4-14.9
				l4.6-18.3l-17.7-15.8l-35.4-21.9L406.1,29l-23.7,25.5c-25.5-2.7-45.7-14-70.1-16.1l-9.3-31.5l-35.7-0.6l-30.2,5.5l-26.8,6.2
				l-1.7,33.1c-15.3,5.1-29.8,11.6-43.5,19.4c-7.6,4.3-15,8.9-22.1,13.9l-25.9-17.2l-46.1,43.9l-17.9,24.2l18.9,24.9
				C58.7,187.4,49,205,42.6,229.7l-29,3.3l-5.2,19.5l-2.3,59.2l2.2,14.5l29.1,6.6c4,26.1,6.7,53.9,19.9,71l-16.6,22.7l14.3,28.1
				l41.7,46.6l18.4-6.1l7.8-7.3c19.4,16.8,41.3,30.6,64.9,41l-1.7,28.4l58.5,17.9l30.8-0.9l13.5-23.9c10.8,0.1,21.6-0.5,32.6-1.7
				c14.5-1.7,28.6-4.7,42.2-8.7l17.8,24.1l16.6-5.3l28.7-10.9l26.3-15.3l11.9-10.6l-9.5-31c27.2-17.2,35.5-34.3,49.2-54.7l31.1,7.5
				l6-14.1l27.7-52.4l3.1-19.4l-28.7-18.6C547.6,316.4,553.7,296,546,267.7z"/>
		</defs>
		<clipPath id="SVGID_2_">
			<use xlink:href="#SVGID_1_"  style="overflow:visible;"/>
		</clipPath>
		<rect x="0" y="0.5" class="st0" width="784.6" height="64.7"/>
		<rect x="0" y="65" class="st1" width="784.6" height="64.7"/>
		<rect x="0" y="258.4" class="st2" width="784.6" height="64.7"/>
		<rect x="0" y="322.8" class="st3" width="784.6" height="64.7"/>
		<rect x="0" y="129.4" class="st4" width="784.6" height="64.7"/>
		<rect x="0" y="193.9" class="st5" width="784.6" height="64.7"/>
		<rect x="0" y="451.8" class="st6" width="784.6" height="64.7"/>
		<rect x="0" y="516.2" class="st7" width="784.6" height="64.7"/>
		<rect x="0" y="387.3" class="st8" width="784.6" height="64.7"/>
	</g>
	<g>
		<path class="st9" d="M223.6,419.9h-90.9V160.6h81.4l77.6,104.9l77.6-104.9h81.4v259.3h-90.9l2.3-139.2l7.9,8.9l-77,107.5
			l-78.3-104.8l6.7-11.7L223.6,419.9z"/>
	</g>
</g>
</svg>
