<?xml version="1.0" encoding="utf-8"?>
<!-- Generator: Adobe Illustrator 15.0.2, SVG Export Plug-In . SVG Version: 6.00 Build 0)  -->
<!DOCTYPE svg PUBLIC "-//W3C//DTD SVG 1.1//EN" "http://www.w3.org/Graphics/SVG/1.1/DTD/svg11.dtd">
<svg version="1.1" id="Layer_1" xmlns="http://www.w3.org/2000/svg" xmlns:xlink="http://www.w3.org/1999/xlink" x="0px" y="0px"
	 width="216px" height="216px" viewBox="0 0 216 216" enable-background="new 0 0 216 216" xml:space="preserve">
<g>
	<path fill="#d7682b" d="M111.478,116.12h-1.953v9.265h1.953c2.555,0,4.007-1.978,4.007-4.658
		C115.484,117.972,113.983,116.12,111.478,116.12z"/>
	<path fill="#d7682b" d="M90.432,146.185h-2.955v3.806h3.08c0.601,0,1.227-0.701,1.227-1.903
		C91.785,146.86,91.033,146.185,90.432,146.185z"/>
	<path fill="#d7682b" d="M83.316,95.395c2.479,0,3.557-2.404,3.557-4.733c0-2.404-1.178-4.633-3.582-4.633
		c-2.454,0-3.556,2.354-3.556,4.683C79.736,93.091,80.888,95.395,83.316,95.395z"/>
	<path fill="#d7682b" d="M213.62,84.287l-72.981-10.604L108,7.549L75.361,73.682L2.38,84.287l52.81,51.477l-12.466,72.688
		L108,174.133l65.277,34.318l-12.466-72.688L213.62,84.287z M146.649,120.828c0,4.658-3.555,8.964-8.563,8.964
		c-5.084,0-8.489-4.482-8.489-9.064c0-4.708,3.605-8.965,8.588-8.965C143.294,111.762,146.649,116.294,146.649,120.828z
		 M124.435,81.797h3.806l7.137,9.039v-9.039h4.883v17.779h-3.881l-7.062-8.74v8.74h-4.883V81.797z M122.606,111.863h4.883v17.779
		h-4.883V111.863z M109.478,81.797h12.446v4.257h-7.563v2.504h6.46v3.956h-6.46v2.805h7.788v4.257h-12.67V81.797z M93.944,81.797
		h7.662c3.48,0,5.986,3.129,5.986,6.16c0,3.155-2.355,6.16-5.86,6.16h-2.905v5.459h-4.883V81.797z M93.814,125.46
		c2.303,0,3.155-2.154,3.155-4.458v-9.14h4.883v9.14c0,4.958-2.529,8.789-8.038,8.789c-5.685,0-8.013-4.081-8.013-8.789v-9.14h4.883
		v9.14C90.684,123.357,91.56,125.46,93.814,125.46z M83.366,81.696c5.109,0,8.465,4.532,8.465,9.065
		c0,4.658-3.556,8.964-8.563,8.964c-5.084,0-8.49-4.481-8.49-9.064C74.778,85.954,78.383,81.696,83.366,81.696z M69.165,111.863
		h15.126v4.257h-5.109v13.522h-4.883V116.12h-5.134V111.863z M53.783,127.789l2.103-4.282c0,0,2.98,1.954,5.71,1.954
		c1.051,0,1.427-0.301,1.427-0.776c0-1.027-1.828-1.252-3.957-1.979c-3.131-1.051-4.508-2.378-4.508-4.983
		c0-3.931,3.13-6.01,6.636-6.01c2.579,0,5.058,1.127,6.66,1.928l-2.103,4.032c0,0-2.579-1.628-4.708-1.628
		c-0.851,0-1.427,0.25-1.427,0.876c0,0.927,1.251,1.127,3.304,1.778c3.281,1.027,5.359,2.179,5.359,5.509
		c0,4.282-3.456,5.659-6.761,5.659C58.941,129.867,55.911,129.041,53.783,127.789z M76.101,159.707l-1.078-3.48h-4.732l-1.053,3.48
		h-5.183l6.636-17.779h3.956l6.611,17.779H76.101z M92.687,159.707l-3.38-5.458h-1.829v5.458h-4.883v-17.779h8.164
		c3.48,0,5.985,3.13,5.985,6.161c0,2.053-0.952,3.957-2.555,5.083l4.007,6.536H92.687z M113.18,146.185h-5.109v13.522h-4.883
		v-13.522h-5.134v-4.257h15.126V146.185z M119.848,159.707h-4.883v-17.779h4.883V159.707z M111.478,129.642h-6.835v-17.779h6.835
		c5.911,0,8.966,3.956,8.966,8.864C120.443,126.111,116.887,129.642,111.478,129.642z M129.442,159.933
		c-2.58,0-5.609-0.827-7.738-2.079l2.103-4.282c0,0,2.98,1.954,5.71,1.954c1.051,0,1.426-0.301,1.426-0.777
		c0-1.026-1.827-1.251-3.956-1.978c-3.13-1.051-4.507-2.379-4.507-4.983c0-3.932,3.131-6.01,6.636-6.01
		c2.579,0,5.058,1.127,6.66,1.929l-2.104,4.031c0,0-2.579-1.627-4.708-1.627c-0.851,0-1.427,0.25-1.427,0.876
		c0,0.927,1.252,1.127,3.306,1.778c3.28,1.026,5.358,2.178,5.358,5.509C136.203,158.555,132.747,159.933,129.442,159.933z
		 M152.213,146.185h-5.109v13.522h-4.883v-13.522h-5.134v-4.257h15.126V146.185z M155.147,129.867c-2.58,0-5.609-0.826-7.737-2.079
		l2.103-4.282c0,0,2.98,1.954,5.71,1.954c1.051,0,1.426-0.301,1.426-0.776c0-1.027-1.827-1.252-3.956-1.979
		c-3.13-1.051-4.508-2.378-4.508-4.983c0-3.931,3.131-6.01,6.637-6.01c2.579,0,5.058,1.127,6.66,1.928l-2.103,4.032
		c0,0-2.579-1.628-4.708-1.628c-0.851,0-1.428,0.25-1.428,0.876c0,0.927,1.253,1.127,3.307,1.778
		c3.28,1.027,5.358,2.179,5.358,5.509C161.909,128.49,158.453,129.867,155.147,129.867z"/>
	<path fill="#d7682b" d="M134.554,120.777c0,2.38,1.152,4.684,3.581,4.684c2.479,0,3.556-2.404,3.556-4.733
		c0-2.404-1.177-4.633-3.582-4.633C135.656,116.094,134.554,118.449,134.554,120.777z"/>
	<polygon fill="#d7682b" points="71.016,152.97 74.247,152.97 72.669,147.011 	"/>
	<path fill="#d7682b" d="M102.633,87.957c0-1.477-0.751-1.903-1.353-1.903h-2.454v3.806h2.579
		C102.007,89.86,102.633,89.385,102.633,87.957z"/>
</g>
</svg>
