<?xml version="1.0" encoding="utf-8"?>
<!-- Generator: Adobe Illustrator 15.0.2, SVG Export Plug-In . SVG Version: 6.00 Build 0)  -->
<!DOCTYPE svg PUBLIC "-//W3C//DTD SVG 1.1//EN" "http://www.w3.org/Graphics/SVG/1.1/DTD/svg11.dtd">
<svg version="1.1" xmlns="http://www.w3.org/2000/svg" xmlns:xlink="http://www.w3.org/1999/xlink" x="0px" y="0px" width="216px"
	 height="216px" viewBox="0 0 216 216" enable-background="new 0 0 216 216" xml:space="preserve">
<g id="Layer_1" display="none">
	<g display="inline">
		<path fill="#d7682b" d="M111.479,116.12h-1.953v9.265h1.953c2.555,0,4.006-1.978,4.006-4.658
			C115.484,117.973,113.982,116.12,111.479,116.12z"/>
		<path fill="#d7682b" d="M90.432,146.186h-2.955v3.806h3.08c0.601,0,1.227-0.701,1.227-1.903
			C91.785,146.859,91.033,146.186,90.432,146.186z"/>
		<path fill="#d7682b" d="M83.316,95.395c2.479,0,3.557-2.404,3.557-4.733c0-2.404-1.178-4.633-3.582-4.633
			c-2.454,0-3.556,2.354-3.556,4.683C79.736,93.091,80.888,95.395,83.316,95.395z"/>
		<path fill="#d7682b" d="M213.62,84.287l-72.981-10.604L108,7.549L75.361,73.682L2.38,84.287l52.81,51.477l-12.466,72.688
			L108,174.133l65.277,34.318l-12.467-72.688L213.62,84.287z M146.648,120.828c0,4.658-3.555,8.964-8.562,8.964
			c-5.084,0-8.488-4.481-8.488-9.063c0-4.709,3.604-8.965,8.588-8.965C143.294,111.762,146.648,116.294,146.648,120.828z
			 M124.436,81.797h3.806l7.137,9.039v-9.039h4.883v17.779h-3.881l-7.062-8.74v8.74h-4.883V81.797z M122.605,111.863h4.884v17.779
			h-4.884V111.863z M109.479,81.797h12.445v4.257h-7.562v2.504h6.459v3.956h-6.459v2.805h7.787v4.257h-12.67V81.797L109.479,81.797z
			 M93.944,81.797h7.662c3.48,0,5.986,3.129,5.986,6.16c0,3.155-2.355,6.16-5.86,6.16h-2.905v5.459h-4.883V81.797z M93.814,125.46
			c2.303,0,3.155-2.153,3.155-4.458v-9.141h4.883v9.141c0,4.958-2.529,8.789-8.038,8.789c-5.685,0-8.013-4.081-8.013-8.789v-9.141
			h4.883v9.141C90.684,123.357,91.56,125.46,93.814,125.46z M83.366,81.696c5.109,0,8.465,4.532,8.465,9.065
			c0,4.658-3.556,8.964-8.563,8.964c-5.084,0-8.49-4.481-8.49-9.064C74.778,85.954,78.383,81.696,83.366,81.696z M69.165,111.863
			h15.126v4.257h-5.109v13.522h-4.883V116.12h-5.134V111.863L69.165,111.863z M53.783,127.789l2.103-4.282
			c0,0,2.98,1.954,5.71,1.954c1.051,0,1.427-0.301,1.427-0.775c0-1.027-1.828-1.252-3.957-1.979
			c-3.131-1.051-4.508-2.378-4.508-4.983c0-3.931,3.13-6.01,6.636-6.01c2.579,0,5.058,1.127,6.66,1.928l-2.103,4.032
			c0,0-2.579-1.628-4.708-1.628c-0.851,0-1.427,0.25-1.427,0.876c0,0.927,1.251,1.127,3.304,1.778
			c3.281,1.027,5.359,2.179,5.359,5.509c0,4.282-3.456,5.659-6.761,5.659C58.941,129.867,55.911,129.041,53.783,127.789z
			 M76.101,159.707l-1.078-3.48h-4.732l-1.053,3.48h-5.183l6.636-17.779h3.956l6.611,17.779H76.101z M92.687,159.707l-3.38-5.458
			h-1.829v5.458h-4.883v-17.779h8.164c3.48,0,5.985,3.131,5.985,6.161c0,2.054-0.952,3.957-2.555,5.083l4.007,6.536L92.687,159.707
			L92.687,159.707z M113.18,146.186h-5.109v13.521h-4.883v-13.521h-5.134v-4.258h15.125V146.186z M119.848,159.707h-4.883v-17.779
			h4.883V159.707z M111.479,129.643h-6.835v-17.779h6.835c5.91,0,8.965,3.955,8.965,8.863
			C120.443,126.111,116.887,129.643,111.479,129.643z M129.441,159.934c-2.58,0-5.608-0.828-7.737-2.08l2.103-4.281
			c0,0,2.98,1.953,5.711,1.953c1.051,0,1.426-0.301,1.426-0.776c0-1.026-1.827-1.251-3.957-1.978
			c-3.129-1.051-4.506-2.379-4.506-4.983c0-3.933,3.131-6.011,6.636-6.011c2.579,0,5.058,1.128,6.659,1.93l-2.104,4.031
			c0,0-2.579-1.627-4.708-1.627c-0.851,0-1.427,0.25-1.427,0.876c0,0.927,1.252,1.127,3.306,1.778
			c3.28,1.025,5.358,2.178,5.358,5.508C136.203,158.555,132.747,159.934,129.441,159.934z M152.213,146.186h-5.109v13.521h-4.883
			v-13.521h-5.134v-4.258h15.126V146.186L152.213,146.186z M155.146,129.867c-2.58,0-5.608-0.826-7.736-2.079l2.104-4.282
			c0,0,2.979,1.954,5.709,1.954c1.051,0,1.426-0.301,1.426-0.776c0-1.026-1.826-1.252-3.955-1.979
			c-3.131-1.051-4.508-2.378-4.508-4.982c0-3.932,3.131-6.011,6.637-6.011c2.578,0,5.058,1.127,6.66,1.929l-2.104,4.031
			c0,0-2.579-1.628-4.708-1.628c-0.851,0-1.428,0.25-1.428,0.876c0,0.928,1.253,1.127,3.307,1.778
			c3.28,1.026,5.358,2.179,5.358,5.509C161.909,128.49,158.453,129.867,155.146,129.867z"/>
		<path fill="#d7682b" d="M134.555,120.777c0,2.38,1.151,4.684,3.58,4.684c2.479,0,3.557-2.404,3.557-4.732
			c0-2.404-1.178-4.634-3.582-4.634C135.656,116.094,134.555,118.449,134.555,120.777z"/>
		<polygon fill="#d7682b" points="71.016,152.97 74.247,152.97 72.669,147.011 		"/>
		<path fill="#d7682b" d="M102.633,87.957c0-1.477-0.751-1.903-1.353-1.903h-2.454v3.806h2.579
			C102.007,89.86,102.633,89.385,102.633,87.957z"/>
	</g>
</g>
<g id="Layer_2">
	<path fill="#D7682B" d="M214.12,84.787l-72.981-10.604L108.5,8.049L75.861,74.182L2.88,84.787l52.81,51.477l-12.466,72.688
		l65.277-34.318l65.277,34.318l-12.467-72.688L214.12,84.787z M150.334,157.473h-23.918l0.511-31.239l-18.092,25.25l-18.759-25.104
		l0.511,31.094h-23.92V89.215h21.417L108.5,116.84l20.42-27.625h21.414V157.473z"/>
</g>
</svg>
